<?xml version="1.0" encoding="utf-8"?>
<!-- Generator: Adobe Illustrator 22.0.0, SVG Export Plug-In . SVG Version: 6.00 Build 0)  -->
<svg version="1.1" id="Слой_1" xmlns="http://www.w3.org/2000/svg" xmlns:xlink="http://www.w3.org/1999/xlink" x="0px" y="0px"
	 viewBox="0 0 100 80" style="enable-background:new 0 0 100 80;" xml:space="preserve">
<style type="text/css">
	.st0{fill:#666666;}
	.st1{fill:#FFFFFF;filter:url(#Adobe_OpacityMaskFilter);}
	.st2{mask:url(#mask0_1_);}
</style>
<path class="st0" d="M49.8,31.3h28.9c0.7,0,1.2-0.5,1.2-1.2c0-0.7-0.5-1.2-1.2-1.2H49.8c-0.7,0-1.2,0.5-1.2,1.2
	C48.6,30.7,49.2,31.3,49.8,31.3z"/>
<path class="st0" d="M49.8,36.1h28.9c0.7,0,1.2-0.5,1.2-1.2c0-0.7-0.5-1.2-1.2-1.2H49.8c-0.7,0-1.2,0.5-1.2,1.2
	C48.6,35.5,49.2,36.1,49.8,36.1z"/>
<path class="st0" d="M49.8,40.9h19.3c0.7,0,1.2-0.5,1.2-1.2c0-0.7-0.5-1.2-1.2-1.2H49.8c-0.7,0-1.2,0.5-1.2,1.2
	C48.6,40.4,49.2,40.9,49.8,40.9z"/>
<path class="st0" d="M49.8,50.5h19.3c0.7,0,1.2-0.5,1.2-1.2c0-0.7-0.5-1.2-1.2-1.2H49.8c-0.7,0-1.2,0.5-1.2,1.2
	C48.6,50,49.2,50.5,49.8,50.5z"/>
<defs>
	<filter id="Adobe_OpacityMaskFilter" filterUnits="userSpaceOnUse" x="10" y="9.5" width="79.7" height="60.4">
		<feColorMatrix  type="matrix" values="1 0 0 0 0  0 1 0 0 0  0 0 1 0 0  0 0 0 1 0"/>
	</filter>
</defs>
<mask maskUnits="userSpaceOnUse" x="10" y="9.5" width="79.7" height="60.4" id="mask0_1_">
	<path class="st1" d="M10,9.5h79.7v60.4H10V9.5z"/>
</mask>
<g class="st2">
	<path class="st0" d="M10,9.5v12.2h73.6c0.7,0,1.3-0.6,1.3-1.3c0-0.7-0.6-1.3-1.3-1.3h-71V12h74.6v55.3H12.5V25.2
		c0-0.7-0.6-1.3-1.3-1.3c-0.7,0-1.3,0.6-1.3,1.3v44.6h79.7V9.5H10z"/>
</g>
<path class="st0" d="M16.1,14.4c-0.7,0-1.2,0.5-1.2,1.2c0,0.7,0.5,1.2,1.2,1.2h0.1c0.7,0,1.2-0.5,1.2-1.2
	C17.4,14.9,16.8,14.4,16.1,14.4L16.1,14.4z"/>
<path class="st0" d="M20.9,14.4c-0.7,0-1.2,0.5-1.2,1.2c0,0.7,0.6,1.2,1.2,1.2c0.7,0,1.2-0.5,1.2-1.2C22.1,14.9,21.6,14.4,20.9,14.4
	L20.9,14.4z"/>
<path class="st0" d="M25.7,14.4c-0.7,0-1.2,0.5-1.2,1.2c0,0.7,0.6,1.2,1.2,1.2c0.7,0,1.2-0.5,1.2-1.2C26.9,14.9,26.4,14.4,25.7,14.4
	L25.7,14.4z"/>
<path class="st0" d="M78.7,14.4c-0.7,0-1.2,0.5-1.2,1.2c0,0.7,0.5,1.2,1.2,1.2h0.1c0.7,0,1.2-0.5,1.2-1.2
	C80,14.9,79.4,14.4,78.7,14.4L78.7,14.4z"/>
<path class="st0" d="M84.6,14.9c0-0.1-0.1-0.1-0.2-0.2c-0.4-0.4-1.3-0.4-1.7,0c-0.1,0.1-0.1,0.1-0.2,0.2c0,0.1-0.1,0.1-0.1,0.2
	c0,0.1-0.1,0.2-0.1,0.2c0,0.1,0,0.2,0,0.2s0,0.2,0,0.2c0,0.1,0,0.2,0.1,0.2c0,0.1,0.1,0.1,0.1,0.2c0,0.1,0.1,0.1,0.2,0.2
	c0.2,0.2,0.5,0.3,0.8,0.3c0.3,0,0.6-0.1,0.8-0.3c0.1-0.1,0.1-0.1,0.2-0.2c0-0.1,0.1-0.1,0.1-0.2c0-0.1,0-0.2,0.1-0.2
	c0-0.1,0-0.2,0-0.2s0-0.2,0-0.2c0-0.1,0-0.2-0.1-0.2C84.6,15.1,84.6,15,84.6,14.9z"/>
<path class="st0" d="M30.6,14.4c-0.7,0-1.2,0.5-1.2,1.2c0,0.7,0.5,1.2,1.2,1.2h38.6c0.7,0,1.2-0.5,1.2-1.2c0-0.7-0.5-1.2-1.2-1.2
	H30.6z"/>
<path class="st0" d="M26.9,34.9c0-2,1.6-3.6,3.6-3.6s3.6,1.6,3.6,3.6v3.6c0,2-1.6,3.6-3.6,3.6s-3.6-1.6-3.6-3.6V34.9z M19.7,48.1
	v2.4h15.7c0.7,0,1.2-0.5,1.2-1.2c0-0.7-0.5-1.2-1.2-1.2H22.1c0-2,1.6-3.6,3.6-3.6h3.6h2.4h3.6c2,0,3.6,1.6,3.6,3.6v1.2
	c0,0.7,0.5,1.2,1.2,1.2c0.7,0,1.2-0.5,1.2-1.2v-1.2c0-3.3-2.7-6-6-6h0c0.8-1,1.2-2.3,1.2-3.6v-3.6c0-3.3-2.7-6-6-6c-3.3,0-6,2.7-6,6
	v3.6c0,1.4,0.4,2.6,1.2,3.6h0C22.4,42.1,19.7,44.8,19.7,48.1z"/>
</svg>
