<svg width="70" height="67" viewBox="0 0 70 67" fill="none" xmlns="http://www.w3.org/2000/svg">
<path fill-rule="evenodd" clip-rule="evenodd" d="M68.964 9.13043H54.8041C54.2318 9.13043 53.7681 8.67574 53.7681 8.11593C53.7681 7.55548 54.2318 7.10144 54.8041 7.10144H68.964C69.5363 7.10144 70 7.55548 70 8.11593C70 8.67574 69.5363 9.13043 68.964 9.13043Z" fill="#666666"/>
<path fill-rule="evenodd" clip-rule="evenodd" d="M61.8841 16.2319C61.3236 16.2319 60.8696 15.7676 60.8696 15.1959V1.03598C60.8696 0.463655 61.3236 0 61.8841 0C62.4445 0 62.8985 0.463655 62.8985 1.03598V15.1959C62.8985 15.7676 62.4445 16.2319 61.8841 16.2319Z" fill="#666666"/>
<path fill-rule="evenodd" clip-rule="evenodd" d="M13.1884 27.3914H10.1449C9.58442 27.3914 9.13043 27.8573 9.13043 28.4325C9.13043 29.0078 9.58442 29.4737 10.1449 29.4737H13.1884C13.7483 29.4737 14.2029 29.9403 14.2029 30.5149V44.0504C14.2029 45.199 13.293 46.1328 12.1739 46.1328H11.1594V65.9154C11.1594 66.49 11.614 66.9566 12.1739 66.9566C12.7344 66.9566 13.1884 66.49 13.1884 65.9154V48.0837C14.9371 47.6197 16.2319 45.9877 16.2319 44.0504V30.5149C16.2319 28.7924 14.8668 27.3914 13.1884 27.3914Z" fill="#666666"/>
<path fill-rule="evenodd" clip-rule="evenodd" d="M6.08695 19.2754C6.08695 18.1563 6.99746 17.2464 8.11594 17.2464C9.23442 17.2464 10.1449 18.1563 10.1449 19.2754V21.3044C10.1449 22.4228 9.23442 23.3333 8.11594 23.3333C6.99746 23.3333 6.08695 22.4228 6.08695 21.3044V19.2754ZM8.11594 25.3623C10.3535 25.3623 12.1739 23.542 12.1739 21.3044V19.2754C12.1739 17.0378 10.3535 15.2174 8.11594 15.2174C5.87835 15.2174 4.05797 17.0378 4.05797 19.2754V21.3044C4.05797 23.542 5.87835 25.3623 8.11594 25.3623Z" fill="#666666"/>
<mask id="mask0" mask-type="alpha" maskUnits="userSpaceOnUse" x="0" y="27" width="9" height="40">
<path fill-rule="evenodd" clip-rule="evenodd" d="M0 27.5211H8.76545V66.9566H0V27.5211Z" fill="white"/>
</mask>
<g mask="url(#mask0)">
<path fill-rule="evenodd" clip-rule="evenodd" d="M7.79118 53.4655C7.2537 53.4655 6.81727 53.9299 6.81727 54.5033V64.8811H4.86944V46.2011H3.89553C2.82179 46.2011 1.9477 45.2703 1.9477 44.1255V38.9367V30.6344C1.9477 30.0617 2.38475 29.5967 2.92162 29.5967H5.24196L6.92014 33.1744C7.16057 33.6868 7.74553 33.8944 8.22701 33.6382C8.70788 33.382 8.90266 32.7586 8.66283 32.2462L6.44536 27.5211H2.92162C1.31101 27.5211 -0.00012207 28.9176 -0.00012207 30.6344V38.9367V44.1255C-0.00012207 46.0564 1.24344 47.6832 2.92162 48.1456V66.9566H8.7651V54.5033C8.7651 53.9299 8.32927 53.4655 7.79118 53.4655Z" fill="#666666"/>
</g>
<path fill-rule="evenodd" clip-rule="evenodd" d="M31.4493 27.3914H28.4058C27.8453 27.3914 27.3913 27.8573 27.3913 28.4325C27.3913 29.0078 27.8453 29.4737 28.4058 29.4737H31.4493C32.0085 29.4737 32.4638 29.9403 32.4638 30.5149V44.0504C32.4638 45.199 31.5539 46.1328 30.4348 46.1328H29.4203V65.9154C29.4203 66.49 29.8743 66.9566 30.4348 66.9566C30.9953 66.9566 31.4493 66.49 31.4493 65.9154V48.0837C33.1974 47.6197 34.4928 45.9877 34.4928 44.0504V30.5149C34.4928 28.7924 33.1276 27.3914 31.4493 27.3914Z" fill="#666666"/>
<path fill-rule="evenodd" clip-rule="evenodd" d="M24.3478 19.2754C24.3478 18.1563 25.2583 17.2464 26.3768 17.2464C27.4953 17.2464 28.4058 18.1563 28.4058 19.2754V21.3044C28.4058 22.4228 27.4953 23.3333 26.3768 23.3333C25.2583 23.3333 24.3478 22.4228 24.3478 21.3044V19.2754ZM26.3768 25.3623C28.6144 25.3623 30.4348 23.542 30.4348 21.3044V19.2754C30.4348 17.0378 28.6144 15.2174 26.3768 15.2174C24.1392 15.2174 22.3188 17.0378 22.3188 19.2754V21.3044C22.3188 23.542 24.1392 25.3623 26.3768 25.3623Z" fill="#666666"/>
<path fill-rule="evenodd" clip-rule="evenodd" d="M26.3767 53.4211C25.8162 53.4211 25.3622 53.887 25.3622 54.4623V64.8742H23.3333V46.1328H22.3188C21.1997 46.1328 20.2898 45.199 20.2898 44.0504V38.8444V30.5149C20.2898 29.9403 20.7451 29.4737 21.3043 29.4737H23.7207L25.4694 33.0632C25.7198 33.5773 26.3291 33.7856 26.83 33.5285C27.3316 33.2715 27.5345 32.6461 27.284 32.132L24.9748 27.3914H21.3043C19.626 27.3914 18.2609 28.7924 18.2609 30.5149V38.8444V44.0504C18.2609 45.9877 19.5562 47.6197 21.3043 48.0837V66.9566H27.3912V54.4623C27.3912 53.887 26.9366 53.4211 26.3767 53.4211Z" fill="#666666"/>
<path fill-rule="evenodd" clip-rule="evenodd" d="M50.7246 27.3914H47.6812C47.1207 27.3914 46.6667 27.8573 46.6667 28.4325C46.6667 29.0078 47.1207 29.4737 47.6812 29.4737H50.7246C51.2839 29.4737 51.7391 29.9403 51.7391 30.5149V44.0504C51.7391 45.199 50.8293 46.1328 49.7101 46.1328H48.6957V65.9154C48.6957 66.49 49.1503 66.9566 49.7101 66.9566C50.2707 66.9566 50.7246 66.49 50.7246 65.9154V48.0837C52.4727 47.6197 53.7681 45.9877 53.7681 44.0504V30.5149C53.7681 28.7924 52.403 27.3914 50.7246 27.3914Z" fill="#666666"/>
<path fill-rule="evenodd" clip-rule="evenodd" d="M43.6232 19.2754C43.6232 18.1563 44.5337 17.2464 45.6522 17.2464C46.7707 17.2464 47.6812 18.1563 47.6812 19.2754V21.3044C47.6812 22.4228 46.7707 23.3333 45.6522 23.3333C44.5337 23.3333 43.6232 22.4228 43.6232 21.3044V19.2754ZM45.6522 25.3623C47.8898 25.3623 49.7101 23.542 49.7101 21.3044V19.2754C49.7101 17.0378 47.8898 15.2174 45.6522 15.2174C43.4146 15.2174 41.5942 17.0378 41.5942 19.2754V21.3044C41.5942 23.542 43.4146 25.3623 45.6522 25.3623Z" fill="#666666"/>
<path fill-rule="evenodd" clip-rule="evenodd" d="M45.652 53.4211C45.0922 53.4211 44.6376 53.887 44.6376 54.4623V64.8742H42.6086V46.1328H41.5941C40.475 46.1328 39.5652 45.199 39.5652 44.0504V38.8444V30.5149C39.5652 29.9403 40.0204 29.4737 40.5797 29.4737H42.9967L44.7447 33.0632C44.9952 33.5773 45.6045 33.7856 46.106 33.5285C46.6069 33.2715 46.8098 32.6461 46.5594 32.132L44.2502 27.3914H40.5797C38.9013 27.3914 37.5362 28.7924 37.5362 30.5149V38.8444V44.0504C37.5362 45.9877 38.8316 47.6197 40.5797 48.0837V66.9566H46.6665V54.4623C46.6665 53.887 46.2125 53.4211 45.652 53.4211Z" fill="#666666"/>
</svg>
