<svg width="70" height="53" viewBox="0 0 70 53" fill="none" xmlns="http://www.w3.org/2000/svg">
<path fill-rule="evenodd" clip-rule="evenodd" d="M34.8482 19.036H60.1486C60.7304 19.036 61.2026 18.5638 61.2026 17.982C61.2026 17.3995 60.7304 16.9274 60.1486 16.9274H34.8482C34.2658 16.9274 33.7943 17.3995 33.7943 17.982C33.7943 18.5638 34.2658 19.036 34.8482 19.036Z" fill="#666666"/>
<path fill-rule="evenodd" clip-rule="evenodd" d="M34.8482 23.2526H60.1486C60.7304 23.2526 61.2026 22.7805 61.2026 22.1987C61.2026 21.6162 60.7304 21.144 60.1486 21.144H34.8482C34.2658 21.144 33.7943 21.6162 33.7943 22.1987C33.7943 22.7805 34.2658 23.2526 34.8482 23.2526Z" fill="#666666"/>
<path fill-rule="evenodd" clip-rule="evenodd" d="M34.8482 27.4694H51.7149C52.2974 27.4694 52.7696 26.9973 52.7696 26.4148C52.7696 25.833 52.2974 25.3608 51.7149 25.3608H34.8482C34.2658 25.3608 33.7943 25.833 33.7943 26.4148C33.7943 26.9973 34.2658 27.4694 34.8482 27.4694Z" fill="#666666"/>
<path fill-rule="evenodd" clip-rule="evenodd" d="M34.8482 35.9028H51.7149C52.2974 35.9028 52.7696 35.4306 52.7696 34.8482C52.7696 34.2664 52.2974 33.7942 51.7149 33.7942H34.8482C34.2658 33.7942 33.7943 34.2664 33.7943 34.8482C33.7943 35.4306 34.2658 35.9028 34.8482 35.9028Z" fill="#666666"/>
<mask id="mask0" mask-type="alpha" maskUnits="userSpaceOnUse" x="0" y="0" width="70" height="53">
<path fill-rule="evenodd" clip-rule="evenodd" d="M0 0H69.6967V52.8301H0V0Z" fill="white"/>
</mask>
<g mask="url(#mask0)">
<path fill-rule="evenodd" clip-rule="evenodd" d="M-0.000198364 -0.00012207V10.6637H64.3648C64.9803 10.6637 65.4802 10.1644 65.4802 9.54827C65.4802 8.9328 64.9803 8.43356 64.3648 8.43356H2.23056V2.22997H67.4666V50.6H2.23056V13.7654C2.23056 13.1493 1.73065 12.6501 1.11452 12.6501C0.499047 12.6501 -0.000198364 13.1493 -0.000198364 13.7654V52.8301H69.6967V-0.00012207H-0.000198364Z" fill="#666666"/>
</g>
<path fill-rule="evenodd" clip-rule="evenodd" d="M5.33189 4.27783C4.74943 4.27783 4.27726 4.74934 4.27726 5.33179C4.27726 5.91425 4.74943 6.38576 5.33189 6.38576H5.39792C5.97972 6.38576 6.45189 5.91425 6.45189 5.33179C6.45189 4.74934 5.97972 4.27783 5.39792 4.27783H5.33189Z" fill="#666666"/>
<path fill-rule="evenodd" clip-rule="evenodd" d="M9.50435 4.27783C8.9219 4.27783 8.47218 4.74934 8.47218 5.33179C8.47218 5.91425 8.9668 6.38576 9.54793 6.38576C10.1304 6.38576 10.6026 5.91425 10.6026 5.33179C10.6026 4.74934 10.1304 4.27783 9.54793 4.27783H9.50435Z" fill="#666666"/>
<path fill-rule="evenodd" clip-rule="evenodd" d="M13.7214 4.27783C13.1389 4.27783 12.6892 4.74934 12.6892 5.33179C12.6892 5.91425 13.1832 6.38576 13.765 6.38576C14.3474 6.38576 14.8189 5.91425 14.8189 5.33179C14.8189 4.74934 14.3474 4.27783 13.765 4.27783H13.7214Z" fill="#666666"/>
<path fill-rule="evenodd" clip-rule="evenodd" d="M60.1045 4.27783C59.5221 4.27783 59.0499 4.74934 59.0499 5.33179C59.0499 5.91425 59.5221 6.38576 60.1045 6.38576H60.1705C60.7523 6.38576 61.2245 5.91425 61.2245 5.33179C61.2245 4.74934 60.7523 4.27783 60.1705 4.27783H60.1045Z" fill="#666666"/>
<path fill-rule="evenodd" clip-rule="evenodd" d="M65.2398 4.74672C65.2028 4.68861 65.1606 4.63644 65.1084 4.58361C64.7181 4.19332 64.0122 4.19332 63.6219 4.58361C63.569 4.63644 63.5268 4.68861 63.4905 4.74672C63.4535 4.80483 63.4158 4.86295 63.3894 4.92568C63.3637 4.99436 63.3425 5.05776 63.332 5.12644C63.3161 5.19445 63.3108 5.26313 63.3108 5.33181C63.3108 5.40049 63.3161 5.46851 63.332 5.53719C63.3425 5.60587 63.3637 5.66861 63.3894 5.73729C63.4158 5.80068 63.4535 5.85879 63.4905 5.91691C63.5268 5.97502 63.569 6.02719 63.6219 6.08068C63.8167 6.27549 64.0855 6.38578 64.3648 6.38578C64.6441 6.38578 64.9136 6.27549 65.1084 6.08068C65.1606 6.02719 65.2028 5.97502 65.2398 5.91691C65.2768 5.85879 65.3131 5.80068 65.3402 5.73729C65.3659 5.66861 65.3824 5.60587 65.3976 5.53719C65.4141 5.46851 65.4188 5.40049 65.4188 5.33181C65.4188 5.26313 65.4141 5.19445 65.3976 5.12644C65.3824 5.05776 65.3659 4.99436 65.3402 4.92568C65.3131 4.86295 65.2768 4.80483 65.2398 4.74672Z" fill="#666666"/>
<path fill-rule="evenodd" clip-rule="evenodd" d="M17.9815 4.27783C17.3998 4.27783 16.9276 4.74934 16.9276 5.33179C16.9276 5.91425 17.3998 6.38576 17.9815 6.38576H51.7149C52.2974 6.38576 52.7696 5.91425 52.7696 5.33179C52.7696 4.74934 52.2974 4.27783 51.7149 4.27783H17.9815Z" fill="#666666"/>
<path fill-rule="evenodd" clip-rule="evenodd" d="M14.819 22.1986C14.819 20.4546 16.2375 19.0361 17.9815 19.0361C19.7256 19.0361 21.1441 20.4546 21.1441 22.1986V25.3612C21.1441 27.1052 19.7256 28.5237 17.9815 28.5237C16.2375 28.5237 14.819 27.1052 14.819 25.3612V22.1986ZM8.49457 33.7942V35.9028H22.1987C22.7812 35.9028 23.2527 35.4306 23.2527 34.8482C23.2527 34.2664 22.7812 33.7942 22.1987 33.7942H10.6025C10.6025 32.0501 12.0216 30.6316 13.765 30.6316H16.9276H19.0362H22.1987C23.9421 30.6316 25.3613 32.0501 25.3613 33.7942V34.8482C25.3613 35.4306 25.8334 35.9028 26.4152 35.9028C26.997 35.9028 27.4692 35.4306 27.4692 34.8482V33.7942C27.4692 30.8879 25.105 28.5237 22.1987 28.5237H22.1915C22.8558 27.6415 23.2527 26.5472 23.2527 25.3612V22.1986C23.2527 19.2923 20.8879 16.9275 17.9815 16.9275C15.0759 16.9275 12.7111 19.2923 12.7111 22.1986V25.3612C12.7111 26.5465 13.104 27.6421 13.7677 28.5237H13.765C10.8587 28.5237 8.49457 30.8879 8.49457 33.7942Z" fill="#666666"/>
</svg>
