<?xml version="1.0" encoding="utf-8"?>
<!-- Generator: Adobe Illustrator 22.0.0, SVG Export Plug-In . SVG Version: 6.00 Build 0)  -->
<svg version="1.1" id="Слой_1" xmlns="http://www.w3.org/2000/svg" xmlns:xlink="http://www.w3.org/1999/xlink" x="0px" y="0px"
	 viewBox="0 0 100 80" style="enable-background:new 0 0 100 80;" xml:space="preserve">
<style type="text/css">
	.st0{fill:#666666;}
	.st1{fill:#FFFFFF;filter:url(#Adobe_OpacityMaskFilter);}
	.st2{mask:url(#mask0_1_);}
</style>
<path class="st0" d="M89.8,12.9H74c-0.6,0-1.2-0.5-1.2-1.2c0-0.6,0.5-1.2,1.2-1.2h15.8c0.6,0,1.2,0.5,1.2,1.2
	C90.9,12.4,90.4,12.9,89.8,12.9z"/>
<path class="st0" d="M81.9,20.8c-0.6,0-1.2-0.5-1.2-1.2V3.9c0-0.6,0.5-1.2,1.2-1.2S83,3.2,83,3.9v15.8C83,20.3,82.5,20.8,81.9,20.8z
	"/>
<path class="st0" d="M26.5,29.4H23c-0.6,0-1.2,0.5-1.2,1.2c0,0.6,0.5,1.2,1.2,1.2h3.5c0.6,0,1.2,0.5,1.2,1.2v15.3
	c0,1.3-1.1,2.3-2.3,2.3h-1.2v22.3c0,0.6,0.5,1.2,1.2,1.2c0.6,0,1.2-0.5,1.2-1.2V52.8c2-0.5,3.5-2.4,3.5-4.5V32.9
	C30,31,28.5,29.4,26.5,29.4z"/>
<path class="st0" d="M18.3,20c0-1.3,1.1-2.3,2.3-2.3c1.3,0,2.3,1.1,2.3,2.3v2.3c0,1.3-1.1,2.3-2.3,2.3c-1.3,0-2.3-1.1-2.3-2.3V20z
	 M20.6,27.1c2.6,0,4.7-2.1,4.7-4.7V20c0-2.6-2.1-4.7-4.7-4.7c-2.6,0-4.7,2.1-4.7,4.7v2.3C15.9,25,18.1,27.1,20.6,27.1z"/>
<defs>
	<filter id="Adobe_OpacityMaskFilter" filterUnits="userSpaceOnUse" x="11.2" y="29.4" width="10.6" height="44.6">
		<feColorMatrix  type="matrix" values="1 0 0 0 0  0 1 0 0 0  0 0 1 0 0  0 0 0 1 0"/>
	</filter>
</defs>
<mask maskUnits="userSpaceOnUse" x="11.2" y="29.4" width="10.6" height="44.6" id="mask0_1_">
	<path class="st1" d="M11.3,29.4h10.6V74H11.3V29.4z"/>
</mask>
<g class="st2">
	<path class="st0" d="M20.6,58.8c-0.6,0-1.2,0.5-1.2,1.2v11.7h-2.3V50.6h-1.2c-1.3,0-2.3-1.1-2.3-2.3v-5.9v-9.4
		c0-0.6,0.5-1.2,1.2-1.2h2.8l2,4c0.3,0.6,1,0.8,1.6,0.5c0.6-0.3,0.8-1,0.5-1.6L19,29.4h-4.2c-1.9,0-3.5,1.6-3.5,3.5v9.4v5.9
		c0,2.2,1.5,4,3.5,4.5V74h7V59.9C21.8,59.3,21.3,58.8,20.6,58.8z"/>
</g>
<path class="st0" d="M47.7,29.4h-3.5c-0.6,0-1.2,0.5-1.2,1.2c0,0.6,0.5,1.2,1.2,1.2h3.5c0.6,0,1.2,0.5,1.2,1.2v15.3
	c0,1.3-1.1,2.3-2.3,2.3h-1.2v22.3c0,0.6,0.5,1.2,1.2,1.2s1.2-0.5,1.2-1.2V52.8c2-0.5,3.5-2.4,3.5-4.5V32.9
	C51.2,31,49.6,29.4,47.7,29.4z"/>
<path class="st0" d="M39.4,20c0-1.3,1.1-2.3,2.3-2.3c1.3,0,2.3,1.1,2.3,2.3v2.3c0,1.3-1.1,2.3-2.3,2.3c-1.3,0-2.3-1.1-2.3-2.3V20z
	 M41.8,27.1c2.6,0,4.7-2.1,4.7-4.7V20c0-2.6-2.1-4.7-4.7-4.7s-4.7,2.1-4.7,4.7v2.3C37.1,25,39.2,27.1,41.8,27.1z"/>
<path class="st0" d="M41.8,58.8c-0.6,0-1.2,0.5-1.2,1.2v11.7h-2.3V50.6h-1.2c-1.3,0-2.3-1.1-2.3-2.3v-5.9v-9.4
	c0-0.6,0.5-1.2,1.2-1.2h2.8l2,4c0.3,0.6,1,0.8,1.6,0.5c0.6-0.3,0.8-1,0.5-1.6l-2.7-5.3h-4.2c-1.9,0-3.5,1.6-3.5,3.5v9.4v5.9
	c0,2.2,1.5,4,3.5,4.5V74h7V59.9C43,59.3,42.4,58.8,41.8,58.8z"/>
<path class="st0" d="M68.8,29.4h-3.5c-0.6,0-1.2,0.5-1.2,1.2c0,0.6,0.5,1.2,1.2,1.2h3.5c0.6,0,1.2,0.5,1.2,1.2v15.3
	c0,1.3-1.1,2.3-2.3,2.3h-1.2v22.3c0,0.6,0.5,1.2,1.2,1.2c0.6,0,1.2-0.5,1.2-1.2V52.8c2-0.5,3.5-2.4,3.5-4.5V32.9
	C72.3,31,70.7,29.4,68.8,29.4z"/>
<path class="st0" d="M60.6,20c0-1.3,1.1-2.3,2.3-2.3s2.3,1.1,2.3,2.3v2.3c0,1.3-1.1,2.3-2.3,2.3s-2.3-1.1-2.3-2.3V20z M62.9,27.1
	c2.6,0,4.7-2.1,4.7-4.7V20c0-2.6-2.1-4.7-4.7-4.7c-2.6,0-4.7,2.1-4.7,4.7v2.3C58.2,25,60.3,27.1,62.9,27.1z"/>
<path class="st0" d="M62.9,58.8c-0.6,0-1.2,0.5-1.2,1.2v11.7h-2.3V50.6h-1.2c-1.3,0-2.3-1.1-2.3-2.3v-5.9v-9.4
	c0-0.6,0.5-1.2,1.2-1.2h2.8l2,4c0.3,0.6,1,0.8,1.6,0.5c0.6-0.3,0.8-1,0.5-1.6l-2.7-5.3H57c-1.9,0-3.5,1.6-3.5,3.5v9.4v5.9
	c0,2.2,1.5,4,3.5,4.5V74h7V59.9C64.1,59.3,63.6,58.8,62.9,58.8z"/>
</svg>
