<svg width="100" height="99" viewBox="0 0 100 99" fill="none" xmlns="http://www.w3.org/2000/svg">
<g opacity="0.5">
<mask id="mask0" mask-type="alpha" maskUnits="userSpaceOnUse" x="50" y="0" width="50" height="99">
<path fill-rule="evenodd" clip-rule="evenodd" d="M100 98.3975H50.2911L50.2911 0.327156H100L100 98.3975Z" fill="white"/>
</mask>
<g mask="url(#mask0)">
<path fill-rule="evenodd" clip-rule="evenodd" d="M68.0737 30.233C72.7448 35.171 75.0785 41.5493 75.0785 49.3625C75.0785 57.1758 72.7448 63.5517 68.0737 68.4914C63.3146 73.5197 57.3869 76.0348 50.2911 76.0348V98.3975C64.5713 98.3975 76.4255 93.636 85.8556 84.1179C95.2857 74.5981 100 63.0125 100 49.3625C100 35.7107 95.2857 24.1252 85.8556 14.6065C76.4255 5.08662 64.5713 0.326981 50.2911 0.326981L50.2911 22.6896C57.3869 22.6896 63.3146 25.2023 68.0737 30.233Z" fill="white"/>
</g>
</g>
<mask id="mask1" mask-type="alpha" maskUnits="userSpaceOnUse" x="0" y="0" width="51" height="99">
<path fill-rule="evenodd" clip-rule="evenodd" d="M50.2917 98.3975H0.583134L0.583134 0.327103H50.2917L50.2917 98.3975Z" fill="white"/>
</mask>
<g mask="url(#mask1)">
<path fill-rule="evenodd" clip-rule="evenodd" d="M0.582649 49.3625C0.582649 63.0119 5.29711 74.5975 14.7272 84.1179C24.1574 93.636 36.0122 98.3975 50.2917 98.3975V76.0348C43.2869 76.0348 37.4055 73.5197 32.6441 68.4914C27.8851 63.4607 25.5043 57.0854 25.5043 49.3625C25.5043 41.6372 27.8851 35.2619 32.6441 30.233C37.4055 25.2023 43.2869 22.6896 50.2917 22.6896L50.2917 0.326981C36.0122 0.326981 24.1574 5.08662 14.7272 14.6065C5.29711 24.1246 0.582649 35.7107 0.582649 49.3625Z" fill="#F91155"/>
</g>
</svg>
