<?xml version="1.0" encoding="utf-8"?>
<!-- Generator: Adobe Illustrator 22.0.0, SVG Export Plug-In . SVG Version: 6.00 Build 0)  -->
<svg version="1.1" id="Слой_1" xmlns="http://www.w3.org/2000/svg" xmlns:xlink="http://www.w3.org/1999/xlink" x="0px" y="0px"
	 viewBox="0 0 100 80" style="enable-background:new 0 0 100 80;" xml:space="preserve">
<style type="text/css">
	.st0{fill:#666666;}
	.st1{fill:#FFFFFF;filter:url(#Adobe_OpacityMaskFilter);}
	.st2{mask:url(#mask0_1_);}
	.st3{fill:#FFFFFF;filter:url(#Adobe_OpacityMaskFilter_1_);}
	.st4{mask:url(#mask1_1_);}
</style>
<path class="st0" d="M54.7,44.5c0-0.7-0.5-1.2-1.2-1.2h-4.8V59c0,2-1.6,3.6-3.6,3.6h-9.7c-2,0-3.6-1.6-3.6-3.6v-9.7
	c0-2,1.6-3.6,3.6-3.6H45c0.7,0,1.2-0.5,1.2-1.2c0-0.7-0.5-1.2-1.2-1.2h-9.7c-3.3,0-6,2.7-6,6V59c0,3.3,2.7,6,6,6H45c3.3,0,6-2.7,6-6
	V45.7h2.4C54.1,45.7,54.7,45.2,54.7,44.5z"/>
<path class="st0" d="M32.9,25.2c0-0.7-0.5-1.2-1.2-1.2c-0.7,0-1.2,0.5-1.2,1.2c0,0.7,0.5,1.2,1.2,1.2C32.4,26.4,32.9,25.9,32.9,25.2
	z"/>
<path class="st0" d="M23.3,25.2c0,0.7,0.5,1.2,1.2,1.2c0.7,0,1.2-0.5,1.2-1.2c0-0.7-0.5-1.2-1.2-1.2C23.8,24,23.3,24.5,23.3,25.2z"
	/>
<defs>
	<filter id="Adobe_OpacityMaskFilter" filterUnits="userSpaceOnUse" x="10" y="14.3" width="29" height="41.1">
		<feColorMatrix  type="matrix" values="1 0 0 0 0  0 1 0 0 0  0 0 1 0 0  0 0 0 1 0"/>
	</filter>
</defs>
<mask maskUnits="userSpaceOnUse" x="10" y="14.3" width="29" height="41.1" id="mask0_1_">
	<path class="st1" d="M10,14.3h29v41.1H10V14.3z"/>
</mask>
<g class="st2">
	<path class="st0" d="M19.7,32.4v-7.2c0-2,1.6-3.6,3.6-3.6h0.3c2.8,0,5.2-2.1,5.7-4.8c4.1,0.6,7.3,4.1,7.3,8.4v2.4
		c0,0.7,0.5,1.2,1.2,1.2c0.7,0,1.2-0.5,1.2-1.2v-2.4c0-6-4.9-10.9-10.9-10.9h-1.2v1.5c0,1.8-1.5,3.3-3.3,3.3h-0.3c-3.3,0-6,2.7-6,6
		v7.2c0,4.3,3.2,7.8,7.2,8.4v2.5h-3.6c-6,0-10.9,4.9-10.9,10.9v1.2h15.7c0.7,0,1.2-0.5,1.2-1.2c0-0.7-0.5-1.2-1.2-1.2H12.5
		c0.6-4.1,4.1-7.2,8.4-7.2h6v-7.2h-1.2C22.4,38.5,19.7,35.8,19.7,32.4z"/>
</g>
<path class="st0" d="M30.5,32.4c0-0.7-0.5-1.2-1.2-1.2h-2.4c-0.7,0-1.2,0.5-1.2,1.2c0,0.7,0.5,1.2,1.2,1.2h2.4
	C30,33.7,30.5,33.1,30.5,32.4z"/>
<path class="st0" d="M13.6,33.7c0.7,0,1.2-0.5,1.2-1.2v-7.2c0-7.3,6-13.3,13.3-13.3c7.3,0,13.3,6,13.3,13.3v2.4c0,2-1.6,3.6-3.6,3.6
	h-1.2v1.2c0,3.3-2.7,6-6,6c-0.7,0-1.2,0.5-1.2,1.2c0,0.7,0.5,1.2,1.2,1.2c4.3,0,7.8-3.2,8.4-7.4c2.8-0.5,4.9-3,4.9-5.9v-2.4
	c0-8.7-7-15.7-15.7-15.7c-8.7,0-15.7,7-15.7,15.7v7.2C12.4,33.1,13,33.7,13.6,33.7z"/>
<path class="st0" d="M67.4,48c0.9,0.5,1.9,0.7,3,0.7c1,0,2-0.2,3-0.7c0.6-0.3,0.8-1,0.5-1.6c-0.3-0.6-1-0.8-1.6-0.5
	c-1.2,0.6-2.6,0.6-3.8,0c-0.6-0.3-1.3-0.1-1.6,0.5C66.6,47,66.8,47.7,67.4,48z"/>
<path class="st0" d="M75.2,39.7c0-0.7-0.5-1.2-1.2-1.2c-0.7,0-1.2,0.5-1.2,1.2c0,0.7,0.5,1.2,1.2,1.2C74.7,40.9,75.2,40.4,75.2,39.7
	z"/>
<path class="st0" d="M68,39.7c0-0.7-0.5-1.2-1.2-1.2c-0.7,0-1.2,0.5-1.2,1.2c0,0.7,0.5,1.2,1.2,1.2C67.4,40.9,68,40.4,68,39.7z"/>
<defs>
	<filter id="Adobe_OpacityMaskFilter_1_" filterUnits="userSpaceOnUse" x="52.3" y="40.9" width="37.4" height="29">
		<feColorMatrix  type="matrix" values="1 0 0 0 0  0 1 0 0 0  0 0 1 0 0  0 0 0 1 0"/>
	</filter>
</defs>
<mask maskUnits="userSpaceOnUse" x="52.3" y="40.9" width="37.4" height="29" id="mask1_1_">
	<path class="st3" d="M52.3,40.9h37.4v29H52.3V40.9z"/>
</mask>
<g class="st4">
	<path class="st0" d="M83.7,57.8l-8.5,0V59c0,2-1.6,3.6-3.6,3.6H68c-0.7,0-1.2,0.5-1.2,1.2c0,0.7,0.5,1.2,1.2,1.2h3.6
		c2.9,0,5.4-2.1,5.9-4.8l6.2,0c2,0,3.6,1.6,3.6,3.6v3.6H54.7v-3.6c0-2,1.6-3.6,3.6-3.6h10.9V53H68c-3.3,0-6-2.7-6-6v-2.4h-1.2
		c-0.7,0-1.2-0.5-1.2-1.2v-1.2c0-0.7-0.5-1.2-1.2-1.2c-0.7,0-1.2,0.5-1.2,1.2v1.2c0,1.6,1,2.9,2.4,3.4v0.2c0,4.3,3.2,7.8,7.2,8.4
		v2.5h-8.5c-3.3,0-6,2.7-6,6v6h37.4v-6C89.7,60.6,87,57.8,83.7,57.8z"/>
</g>
<path class="st0" d="M63.1,37.3c0-1.3,1.1-2.4,2.4-2.4h3.6c2.2,0,4.1-1.5,4.6-3.5c1.5,0.4,2.6,1.8,2.6,3.5v2.4
	c0,0.7,0.5,1.2,1.2,1.2c0.7,0,1.2-0.5,1.2-1.2v-2.4c0-3.3-2.7-6-6-6h-1.2V30c0,1.3-1.1,2.4-2.4,2.4h-3.6c-2.2,0-4.1,1.5-4.7,3.6
	h-1.4v-1.2c0-4.7,3.8-8.5,8.5-8.5h4.8c4.7,0,8.5,3.8,8.5,8.5v8.5c0,0.7-0.5,1.2-1.2,1.2h-1.2v2.4c0,3.3-2.7,6-6,6
	c-0.7,0-1.2,0.5-1.2,1.2c0,0.7,0.5,1.2,1.2,1.2c4.7,0,8.5-3.8,8.5-8.5v-0.2c1.4-0.5,2.4-1.8,2.4-3.4v-8.5c0-6-4.9-10.9-10.9-10.9H68
	c-6,0-10.9,4.9-10.9,10.9v3.6h6V37.3z"/>
<path class="st0" d="M45,50.6h-9.7c-0.7,0-1.2,0.5-1.2,1.2c0,0.7,0.5,1.2,1.2,1.2H45c0.7,0,1.2-0.5,1.2-1.2
	C46.2,51.1,45.7,50.6,45,50.6z"/>
<path class="st0" d="M45,55.4h-9.7c-0.7,0-1.2,0.5-1.2,1.2c0,0.7,0.5,1.2,1.2,1.2H45c0.7,0,1.2-0.5,1.2-1.2
	C46.2,55.9,45.7,55.4,45,55.4z"/>
</svg>
