<?xml version="1.0" encoding="utf-8"?>
<!-- Generator: Adobe Illustrator 22.0.0, SVG Export Plug-In . SVG Version: 6.00 Build 0)  -->
<svg version="1.1" id="Слой_1" xmlns="http://www.w3.org/2000/svg" xmlns:xlink="http://www.w3.org/1999/xlink" x="0px" y="0px"
	 viewBox="0 0 100 99" style="enable-background:new 0 0 100 99;" xml:space="preserve">
<style type="text/css">
	.st0{opacity:0.5;}
	.st1{fill:#FFFFFF;filter:url(#Adobe_OpacityMaskFilter);}
	.st2{mask:url(#mask0_1_);}
	.st3{fill:#FFFFFF;}
	.st4{fill:#FFFFFF;filter:url(#Adobe_OpacityMaskFilter_1_);}
	.st5{mask:url(#mask1_1_);}
	.st6{fill:#F91155;}
</style>
<g class="st0">
	<defs>
		<filter id="Adobe_OpacityMaskFilter" filterUnits="userSpaceOnUse" x="0.6" y="0.3" width="49.7" height="98.1">
			<feColorMatrix  type="matrix" values="1 0 0 0 0  0 1 0 0 0  0 0 1 0 0  0 0 0 1 0"/>
		</filter>
	</defs>
	<mask maskUnits="userSpaceOnUse" x="0.6" y="0.3" width="49.7" height="98.1" id="mask0_1_">
		<path class="st1" d="M0.6,0.3h49.7v98.1H0.6V0.3z"/>
	</mask>
	<g class="st2">
		<path class="st3" d="M32.5,68.5c-4.7-4.9-7-11.3-7-19.1c0-7.8,2.3-14.2,7-19.1c4.8-5,10.7-7.5,17.8-7.5V0.3
			C36,0.3,24.2,5.1,14.7,14.6C5.3,24.1,0.6,35.7,0.6,49.4c0,13.7,4.7,25.2,14.1,34.8c9.4,9.5,21.3,14.3,35.6,14.3V76
			C43.2,76,37.3,73.5,32.5,68.5z"/>
	</g>
</g>
<defs>
	<filter id="Adobe_OpacityMaskFilter_1_" filterUnits="userSpaceOnUse" x="50.3" y="0.3" width="49.7" height="98.1">
		<feColorMatrix  type="matrix" values="1 0 0 0 0  0 1 0 0 0  0 0 1 0 0  0 0 0 1 0"/>
	</filter>
</defs>
<mask maskUnits="userSpaceOnUse" x="50.3" y="0.3" width="49.7" height="98.1" id="mask1_1_">
	<path class="st4" d="M50.3,0.3l49.7,0v98.1H50.3V0.3z"/>
</mask>
<g class="st5">
	<path class="st6" d="M100,49.4c0-13.6-4.7-25.2-14.1-34.8C76.4,5.1,64.6,0.3,50.3,0.3v22.4c7,0,12.9,2.5,17.6,7.5
		c4.8,5,7.1,11.4,7.1,19.1c0,7.7-2.4,14.1-7.1,19.1c-4.8,5-10.6,7.5-17.6,7.5v22.4c14.3,0,26.1-4.8,35.6-14.3
		C95.3,74.6,100,63,100,49.4z"/>
</g>
</svg>
