<svg width="173" height="173" viewBox="0 0 173 173" fill="none" xmlns="http://www.w3.org/2000/svg">
<path fill-rule="evenodd" clip-rule="evenodd" d="M6 3C6 4.65674 4.65594 6 2.9992 6C1.34246 6 0 4.65674 0 3C0 1.34326 1.34246 0 2.9992 0C4.65594 0 6 1.34326 6 3Z" fill="#F91155"/>
<path fill-rule="evenodd" clip-rule="evenodd" d="M30 3C30 4.65674 28.6566 6 26.9996 6C25.3426 6 24 4.65674 24 3C24 1.34326 25.3426 0 26.9996 0C28.6566 0 30 1.34326 30 3Z" fill="#F91155"/>
<path fill-rule="evenodd" clip-rule="evenodd" d="M54 3C54 4.65674 52.6567 6 51 6C49.3433 6 48 4.65674 48 3C48 1.34326 49.3433 0 51 0C52.6567 0 54 1.34326 54 3Z" fill="#F91155"/>
<path fill-rule="evenodd" clip-rule="evenodd" d="M78 3C78 4.65674 76.6559 6 74.9992 6C73.3425 6 72 4.65674 72 3C72 1.34326 73.3425 0 74.9992 0C76.6559 0 78 1.34326 78 3Z" fill="#F91155"/>
<path fill-rule="evenodd" clip-rule="evenodd" d="M101 3C101 4.65674 99.6567 6 98 6C96.3433 6 95 4.65674 95 3C95 1.34326 96.3433 0 98 0C99.6567 0 101 1.34326 101 3Z" fill="#F91155"/>
<path fill-rule="evenodd" clip-rule="evenodd" d="M125 3C125 4.65674 123.656 6 121.999 6C120.342 6 119 4.65674 119 3C119 1.34326 120.342 0 121.999 0C123.656 0 125 1.34326 125 3Z" fill="#F91155"/>
<path fill-rule="evenodd" clip-rule="evenodd" d="M149 3C149 4.65674 147.657 6 146 6C144.343 6 143 4.65674 143 3C143 1.34326 144.343 0 146 0C147.657 0 149 1.34326 149 3Z" fill="#F91155"/>
<path fill-rule="evenodd" clip-rule="evenodd" d="M173 3C173 4.65674 171.657 6 170 6C168.343 6 167 4.65674 167 3C167 1.34326 168.343 0 170 0C171.657 0 173 1.34326 173 3Z" fill="#F91155"/>
<path fill-rule="evenodd" clip-rule="evenodd" d="M6 25C6 26.6567 4.65594 28 2.9992 28C1.34246 28 0 26.6567 0 25C0 23.3433 1.34246 22 2.9992 22C4.65594 22 6 23.3433 6 25Z" fill="#F91155"/>
<path fill-rule="evenodd" clip-rule="evenodd" d="M30 25C30 26.6567 28.6566 28 26.9996 28C25.3426 28 24 26.6567 24 25C24 23.3433 25.3426 22 26.9996 22C28.6566 22 30 23.3433 30 25Z" fill="#F91155"/>
<path fill-rule="evenodd" clip-rule="evenodd" d="M54 25C54 26.6567 52.6567 28 51 28C49.3433 28 48 26.6567 48 25C48 23.3433 49.3433 22 51 22C52.6567 22 54 23.3433 54 25Z" fill="#F91155"/>
<path fill-rule="evenodd" clip-rule="evenodd" d="M78 25C78 26.6567 76.6559 28 74.9992 28C73.3425 28 72 26.6567 72 25C72 23.3433 73.3425 22 74.9992 22C76.6559 22 78 23.3433 78 25Z" fill="#F91155"/>
<path fill-rule="evenodd" clip-rule="evenodd" d="M101 25C101 26.6567 99.6567 28 98 28C96.3433 28 95 26.6567 95 25C95 23.3433 96.3433 22 98 22C99.6567 22 101 23.3433 101 25Z" fill="#F91155"/>
<path fill-rule="evenodd" clip-rule="evenodd" d="M125 25C125 26.6567 123.656 28 121.999 28C120.342 28 119 26.6567 119 25C119 23.3433 120.342 22 121.999 22C123.656 22 125 23.3433 125 25Z" fill="#F91155"/>
<path fill-rule="evenodd" clip-rule="evenodd" d="M149 25C149 26.6567 147.657 28 146 28C144.343 28 143 26.6567 143 25C143 23.3433 144.343 22 146 22C147.657 22 149 23.3433 149 25Z" fill="#F91155"/>
<path fill-rule="evenodd" clip-rule="evenodd" d="M173 25C173 26.6567 171.657 28 170 28C168.343 28 167 26.6567 167 25C167 23.3433 168.343 22 170 22C171.657 22 173 23.3433 173 25Z" fill="#F91155"/>
<path fill-rule="evenodd" clip-rule="evenodd" d="M6 45C6 46.6567 4.65594 48 2.9992 48C1.34246 48 0 46.6567 0 45C0 43.3433 1.34246 42 2.9992 42C4.65594 42 6 43.3433 6 45Z" fill="#F91155"/>
<path fill-rule="evenodd" clip-rule="evenodd" d="M30 45C30 46.6567 28.6566 48 26.9996 48C25.3426 48 24 46.6567 24 45C24 43.3433 25.3426 42 26.9996 42C28.6566 42 30 43.3433 30 45Z" fill="#F91155"/>
<path fill-rule="evenodd" clip-rule="evenodd" d="M54 45C54 46.6567 52.6567 48 51 48C49.3433 48 48 46.6567 48 45C48 43.3433 49.3433 42 51 42C52.6567 42 54 43.3433 54 45Z" fill="#F91155"/>
<path fill-rule="evenodd" clip-rule="evenodd" d="M78 45C78 46.6567 76.6559 48 74.9992 48C73.3425 48 72 46.6567 72 45C72 43.3433 73.3425 42 74.9992 42C76.6559 42 78 43.3433 78 45Z" fill="#F91155"/>
<path fill-rule="evenodd" clip-rule="evenodd" d="M101 45C101 46.6567 99.6567 48 98 48C96.3433 48 95 46.6567 95 45C95 43.3433 96.3433 42 98 42C99.6567 42 101 43.3433 101 45Z" fill="#F91155"/>
<path fill-rule="evenodd" clip-rule="evenodd" d="M125 45C125 46.6567 123.656 48 121.999 48C120.342 48 119 46.6567 119 45C119 43.3433 120.342 42 121.999 42C123.656 42 125 43.3433 125 45Z" fill="#F91155"/>
<path fill-rule="evenodd" clip-rule="evenodd" d="M149 45C149 46.6567 147.657 48 146 48C144.343 48 143 46.6567 143 45C143 43.3433 144.343 42 146 42C147.657 42 149 43.3433 149 45Z" fill="#F91155"/>
<path fill-rule="evenodd" clip-rule="evenodd" d="M173 45C173 46.6567 171.657 48 170 48C168.343 48 167 46.6567 167 45C167 43.3433 168.343 42 170 42C171.657 42 173 43.3433 173 45Z" fill="#F91155"/>
<path fill-rule="evenodd" clip-rule="evenodd" d="M6 66C6 67.6567 4.65594 69 2.9992 69C1.34246 69 0 67.6567 0 66C0 64.3433 1.34246 63 2.9992 63C4.65594 63 6 64.3433 6 66Z" fill="#F91155"/>
<path fill-rule="evenodd" clip-rule="evenodd" d="M30 66C30 67.6567 28.6566 69 26.9996 69C25.3426 69 24 67.6567 24 66C24 64.3433 25.3426 63 26.9996 63C28.6566 63 30 64.3433 30 66Z" fill="#F91155"/>
<path fill-rule="evenodd" clip-rule="evenodd" d="M54 66C54 67.6567 52.6567 69 51 69C49.3433 69 48 67.6567 48 66C48 64.3433 49.3433 63 51 63C52.6567 63 54 64.3433 54 66Z" fill="#F91155"/>
<path fill-rule="evenodd" clip-rule="evenodd" d="M78 66C78 67.6567 76.6559 69 74.9992 69C73.3425 69 72 67.6567 72 66C72 64.3433 73.3425 63 74.9992 63C76.6559 63 78 64.3433 78 66Z" fill="#F91155"/>
<path fill-rule="evenodd" clip-rule="evenodd" d="M101 66C101 67.6567 99.6567 69 98 69C96.3433 69 95 67.6567 95 66C95 64.3433 96.3433 63 98 63C99.6567 63 101 64.3433 101 66Z" fill="#F91155"/>
<path fill-rule="evenodd" clip-rule="evenodd" d="M125 66C125 67.6567 123.656 69 121.999 69C120.342 69 119 67.6567 119 66C119 64.3433 120.342 63 121.999 63C123.656 63 125 64.3433 125 66Z" fill="#F91155"/>
<path fill-rule="evenodd" clip-rule="evenodd" d="M149 66C149 67.6567 147.657 69 146 69C144.343 69 143 67.6567 143 66C143 64.3433 144.343 63 146 63C147.657 63 149 64.3433 149 66Z" fill="#F91155"/>
<path fill-rule="evenodd" clip-rule="evenodd" d="M173 66C173 67.6567 171.657 69 170 69C168.343 69 167 67.6567 167 66C167 64.3433 168.343 63 170 63C171.657 63 173 64.3433 173 66Z" fill="#F91155"/>
<path fill-rule="evenodd" clip-rule="evenodd" d="M6 86C6 87.6567 4.65594 89 2.9992 89C1.34246 89 0 87.6567 0 86C0 84.3433 1.34246 83 2.9992 83C4.65594 83 6 84.3433 6 86Z" fill="#F91155"/>
<path fill-rule="evenodd" clip-rule="evenodd" d="M30 86C30 87.6567 28.6566 89 26.9996 89C25.3426 89 24 87.6567 24 86C24 84.3433 25.3426 83 26.9996 83C28.6566 83 30 84.3433 30 86Z" fill="#F91155"/>
<path fill-rule="evenodd" clip-rule="evenodd" d="M54 86C54 87.6567 52.6567 89 51 89C49.3433 89 48 87.6567 48 86C48 84.3433 49.3433 83 51 83C52.6567 83 54 84.3433 54 86Z" fill="#F91155"/>
<path fill-rule="evenodd" clip-rule="evenodd" d="M78 86C78 87.6567 76.6559 89 74.9992 89C73.3425 89 72 87.6567 72 86C72 84.3433 73.3425 83 74.9992 83C76.6559 83 78 84.3433 78 86Z" fill="#F91155"/>
<path fill-rule="evenodd" clip-rule="evenodd" d="M101 86C101 87.6567 99.6567 89 98 89C96.3433 89 95 87.6567 95 86C95 84.3433 96.3433 83 98 83C99.6567 83 101 84.3433 101 86Z" fill="#F91155"/>
<path fill-rule="evenodd" clip-rule="evenodd" d="M125 86C125 87.6567 123.656 89 121.999 89C120.342 89 119 87.6567 119 86C119 84.3433 120.342 83 121.999 83C123.656 83 125 84.3433 125 86Z" fill="#F91155"/>
<path fill-rule="evenodd" clip-rule="evenodd" d="M149 86C149 87.6567 147.657 89 146 89C144.343 89 143 87.6567 143 86C143 84.3433 144.343 83 146 83C147.657 83 149 84.3433 149 86Z" fill="#F91155"/>
<path fill-rule="evenodd" clip-rule="evenodd" d="M173 86C173 87.6567 171.657 89 170 89C168.343 89 167 87.6567 167 86C167 84.3433 168.343 83 170 83C171.657 83 173 84.3433 173 86Z" fill="#F91155"/>
<path fill-rule="evenodd" clip-rule="evenodd" d="M6 107C6 108.657 4.65594 110 2.9992 110C1.34246 110 0 108.657 0 107C0 105.343 1.34246 104 2.9992 104C4.65594 104 6 105.343 6 107Z" fill="#F91155"/>
<path fill-rule="evenodd" clip-rule="evenodd" d="M30 107C30 108.657 28.6566 110 26.9996 110C25.3426 110 24 108.657 24 107C24 105.343 25.3426 104 26.9996 104C28.6566 104 30 105.343 30 107Z" fill="#F91155"/>
<path fill-rule="evenodd" clip-rule="evenodd" d="M54 107C54 108.657 52.6567 110 51 110C49.3433 110 48 108.657 48 107C48 105.343 49.3433 104 51 104C52.6567 104 54 105.343 54 107Z" fill="#F91155"/>
<path fill-rule="evenodd" clip-rule="evenodd" d="M78 107C78 108.657 76.6559 110 74.9992 110C73.3425 110 72 108.657 72 107C72 105.343 73.3425 104 74.9992 104C76.6559 104 78 105.343 78 107Z" fill="#F91155"/>
<path fill-rule="evenodd" clip-rule="evenodd" d="M101 107C101 108.657 99.6567 110 98 110C96.3433 110 95 108.657 95 107C95 105.343 96.3433 104 98 104C99.6567 104 101 105.343 101 107Z" fill="#F91155"/>
<path fill-rule="evenodd" clip-rule="evenodd" d="M125 107C125 108.657 123.656 110 121.999 110C120.342 110 119 108.657 119 107C119 105.343 120.342 104 121.999 104C123.656 104 125 105.343 125 107Z" fill="#F91155"/>
<path fill-rule="evenodd" clip-rule="evenodd" d="M149 107C149 108.657 147.657 110 146 110C144.343 110 143 108.657 143 107C143 105.343 144.343 104 146 104C147.657 104 149 105.343 149 107Z" fill="#F91155"/>
<path fill-rule="evenodd" clip-rule="evenodd" d="M173 107C173 108.657 171.657 110 170 110C168.343 110 167 108.657 167 107C167 105.343 168.343 104 170 104C171.657 104 173 105.343 173 107Z" fill="#F91155"/>
<path fill-rule="evenodd" clip-rule="evenodd" d="M6 129C6 130.657 4.65594 132 2.9992 132C1.34246 132 0 130.657 0 129C0 127.343 1.34246 126 2.9992 126C4.65594 126 6 127.343 6 129Z" fill="#F91155"/>
<path fill-rule="evenodd" clip-rule="evenodd" d="M30 129C30 130.657 28.6566 132 26.9996 132C25.3426 132 24 130.657 24 129C24 127.343 25.3426 126 26.9996 126C28.6566 126 30 127.343 30 129Z" fill="#F91155"/>
<path fill-rule="evenodd" clip-rule="evenodd" d="M54 129C54 130.657 52.6567 132 51 132C49.3433 132 48 130.657 48 129C48 127.343 49.3433 126 51 126C52.6567 126 54 127.343 54 129Z" fill="#F91155"/>
<path fill-rule="evenodd" clip-rule="evenodd" d="M78 129C78 130.657 76.6559 132 74.9992 132C73.3425 132 72 130.657 72 129C72 127.343 73.3425 126 74.9992 126C76.6559 126 78 127.343 78 129Z" fill="#F91155"/>
<path fill-rule="evenodd" clip-rule="evenodd" d="M101 129C101 130.657 99.6567 132 98 132C96.3433 132 95 130.657 95 129C95 127.343 96.3433 126 98 126C99.6567 126 101 127.343 101 129Z" fill="#F91155"/>
<path fill-rule="evenodd" clip-rule="evenodd" d="M125 129C125 130.657 123.656 132 121.999 132C120.342 132 119 130.657 119 129C119 127.343 120.342 126 121.999 126C123.656 126 125 127.343 125 129Z" fill="#F91155"/>
<path fill-rule="evenodd" clip-rule="evenodd" d="M149 129C149 130.657 147.657 132 146 132C144.343 132 143 130.657 143 129C143 127.343 144.343 126 146 126C147.657 126 149 127.343 149 129Z" fill="#F91155"/>
<path fill-rule="evenodd" clip-rule="evenodd" d="M173 129C173 130.657 171.657 132 170 132C168.343 132 167 130.657 167 129C167 127.343 168.343 126 170 126C171.657 126 173 127.343 173 129Z" fill="#F91155"/>
<path fill-rule="evenodd" clip-rule="evenodd" d="M6 149C6 150.657 4.65594 152 2.9992 152C1.34246 152 0 150.657 0 149C0 147.343 1.34246 146 2.9992 146C4.65594 146 6 147.343 6 149Z" fill="#F91155"/>
<path fill-rule="evenodd" clip-rule="evenodd" d="M30 149C30 150.657 28.6566 152 26.9996 152C25.3426 152 24 150.657 24 149C24 147.343 25.3426 146 26.9996 146C28.6566 146 30 147.343 30 149Z" fill="#F91155"/>
<path fill-rule="evenodd" clip-rule="evenodd" d="M54 149C54 150.657 52.6567 152 51 152C49.3433 152 48 150.657 48 149C48 147.343 49.3433 146 51 146C52.6567 146 54 147.343 54 149Z" fill="#F91155"/>
<path fill-rule="evenodd" clip-rule="evenodd" d="M78 149C78 150.657 76.6559 152 74.9992 152C73.3425 152 72 150.657 72 149C72 147.343 73.3425 146 74.9992 146C76.6559 146 78 147.343 78 149Z" fill="#F91155"/>
<path fill-rule="evenodd" clip-rule="evenodd" d="M101 149C101 150.657 99.6567 152 98 152C96.3433 152 95 150.657 95 149C95 147.343 96.3433 146 98 146C99.6567 146 101 147.343 101 149Z" fill="#F91155"/>
<path fill-rule="evenodd" clip-rule="evenodd" d="M125 149C125 150.657 123.656 152 121.999 152C120.342 152 119 150.657 119 149C119 147.343 120.342 146 121.999 146C123.656 146 125 147.343 125 149Z" fill="#F91155"/>
<path fill-rule="evenodd" clip-rule="evenodd" d="M149 149C149 150.657 147.657 152 146 152C144.343 152 143 150.657 143 149C143 147.343 144.343 146 146 146C147.657 146 149 147.343 149 149Z" fill="#F91155"/>
<path fill-rule="evenodd" clip-rule="evenodd" d="M173 149C173 150.657 171.657 152 170 152C168.343 152 167 150.657 167 149C167 147.343 168.343 146 170 146C171.657 146 173 147.343 173 149Z" fill="#F91155"/>
<path fill-rule="evenodd" clip-rule="evenodd" d="M6 170C6 171.658 4.65594 173 2.9992 173C1.34246 173 0 171.658 0 170C0 168.343 1.34246 167 2.9992 167C4.65594 167 6 168.343 6 170Z" fill="#F91155"/>
<path fill-rule="evenodd" clip-rule="evenodd" d="M30 170C30 171.658 28.6566 173 26.9996 173C25.3426 173 24 171.658 24 170C24 168.343 25.3426 167 26.9996 167C28.6566 167 30 168.343 30 170Z" fill="#F91155"/>
<path fill-rule="evenodd" clip-rule="evenodd" d="M54 170C54 171.658 52.6567 173 51 173C49.3433 173 48 171.658 48 170C48 168.343 49.3433 167 51 167C52.6567 167 54 168.343 54 170Z" fill="#F91155"/>
<path fill-rule="evenodd" clip-rule="evenodd" d="M78 170C78 171.658 76.6559 173 74.9992 173C73.3425 173 72 171.658 72 170C72 168.343 73.3425 167 74.9992 167C76.6559 167 78 168.343 78 170Z" fill="#F91155"/>
<path fill-rule="evenodd" clip-rule="evenodd" d="M101 170C101 171.658 99.6567 173 98 173C96.3433 173 95 171.658 95 170C95 168.343 96.3433 167 98 167C99.6567 167 101 168.343 101 170Z" fill="#F91155"/>
<path fill-rule="evenodd" clip-rule="evenodd" d="M125 170C125 171.658 123.656 173 121.999 173C120.342 173 119 171.658 119 170C119 168.343 120.342 167 121.999 167C123.656 167 125 168.343 125 170Z" fill="#F91155"/>
<path fill-rule="evenodd" clip-rule="evenodd" d="M149 170C149 171.658 147.657 173 146 173C144.343 173 143 171.658 143 170C143 168.343 144.343 167 146 167C147.657 167 149 168.343 149 170Z" fill="#F91155"/>
<path fill-rule="evenodd" clip-rule="evenodd" d="M173 170C173 171.658 171.657 173 170 173C168.343 173 167 171.658 167 170C167 168.343 168.343 167 170 167C171.657 167 173 168.343 173 170Z" fill="#F91155"/>
</svg>
