<svg width="215" height="214" viewBox="0 0 215 214" fill="none" xmlns="http://www.w3.org/2000/svg">
<path fill-rule="evenodd" clip-rule="evenodd" d="M7.52224 3.7614C7.52224 5.8384 5.83824 7.5224 3.76124 7.5224C1.68424 7.5224 0.000244141 5.8384 0.000244141 3.7614C0.000244141 1.6844 1.68424 0.000396729 3.76124 0.000396729C5.83824 0.000396729 7.52224 1.6844 7.52224 3.7614Z" fill="white"/>
<path fill-rule="evenodd" clip-rule="evenodd" d="M37.0735 3.7614C37.0735 5.8384 35.3895 7.5224 33.3125 7.5224C31.2355 7.5224 29.5515 5.8384 29.5515 3.7614C29.5515 1.6844 31.2355 0.000396729 33.3125 0.000396729C35.3895 0.000396729 37.0735 1.6844 37.0735 3.7614Z" fill="white"/>
<path fill-rule="evenodd" clip-rule="evenodd" d="M66.6253 3.7614C66.6253 5.8384 64.9413 7.5224 62.8643 7.5224C60.7873 7.5224 59.1033 5.8384 59.1033 3.7614C59.1033 1.6844 60.7873 0.000396729 62.8643 0.000396729C64.9413 0.000396729 66.6253 1.6844 66.6253 3.7614Z" fill="white"/>
<path fill-rule="evenodd" clip-rule="evenodd" d="M96.1765 3.7614C96.1765 5.8384 94.4925 7.5224 92.4155 7.5224C90.3385 7.5224 88.6545 5.8384 88.6545 3.7614C88.6545 1.6844 90.3385 0.000396729 92.4155 0.000396729C94.4925 0.000396729 96.1765 1.6844 96.1765 3.7614Z" fill="white"/>
<path fill-rule="evenodd" clip-rule="evenodd" d="M125.728 3.7614C125.728 5.8384 124.044 7.5224 121.967 7.5224C119.89 7.5224 118.206 5.8384 118.206 3.7614C118.206 1.6844 119.89 0.000396729 121.967 0.000396729C124.044 0.000396729 125.728 1.6844 125.728 3.7614Z" fill="white"/>
<path fill-rule="evenodd" clip-rule="evenodd" d="M155.279 3.7614C155.279 5.8384 153.595 7.5224 151.518 7.5224C149.441 7.5224 147.757 5.8384 147.757 3.7614C147.757 1.6844 149.441 0.000396729 151.518 0.000396729C153.595 0.000396729 155.279 1.6844 155.279 3.7614Z" fill="white"/>
<path fill-rule="evenodd" clip-rule="evenodd" d="M184.831 3.7614C184.831 5.8384 183.147 7.5224 181.07 7.5224C178.993 7.5224 177.309 5.8384 177.309 3.7614C177.309 1.6844 178.993 0.000396729 181.07 0.000396729C183.147 0.000396729 184.831 1.6844 184.831 3.7614Z" fill="white"/>
<path fill-rule="evenodd" clip-rule="evenodd" d="M214.382 3.7614C214.382 5.8384 212.698 7.5224 210.621 7.5224C208.544 7.5224 206.86 5.8384 206.86 3.7614C206.86 1.6844 208.544 0.000396729 210.621 0.000396729C212.698 0.000396729 214.382 1.6844 214.382 3.7614Z" fill="white"/>
<path fill-rule="evenodd" clip-rule="evenodd" d="M7.52224 29.5519C7.52224 31.6289 5.83824 33.3129 3.76124 33.3129C1.68424 33.3129 0.000244141 31.6289 0.000244141 29.5519C0.000244141 27.4749 1.68424 25.7909 3.76124 25.7909C5.83824 25.7909 7.52224 27.4749 7.52224 29.5519Z" fill="white"/>
<path fill-rule="evenodd" clip-rule="evenodd" d="M37.0735 29.5519C37.0735 31.6289 35.3895 33.3129 33.3125 33.3129C31.2355 33.3129 29.5515 31.6289 29.5515 29.5519C29.5515 27.4749 31.2355 25.7909 33.3125 25.7909C35.3895 25.7909 37.0735 27.4749 37.0735 29.5519Z" fill="white"/>
<path fill-rule="evenodd" clip-rule="evenodd" d="M66.6253 29.5519C66.6253 31.6289 64.9413 33.3129 62.8643 33.3129C60.7873 33.3129 59.1033 31.6289 59.1033 29.5519C59.1033 27.4749 60.7873 25.7909 62.8643 25.7909C64.9413 25.7909 66.6253 27.4749 66.6253 29.5519Z" fill="white"/>
<path fill-rule="evenodd" clip-rule="evenodd" d="M96.1765 29.5519C96.1765 31.6289 94.4925 33.3129 92.4155 33.3129C90.3385 33.3129 88.6545 31.6289 88.6545 29.5519C88.6545 27.4749 90.3385 25.7909 92.4155 25.7909C94.4925 25.7909 96.1765 27.4749 96.1765 29.5519Z" fill="white"/>
<path fill-rule="evenodd" clip-rule="evenodd" d="M125.728 29.5519C125.728 31.6289 124.044 33.3129 121.967 33.3129C119.89 33.3129 118.206 31.6289 118.206 29.5519C118.206 27.4749 119.89 25.7909 121.967 25.7909C124.044 25.7909 125.728 27.4749 125.728 29.5519Z" fill="white"/>
<path fill-rule="evenodd" clip-rule="evenodd" d="M155.279 29.5519C155.279 31.6289 153.595 33.3129 151.518 33.3129C149.441 33.3129 147.757 31.6289 147.757 29.5519C147.757 27.4749 149.441 25.7909 151.518 25.7909C153.595 25.7909 155.279 27.4749 155.279 29.5519Z" fill="white"/>
<path fill-rule="evenodd" clip-rule="evenodd" d="M184.831 29.5519C184.831 31.6289 183.147 33.3129 181.07 33.3129C178.993 33.3129 177.309 31.6289 177.309 29.5519C177.309 27.4749 178.993 25.7909 181.07 25.7909C183.147 25.7909 184.831 27.4749 184.831 29.5519Z" fill="white"/>
<path fill-rule="evenodd" clip-rule="evenodd" d="M214.382 29.5519C214.382 31.6289 212.698 33.3129 210.621 33.3129C208.544 33.3129 206.86 31.6289 206.86 29.5519C206.86 27.4749 208.544 25.7909 210.621 25.7909C212.698 25.7909 214.382 27.4749 214.382 29.5519Z" fill="white"/>
<path fill-rule="evenodd" clip-rule="evenodd" d="M7.52224 55.3419C7.52224 57.4189 5.83824 59.1029 3.76124 59.1029C1.68424 59.1029 0.000244141 57.4189 0.000244141 55.3419C0.000244141 53.2649 1.68424 51.5809 3.76124 51.5809C5.83824 51.5809 7.52224 53.2649 7.52224 55.3419Z" fill="white"/>
<path fill-rule="evenodd" clip-rule="evenodd" d="M37.0735 55.3419C37.0735 57.4189 35.3895 59.1029 33.3125 59.1029C31.2355 59.1029 29.5515 57.4189 29.5515 55.3419C29.5515 53.2649 31.2355 51.5809 33.3125 51.5809C35.3895 51.5809 37.0735 53.2649 37.0735 55.3419Z" fill="white"/>
<path fill-rule="evenodd" clip-rule="evenodd" d="M66.6253 55.3419C66.6253 57.4189 64.9413 59.1029 62.8643 59.1029C60.7873 59.1029 59.1033 57.4189 59.1033 55.3419C59.1033 53.2649 60.7873 51.5809 62.8643 51.5809C64.9413 51.5809 66.6253 53.2649 66.6253 55.3419Z" fill="white"/>
<path fill-rule="evenodd" clip-rule="evenodd" d="M96.1765 55.3419C96.1765 57.4189 94.4925 59.1029 92.4155 59.1029C90.3385 59.1029 88.6545 57.4189 88.6545 55.3419C88.6545 53.2649 90.3385 51.5809 92.4155 51.5809C94.4925 51.5809 96.1765 53.2649 96.1765 55.3419Z" fill="white"/>
<path fill-rule="evenodd" clip-rule="evenodd" d="M125.728 55.3419C125.728 57.4189 124.044 59.1029 121.967 59.1029C119.89 59.1029 118.206 57.4189 118.206 55.3419C118.206 53.2649 119.89 51.5809 121.967 51.5809C124.044 51.5809 125.728 53.2649 125.728 55.3419Z" fill="white"/>
<path fill-rule="evenodd" clip-rule="evenodd" d="M155.279 55.3419C155.279 57.4189 153.595 59.1029 151.518 59.1029C149.441 59.1029 147.757 57.4189 147.757 55.3419C147.757 53.2649 149.441 51.5809 151.518 51.5809C153.595 51.5809 155.279 53.2649 155.279 55.3419Z" fill="white"/>
<path fill-rule="evenodd" clip-rule="evenodd" d="M184.831 55.3419C184.831 57.4189 183.147 59.1029 181.07 59.1029C178.993 59.1029 177.309 57.4189 177.309 55.3419C177.309 53.2649 178.993 51.5809 181.07 51.5809C183.147 51.5809 184.831 53.2649 184.831 55.3419Z" fill="white"/>
<path fill-rule="evenodd" clip-rule="evenodd" d="M214.382 55.3419C214.382 57.4189 212.698 59.1029 210.621 59.1029C208.544 59.1029 206.86 57.4189 206.86 55.3419C206.86 53.2649 208.544 51.5809 210.621 51.5809C212.698 51.5809 214.382 53.2649 214.382 55.3419Z" fill="white"/>
<path fill-rule="evenodd" clip-rule="evenodd" d="M7.52224 81.1325C7.52224 83.2095 5.83824 84.8935 3.76124 84.8935C1.68424 84.8935 0.000244141 83.2095 0.000244141 81.1325C0.000244141 79.0555 1.68424 77.3715 3.76124 77.3715C5.83824 77.3715 7.52224 79.0555 7.52224 81.1325Z" fill="white"/>
<path fill-rule="evenodd" clip-rule="evenodd" d="M37.0735 81.1325C37.0735 83.2095 35.3895 84.8935 33.3125 84.8935C31.2355 84.8935 29.5515 83.2095 29.5515 81.1325C29.5515 79.0555 31.2355 77.3715 33.3125 77.3715C35.3895 77.3715 37.0735 79.0555 37.0735 81.1325Z" fill="white"/>
<path fill-rule="evenodd" clip-rule="evenodd" d="M66.6253 81.1325C66.6253 83.2095 64.9413 84.8935 62.8643 84.8935C60.7873 84.8935 59.1033 83.2095 59.1033 81.1325C59.1033 79.0555 60.7873 77.3715 62.8643 77.3715C64.9413 77.3715 66.6253 79.0555 66.6253 81.1325Z" fill="white"/>
<path fill-rule="evenodd" clip-rule="evenodd" d="M96.1765 81.1325C96.1765 83.2095 94.4925 84.8935 92.4155 84.8935C90.3385 84.8935 88.6545 83.2095 88.6545 81.1325C88.6545 79.0555 90.3385 77.3715 92.4155 77.3715C94.4925 77.3715 96.1765 79.0555 96.1765 81.1325Z" fill="white"/>
<path fill-rule="evenodd" clip-rule="evenodd" d="M125.728 81.1325C125.728 83.2095 124.044 84.8935 121.967 84.8935C119.89 84.8935 118.206 83.2095 118.206 81.1325C118.206 79.0555 119.89 77.3715 121.967 77.3715C124.044 77.3715 125.728 79.0555 125.728 81.1325Z" fill="white"/>
<path fill-rule="evenodd" clip-rule="evenodd" d="M155.279 81.1325C155.279 83.2095 153.595 84.8935 151.518 84.8935C149.441 84.8935 147.757 83.2095 147.757 81.1325C147.757 79.0555 149.441 77.3715 151.518 77.3715C153.595 77.3715 155.279 79.0555 155.279 81.1325Z" fill="white"/>
<path fill-rule="evenodd" clip-rule="evenodd" d="M184.831 81.1325C184.831 83.2095 183.147 84.8935 181.07 84.8935C178.993 84.8935 177.309 83.2095 177.309 81.1325C177.309 79.0555 178.993 77.3715 181.07 77.3715C183.147 77.3715 184.831 79.0555 184.831 81.1325Z" fill="white"/>
<path fill-rule="evenodd" clip-rule="evenodd" d="M214.382 81.1325C214.382 83.2095 212.698 84.8935 210.621 84.8935C208.544 84.8935 206.86 83.2095 206.86 81.1325C206.86 79.0555 208.544 77.3715 210.621 77.3715C212.698 77.3715 214.382 79.0555 214.382 81.1325Z" fill="white"/>
<path fill-rule="evenodd" clip-rule="evenodd" d="M7.52224 106.922C7.52224 108.999 5.83824 110.683 3.76124 110.683C1.68424 110.683 0.000244141 108.999 0.000244141 106.922C0.000244141 104.845 1.68424 103.161 3.76124 103.161C5.83824 103.161 7.52224 104.845 7.52224 106.922Z" fill="white"/>
<path fill-rule="evenodd" clip-rule="evenodd" d="M37.0735 106.922C37.0735 108.999 35.3895 110.683 33.3125 110.683C31.2355 110.683 29.5515 108.999 29.5515 106.922C29.5515 104.845 31.2355 103.161 33.3125 103.161C35.3895 103.161 37.0735 104.845 37.0735 106.922Z" fill="white"/>
<path fill-rule="evenodd" clip-rule="evenodd" d="M66.6253 106.922C66.6253 108.999 64.9413 110.683 62.8643 110.683C60.7873 110.683 59.1033 108.999 59.1033 106.922C59.1033 104.845 60.7873 103.161 62.8643 103.161C64.9413 103.161 66.6253 104.845 66.6253 106.922Z" fill="white"/>
<path fill-rule="evenodd" clip-rule="evenodd" d="M96.1765 106.922C96.1765 108.999 94.4925 110.683 92.4155 110.683C90.3385 110.683 88.6545 108.999 88.6545 106.922C88.6545 104.845 90.3385 103.161 92.4155 103.161C94.4925 103.161 96.1765 104.845 96.1765 106.922Z" fill="white"/>
<path fill-rule="evenodd" clip-rule="evenodd" d="M125.728 106.922C125.728 108.999 124.044 110.683 121.967 110.683C119.89 110.683 118.206 108.999 118.206 106.922C118.206 104.845 119.89 103.161 121.967 103.161C124.044 103.161 125.728 104.845 125.728 106.922Z" fill="white"/>
<path fill-rule="evenodd" clip-rule="evenodd" d="M155.279 106.922C155.279 108.999 153.595 110.683 151.518 110.683C149.441 110.683 147.757 108.999 147.757 106.922C147.757 104.845 149.441 103.161 151.518 103.161C153.595 103.161 155.279 104.845 155.279 106.922Z" fill="white"/>
<path fill-rule="evenodd" clip-rule="evenodd" d="M184.831 106.922C184.831 108.999 183.147 110.683 181.07 110.683C178.993 110.683 177.309 108.999 177.309 106.922C177.309 104.845 178.993 103.161 181.07 103.161C183.147 103.161 184.831 104.845 184.831 106.922Z" fill="white"/>
<path fill-rule="evenodd" clip-rule="evenodd" d="M214.382 106.922C214.382 108.999 212.698 110.683 210.621 110.683C208.544 110.683 206.86 108.999 206.86 106.922C206.86 104.845 208.544 103.161 210.621 103.161C212.698 103.161 214.382 104.845 214.382 106.922Z" fill="white"/>
<path fill-rule="evenodd" clip-rule="evenodd" d="M7.52224 132.713C7.52224 134.79 5.83824 136.474 3.76124 136.474C1.68424 136.474 0.000244141 134.79 0.000244141 132.713C0.000244141 130.636 1.68424 128.952 3.76124 128.952C5.83824 128.952 7.52224 130.636 7.52224 132.713Z" fill="white"/>
<path fill-rule="evenodd" clip-rule="evenodd" d="M37.0735 132.713C37.0735 134.79 35.3895 136.474 33.3125 136.474C31.2355 136.474 29.5515 134.79 29.5515 132.713C29.5515 130.636 31.2355 128.952 33.3125 128.952C35.3895 128.952 37.0735 130.636 37.0735 132.713Z" fill="white"/>
<path fill-rule="evenodd" clip-rule="evenodd" d="M66.6253 132.713C66.6253 134.79 64.9413 136.474 62.8643 136.474C60.7873 136.474 59.1033 134.79 59.1033 132.713C59.1033 130.636 60.7873 128.952 62.8643 128.952C64.9413 128.952 66.6253 130.636 66.6253 132.713Z" fill="white"/>
<path fill-rule="evenodd" clip-rule="evenodd" d="M96.1765 132.713C96.1765 134.79 94.4925 136.474 92.4155 136.474C90.3385 136.474 88.6545 134.79 88.6545 132.713C88.6545 130.636 90.3385 128.952 92.4155 128.952C94.4925 128.952 96.1765 130.636 96.1765 132.713Z" fill="white"/>
<path fill-rule="evenodd" clip-rule="evenodd" d="M125.728 132.713C125.728 134.79 124.044 136.474 121.967 136.474C119.89 136.474 118.206 134.79 118.206 132.713C118.206 130.636 119.89 128.952 121.967 128.952C124.044 128.952 125.728 130.636 125.728 132.713Z" fill="white"/>
<path fill-rule="evenodd" clip-rule="evenodd" d="M155.279 132.713C155.279 134.79 153.595 136.474 151.518 136.474C149.441 136.474 147.757 134.79 147.757 132.713C147.757 130.636 149.441 128.952 151.518 128.952C153.595 128.952 155.279 130.636 155.279 132.713Z" fill="white"/>
<path fill-rule="evenodd" clip-rule="evenodd" d="M184.831 132.713C184.831 134.79 183.147 136.474 181.07 136.474C178.993 136.474 177.309 134.79 177.309 132.713C177.309 130.636 178.993 128.952 181.07 128.952C183.147 128.952 184.831 130.636 184.831 132.713Z" fill="white"/>
<path fill-rule="evenodd" clip-rule="evenodd" d="M214.382 132.713C214.382 134.79 212.698 136.474 210.621 136.474C208.544 136.474 206.86 134.79 206.86 132.713C206.86 130.636 208.544 128.952 210.621 128.952C212.698 128.952 214.382 130.636 214.382 132.713Z" fill="white"/>
<path fill-rule="evenodd" clip-rule="evenodd" d="M7.52224 158.503C7.52224 160.58 5.83824 162.264 3.76124 162.264C1.68424 162.264 0.000244141 160.58 0.000244141 158.503C0.000244141 156.425 1.68424 154.742 3.76124 154.742C5.83824 154.742 7.52224 156.425 7.52224 158.503Z" fill="white"/>
<path fill-rule="evenodd" clip-rule="evenodd" d="M37.0735 158.503C37.0735 160.58 35.3895 162.264 33.3125 162.264C31.2355 162.264 29.5515 160.58 29.5515 158.503C29.5515 156.425 31.2355 154.742 33.3125 154.742C35.3895 154.742 37.0735 156.425 37.0735 158.503Z" fill="white"/>
<path fill-rule="evenodd" clip-rule="evenodd" d="M66.6253 158.503C66.6253 160.58 64.9413 162.264 62.8643 162.264C60.7873 162.264 59.1033 160.58 59.1033 158.503C59.1033 156.425 60.7873 154.742 62.8643 154.742C64.9413 154.742 66.6253 156.425 66.6253 158.503Z" fill="white"/>
<path fill-rule="evenodd" clip-rule="evenodd" d="M96.1765 158.503C96.1765 160.58 94.4925 162.264 92.4155 162.264C90.3385 162.264 88.6545 160.58 88.6545 158.503C88.6545 156.425 90.3385 154.742 92.4155 154.742C94.4925 154.742 96.1765 156.425 96.1765 158.503Z" fill="white"/>
<path fill-rule="evenodd" clip-rule="evenodd" d="M125.728 158.503C125.728 160.58 124.044 162.264 121.967 162.264C119.89 162.264 118.206 160.58 118.206 158.503C118.206 156.425 119.89 154.742 121.967 154.742C124.044 154.742 125.728 156.425 125.728 158.503Z" fill="white"/>
<path fill-rule="evenodd" clip-rule="evenodd" d="M155.279 158.503C155.279 160.58 153.595 162.264 151.518 162.264C149.441 162.264 147.757 160.58 147.757 158.503C147.757 156.425 149.441 154.742 151.518 154.742C153.595 154.742 155.279 156.425 155.279 158.503Z" fill="white"/>
<path fill-rule="evenodd" clip-rule="evenodd" d="M184.831 158.503C184.831 160.58 183.147 162.264 181.07 162.264C178.993 162.264 177.309 160.58 177.309 158.503C177.309 156.425 178.993 154.742 181.07 154.742C183.147 154.742 184.831 156.425 184.831 158.503Z" fill="white"/>
<path fill-rule="evenodd" clip-rule="evenodd" d="M214.382 158.503C214.382 160.58 212.698 162.264 210.621 162.264C208.544 162.264 206.86 160.58 206.86 158.503C206.86 156.425 208.544 154.742 210.621 154.742C212.698 154.742 214.382 156.425 214.382 158.503Z" fill="white"/>
<path fill-rule="evenodd" clip-rule="evenodd" d="M7.52224 184.294C7.52224 186.371 5.83824 188.055 3.76124 188.055C1.68424 188.055 0.000244141 186.371 0.000244141 184.294C0.000244141 182.217 1.68424 180.533 3.76124 180.533C5.83824 180.533 7.52224 182.217 7.52224 184.294Z" fill="white"/>
<path fill-rule="evenodd" clip-rule="evenodd" d="M37.0735 184.294C37.0735 186.371 35.3895 188.055 33.3125 188.055C31.2355 188.055 29.5515 186.371 29.5515 184.294C29.5515 182.217 31.2355 180.533 33.3125 180.533C35.3895 180.533 37.0735 182.217 37.0735 184.294Z" fill="white"/>
<path fill-rule="evenodd" clip-rule="evenodd" d="M66.6253 184.294C66.6253 186.371 64.9413 188.055 62.8643 188.055C60.7873 188.055 59.1033 186.371 59.1033 184.294C59.1033 182.217 60.7873 180.533 62.8643 180.533C64.9413 180.533 66.6253 182.217 66.6253 184.294Z" fill="white"/>
<path fill-rule="evenodd" clip-rule="evenodd" d="M96.1765 184.294C96.1765 186.371 94.4925 188.055 92.4155 188.055C90.3385 188.055 88.6545 186.371 88.6545 184.294C88.6545 182.217 90.3385 180.533 92.4155 180.533C94.4925 180.533 96.1765 182.217 96.1765 184.294Z" fill="white"/>
<path fill-rule="evenodd" clip-rule="evenodd" d="M125.728 184.294C125.728 186.371 124.044 188.055 121.967 188.055C119.89 188.055 118.206 186.371 118.206 184.294C118.206 182.217 119.89 180.533 121.967 180.533C124.044 180.533 125.728 182.217 125.728 184.294Z" fill="white"/>
<path fill-rule="evenodd" clip-rule="evenodd" d="M155.279 184.294C155.279 186.371 153.595 188.055 151.518 188.055C149.441 188.055 147.757 186.371 147.757 184.294C147.757 182.217 149.441 180.533 151.518 180.533C153.595 180.533 155.279 182.217 155.279 184.294Z" fill="white"/>
<path fill-rule="evenodd" clip-rule="evenodd" d="M184.831 184.294C184.831 186.371 183.147 188.055 181.07 188.055C178.993 188.055 177.309 186.371 177.309 184.294C177.309 182.217 178.993 180.533 181.07 180.533C183.147 180.533 184.831 182.217 184.831 184.294Z" fill="white"/>
<path fill-rule="evenodd" clip-rule="evenodd" d="M214.382 184.294C214.382 186.371 212.698 188.055 210.621 188.055C208.544 188.055 206.86 186.371 206.86 184.294C206.86 182.217 208.544 180.533 210.621 180.533C212.698 180.533 214.382 182.217 214.382 184.294Z" fill="white"/>
<mask id="mask0" mask-type="alpha" maskUnits="userSpaceOnUse" x="0" y="206" width="8" height="8">
<path fill-rule="evenodd" clip-rule="evenodd" d="M0.000244141 206.323H7.52224V213.845H0.000244141V206.323Z" fill="white"/>
</mask>
<g mask="url(#mask0)">
<path fill-rule="evenodd" clip-rule="evenodd" d="M7.52224 210.084C7.52224 212.161 5.83824 213.845 3.76124 213.845C1.68424 213.845 0.000244141 212.161 0.000244141 210.084C0.000244141 208.007 1.68424 206.323 3.76124 206.323C5.83824 206.323 7.52224 208.007 7.52224 210.084Z" fill="white"/>
</g>
<mask id="mask1" mask-type="alpha" maskUnits="userSpaceOnUse" x="29" y="206" width="9" height="8">
<path fill-rule="evenodd" clip-rule="evenodd" d="M29.5515 206.323H37.0735V213.845H29.5515V206.323Z" fill="white"/>
</mask>
<g mask="url(#mask1)">
<path fill-rule="evenodd" clip-rule="evenodd" d="M37.0735 210.084C37.0735 212.161 35.3895 213.845 33.3125 213.845C31.2355 213.845 29.5515 212.161 29.5515 210.084C29.5515 208.007 31.2355 206.323 33.3125 206.323C35.3895 206.323 37.0735 208.007 37.0735 210.084Z" fill="white"/>
</g>
<mask id="mask2" mask-type="alpha" maskUnits="userSpaceOnUse" x="59" y="206" width="8" height="8">
<path fill-rule="evenodd" clip-rule="evenodd" d="M59.1033 206.323H66.6253V213.845H59.1033V206.323Z" fill="white"/>
</mask>
<g mask="url(#mask2)">
<path fill-rule="evenodd" clip-rule="evenodd" d="M66.6253 210.084C66.6253 212.161 64.9413 213.845 62.8643 213.845C60.7873 213.845 59.1033 212.161 59.1033 210.084C59.1033 208.007 60.7873 206.323 62.8643 206.323C64.9413 206.323 66.6253 208.007 66.6253 210.084Z" fill="white"/>
</g>
<mask id="mask3" mask-type="alpha" maskUnits="userSpaceOnUse" x="88" y="206" width="9" height="8">
<path fill-rule="evenodd" clip-rule="evenodd" d="M88.6545 206.323H96.1765V213.845H88.6545V206.323Z" fill="white"/>
</mask>
<g mask="url(#mask3)">
<path fill-rule="evenodd" clip-rule="evenodd" d="M96.1765 210.084C96.1765 212.161 94.4925 213.845 92.4155 213.845C90.3385 213.845 88.6545 212.161 88.6545 210.084C88.6545 208.007 90.3385 206.323 92.4155 206.323C94.4925 206.323 96.1765 208.007 96.1765 210.084Z" fill="white"/>
</g>
<mask id="mask4" mask-type="alpha" maskUnits="userSpaceOnUse" x="118" y="206" width="8" height="8">
<path fill-rule="evenodd" clip-rule="evenodd" d="M118.206 206.323H125.728V213.845H118.206V206.323Z" fill="white"/>
</mask>
<g mask="url(#mask4)">
<path fill-rule="evenodd" clip-rule="evenodd" d="M125.728 210.084C125.728 212.161 124.044 213.845 121.967 213.845C119.89 213.845 118.206 212.161 118.206 210.084C118.206 208.007 119.89 206.323 121.967 206.323C124.044 206.323 125.728 208.007 125.728 210.084Z" fill="white"/>
</g>
<mask id="mask5" mask-type="alpha" maskUnits="userSpaceOnUse" x="147" y="206" width="9" height="8">
<path fill-rule="evenodd" clip-rule="evenodd" d="M147.757 206.323H155.279V213.845H147.757V206.323Z" fill="white"/>
</mask>
<g mask="url(#mask5)">
<path fill-rule="evenodd" clip-rule="evenodd" d="M155.279 210.084C155.279 212.161 153.595 213.845 151.518 213.845C149.441 213.845 147.757 212.161 147.757 210.084C147.757 208.007 149.441 206.323 151.518 206.323C153.595 206.323 155.279 208.007 155.279 210.084Z" fill="white"/>
</g>
<mask id="mask6" mask-type="alpha" maskUnits="userSpaceOnUse" x="177" y="206" width="8" height="8">
<path fill-rule="evenodd" clip-rule="evenodd" d="M177.309 206.323H184.831V213.845H177.309V206.323Z" fill="white"/>
</mask>
<g mask="url(#mask6)">
<path fill-rule="evenodd" clip-rule="evenodd" d="M184.831 210.084C184.831 212.161 183.147 213.845 181.07 213.845C178.993 213.845 177.309 212.161 177.309 210.084C177.309 208.007 178.993 206.323 181.07 206.323C183.147 206.323 184.831 208.007 184.831 210.084Z" fill="white"/>
</g>
<mask id="mask7" mask-type="alpha" maskUnits="userSpaceOnUse" x="206" y="206" width="9" height="8">
<path fill-rule="evenodd" clip-rule="evenodd" d="M206.86 206.323H214.382V213.845H206.86V206.323Z" fill="white"/>
</mask>
<g mask="url(#mask7)">
<path fill-rule="evenodd" clip-rule="evenodd" d="M214.382 210.084C214.382 212.161 212.698 213.845 210.621 213.845C208.544 213.845 206.86 212.161 206.86 210.084C206.86 208.007 208.544 206.323 210.621 206.323C212.698 206.323 214.382 208.007 214.382 210.084Z" fill="white"/>
</g>
</svg>
