<svg width="20" height="51" viewBox="0 0 20 51" fill="none" xmlns="http://www.w3.org/2000/svg">
<path fill-rule="evenodd" clip-rule="evenodd" d="M8.33316 6.06028C8.33316 5.22239 9.0121 4.54502 9.84789 4.54502C10.6842 4.54502 11.3632 5.22239 11.3632 6.06028C11.3632 6.8966 10.6842 7.57555 9.84789 7.57555C9.0121 7.57555 8.33316 6.8966 8.33316 6.06028ZM8.33316 1.51502C8.33316 0.678703 9.0121 -0.000244141 9.84789 -0.000244141C10.6842 -0.000244141 11.3632 0.678703 11.3632 1.51502C11.3632 2.35291 10.6842 3.03028 9.84789 3.03028C9.0121 3.03028 8.33316 2.35291 8.33316 1.51502ZM7.07842 41.1676C7.46474 41.3108 7.66684 41.7419 7.53421 42.1276C7.39895 42.5177 6.96526 42.7303 6.57105 42.5961C5.71105 42.2924 3.70158 41.4524 2.08263 39.3829C0.115263 36.8655 0.00157895 34.164 0 33.3045V18.9113C0.00157895 18.1634 0.091579 14.9392 2.61421 12.2145C5.46053 9.14186 9.21526 9.06555 9.84789 9.06344C10.4753 9.06344 14.2526 9.12765 17.1016 12.2145C19.6184 14.9419 19.6968 18.1671 19.6958 18.9113V33.3045C19.7 34.1524 19.6 36.6882 17.8053 39.1382C16.1289 41.4266 13.9463 42.3092 13.1263 42.5955C12.7342 42.7313 12.2995 42.5213 12.1621 42.1292C12.0258 41.7355 12.2374 41.3008 12.6295 41.164C13.3553 40.9024 15.0753 40.1713 16.4484 38.3824C18.0663 36.2755 18.1758 34.0413 18.1805 33.3045V18.9113C18.1805 18.3061 18.1163 15.5013 15.9 13.1661C13.4942 10.6313 10.3832 10.5782 9.84789 10.5782C9.33053 10.5798 6.00842 10.6482 3.58263 13.4003C1.39632 15.8792 1.48474 18.7834 1.51474 19.375V33.3045C1.52263 34.045 1.64 36.2108 3.19316 38.2882C4.58684 40.1534 6.36105 40.9071 7.07842 41.1676ZM10.6058 48.1519L13.1058 45.6519C13.2568 45.5008 13.4089 45.4245 13.6358 45.4245C13.8632 45.4245 14.0147 45.5008 14.1663 45.6519C14.4689 45.9561 14.4689 46.4098 14.1663 46.7134L10.3784 50.5008C10.2268 50.6524 10.0374 50.7277 9.84789 50.7277C9.65895 50.7277 9.46947 50.6524 9.31789 50.5008L5.53 46.7134C5.22737 46.4098 5.22737 45.9561 5.53 45.6519C5.68158 45.5008 5.83316 45.4245 6.06053 45.4245C6.28789 45.4245 6.43947 45.5008 6.59053 45.6519L9.09053 48.1519V37.8492C9.09053 37.3955 9.39368 37.0919 9.84789 37.0919C10.3026 37.0919 10.6058 37.3955 10.6058 37.8492V48.1519ZM9.84789 18.154C10.2663 18.154 10.6058 18.4924 10.6058 18.9113V23.4566C10.6058 23.8755 10.2663 24.214 9.84789 24.214C9.43 24.214 9.09053 23.8755 9.09053 23.4566V18.9113C9.09053 18.4924 9.43 18.154 9.84789 18.154Z" fill="white"/>
</svg>
