<svg width="100" height="100" viewBox="0 0 100 100" fill="none" xmlns="http://www.w3.org/2000/svg">
<g opacity="0.2">
<mask id="mask0" mask-type="alpha" maskUnits="userSpaceOnUse" x="49" y="0" width="51" height="100">
<path fill-rule="evenodd" clip-rule="evenodd" d="M49.8278 0.751953H99.6549V99.0571H49.8278V0.751953Z" fill="white"/>
</mask>
<g mask="url(#mask0)">
<path fill-rule="evenodd" clip-rule="evenodd" d="M67.6526 30.7294C72.3346 35.679 74.6737 42.0723 74.6737 49.9046C74.6737 57.7362 72.3346 64.1279 67.6526 69.0798C62.8812 74.1196 56.9398 76.6414 49.8278 76.6414V99.0572C64.1414 99.0572 76.0248 94.2843 85.4767 84.7429C94.9293 75.2001 99.6549 63.5873 99.6549 49.9046C99.6549 36.2204 94.9293 24.6068 85.4767 15.0655C76.0248 5.52263 64.1414 0.751953 49.8278 0.751953V23.1677C56.9398 23.1677 62.8812 25.6865 67.6526 30.7294Z" fill="white"/>
</g>
</g>
<g opacity="0.5">
<mask id="mask1" mask-type="alpha" maskUnits="userSpaceOnUse" x="0" y="0" width="50" height="100">
<path fill-rule="evenodd" clip-rule="evenodd" d="M0.000305176 0.751709H49.8281V99.057H0.000305176V0.751709Z" fill="white"/>
</mask>
<g mask="url(#mask1)">
<path fill-rule="evenodd" clip-rule="evenodd" d="M0.000305176 49.9049C0.000305176 63.5868 4.72587 75.2003 14.1777 84.7432C23.6304 94.2838 35.5131 99.0575 49.8281 99.0575V76.6409C42.8063 76.6409 36.9108 74.1199 32.1379 69.0793C27.3672 64.0364 24.9815 57.6462 24.9815 49.9049C24.9815 42.1612 27.3672 35.7703 32.1379 30.7297C36.9108 25.6868 42.8063 23.168 49.8281 23.168V0.751465C35.5131 0.751465 23.6304 5.52289 14.1777 15.0658C4.72587 24.6071 0.000305176 36.2199 0.000305176 49.9049Z" fill="white"/>
</g>
</g>
</svg>
