<svg width="37" height="36" fill="none" xmlns="http://www.w3.org/2000/svg"><path d="M28.496 7.29a4.041 4.041 0 0 0 1.09-2.758c0-2.231-1.802-4.016-3.983-4.016-1.658 0-5.479 2.454-7.01 4.659C17.016 2.97 13.203.587 11.618.587c-2.18 0-3.983 1.785-3.983 4.016a4 4 0 0 0 1.018 2.678H.94v9.604h2.11v18.618h31.124v-18.61h2.09V7.29h-7.767zm-2.902-5.284c1.352 0 2.478 1.116 2.478 2.606 0 1.259-.883 2.339-2.036 2.562h-6.1c-.388-.116-.514-.25-.514-.33.009-1.268 4.514-4.838 6.172-4.838zm-13.985 0c1.577 0 6.164 3.57 6.164 4.838 0 .116-.27.24-.46.33h-6.146C10.023 6.951 9.14 5.871 9.14 4.612c-.01-1.419 1.117-2.606 2.469-2.606zm2.478 32.007H4.544v-17.12h9.543v17.12zm0-18.53H2.444V8.79h11.652l-.01 6.694zm7.515 18.53h-6.01V8.78h6.01v25.232zm11.048 0h-9.543v-17.12h9.543v17.12zm2.1-18.53H23.107V8.79H34.76l-.01 6.694z" fill="#000"/></svg>