<svg xmlns="http://www.w3.org/2000/svg" width="140" height="42" viewBox="0 0 140 42"><defs><clipPath id="qy15a"><path d="M0 0h140v41.517H0z"/></clipPath><clipPath id="qy15b"><path d="M0 41.517h140V0H0z"/></clipPath></defs><g><g><g><g/><g clip-path="url(#qy15a)"><path fill="#a6a6a6" d="M135.02 41.517H4.903C2.201 41.517 0 39.31 0 36.605v-31.7A4.91 4.91 0 0 1 4.904 0H135.02C137.721 0 140 2.2 140 4.905v31.7c0 2.704-2.28 4.912-4.98 4.912"/></g></g><g><path d="M139.039 36.588a3.97 3.97 0 0 1-3.976 3.968H4.951A3.975 3.975 0 0 1 .97 36.588V4.943A3.98 3.98 0 0 1 4.951.97h130.111c2.2 0 3.976 1.781 3.976 3.973z"/></g><g><path fill="#fff" d="M31.261 20.315c-.03-3.376 2.701-5.018 2.826-5.095-1.546-2.307-3.943-2.623-4.785-2.648-2.013-.217-3.966 1.233-4.991 1.233-1.046 0-2.625-1.212-4.327-1.176-2.19.034-4.24 1.332-5.363 3.347-2.319 4.11-.59 10.148 1.633 13.47 1.11 1.627 2.41 3.443 4.11 3.378 1.662-.069 2.284-1.084 4.29-1.084 1.989 0 2.572 1.084 4.306 1.044 1.785-.029 2.908-1.634 3.98-3.276 1.285-1.864 1.8-3.7 1.821-3.794-.042-.015-3.466-1.352-3.5-5.399"/></g><g><path fill="#fff" d="M28.434 10.78c.983-1.074 1.654-2.536 1.468-4.02-1.422.055-3.2.86-4.223 1.912-.906.926-1.715 2.444-1.506 3.872 1.597.104 3.237-.705 4.261-1.763"/></g><g><path fill="#fff" d="M55.996 32.827h-2.342l-1.283-3.97h-4.459l-1.222 3.97h-2.28l4.418-13.517h2.729zm-4.011-5.636l-1.16-3.53c-.123-.36-.353-1.21-.693-2.546h-.04a97.067 97.067 0 0 1-.653 2.546l-1.14 3.53z"/></g><g><path fill="#fff" d="M66.625 27.365c0 1.724-.46 3.088-1.382 4.089-.826.89-1.85 1.336-3.074 1.336-1.32 0-2.27-.48-2.847-1.44h-.042v5.343h-2.227V25.757c0-1.084-.029-2.197-.083-3.339h1.959l.124 1.608h.042c.743-1.211 1.87-1.816 3.383-1.816 1.183 0 2.17.472 2.96 1.418.792.947 1.187 2.192 1.187 3.737m-2.257.087c0-.989-.22-1.804-.662-2.445-.483-.669-1.132-1.003-1.945-1.003a2.31 2.31 0 0 0-1.5.553c-.448.37-.741.854-.878 1.453-.07.28-.104.508-.104.688v1.694c0 .739.224 1.362.672 1.871.449.51 1.032.763 1.748.763.842 0 1.497-.328 1.965-.982.47-.655.704-1.519.704-2.592"/></g><g><path fill="#fff" d="M78.205 27.365c0 1.724-.462 3.088-1.383 4.089-.825.89-1.85 1.336-3.075 1.336-1.32 0-2.27-.48-2.845-1.44h-.042v5.343h-2.227V25.757c0-1.084-.029-2.197-.083-3.339h1.96l.124 1.608h.041c.742-1.211 1.87-1.816 3.384-1.816 1.182 0 2.168.472 2.961 1.418.79.947 1.185 2.192 1.185 3.737m-2.27.087c0-.989-.22-1.804-.662-2.445-.482-.669-1.125-1.003-1.937-1.003-.552 0-1.05.186-1.497.553-.448.37-.738.854-.876 1.453-.067.28-.103.508-.103.688v1.694c0 .739.223 1.362.668 1.871.448.508 1.03.763 1.746.763.84 0 1.492-.328 1.96-.982.466-.655.702-1.519.702-2.592"/></g><g><path fill="#fff" d="M91.72 28.67c0 1.196-.414 2.17-1.244 2.921-.913.822-2.183 1.232-3.816 1.232-1.507 0-2.715-.293-3.63-.877l.52-1.88c.985.6 2.066.9 3.244.9.845 0 1.503-.193 1.975-.575.47-.382.706-.897.706-1.537 0-.57-.194-1.052-.583-1.442-.386-.39-1.03-.752-1.932-1.089-2.453-.918-3.677-2.263-3.677-4.032 0-1.157.429-2.105 1.289-2.844.856-.738 2-1.107 3.43-1.107 1.274 0 2.333.222 3.178.667l-.561 1.838c-.79-.432-1.683-.648-2.681-.648-.79 0-1.406.196-1.848.586a1.673 1.673 0 0 0-.561 1.273c0 .557.213 1.016.643 1.378.373.333 1.052.695 2.037 1.085 1.206.487 2.09 1.057 2.66 1.71.566.653.85 1.467.85 2.44"/></g><g><path fill="#fff" d="M98.483 24.392h-2.33v4.8c0 1.22.411 1.832 1.235 1.832.376 0 .69-.035.937-.103l.059 1.668c-.416.161-.965.243-1.644.243-.834 0-1.487-.264-1.956-.794-.47-.53-.706-1.417-.706-2.665V24.39H92.69V22.74h1.388v-1.81l2.076-.651v2.461h2.33z"/></g><g><path fill="#fff" d="M109.105 27.426c0 1.564-.434 2.85-1.3 3.854-.906 1.036-2.109 1.55-3.61 1.55-1.447 0-2.598-.494-3.457-1.485-.859-.992-1.288-2.242-1.288-3.75 0-1.578.442-2.871 1.328-3.877.885-1.006 2.079-1.508 3.58-1.508 1.445 0 2.61.495 3.487 1.488.841.962 1.26 2.205 1.26 3.728m-2.27.078c0-.941-.194-1.748-.588-2.42-.46-.814-1.116-1.22-1.967-1.22-.882 0-1.55.407-2.01 1.22-.394.673-.59 1.493-.59 2.463 0 .94.196 1.747.59 2.417.474.815 1.135 1.221 1.99 1.221.837 0 1.493-.415 1.967-1.241.405-.687.607-1.5.607-2.44"/></g><g><path fill="#fff" d="M116.823 24.457a4.35 4.35 0 0 0-.758-.065c-.846 0-1.5.308-1.961.923-.4.542-.602 1.228-.602 2.055v5.46h-2.404l.022-7.13c0-1.198-.03-2.29-.09-3.275h2.095l.088 1.99h.067c.254-.683.653-1.234 1.203-1.649a2.994 2.994 0 0 1 1.739-.556c.222 0 .423.014.601.042z"/></g><g><path fill="#fff" d="M126.4 28.086h-6.517c.025 1.008.34 1.778.946 2.31.549.476 1.259.714 2.131.714.965 0 1.846-.16 2.637-.483l.34 1.574c-.925.421-2.017.63-3.277.63-1.517 0-2.707-.465-3.573-1.395-.864-.93-1.297-2.18-1.297-3.748 0-1.538.402-2.82 1.208-3.842.844-1.09 1.984-1.636 3.42-1.636 1.408 0 2.475.545 3.2 1.636.573.867.862 1.938.862 3.212 0 .406-.026.748-.08 1.028zm-1.992-1.616c.014-.672-.127-1.253-.422-1.744-.376-.63-.953-.944-1.73-.944-.711 0-1.289.307-1.73.924-.362.49-.577 1.077-.643 1.763h4.525z"/></g><g><path fill="#fff" d="M51.173 9.977c0 1.197-.38 2.098-1.14 2.704-.704.558-1.705.838-3 .838-.643 0-1.193-.027-1.653-.08V6.9a12.91 12.91 0 0 1 1.946-.139c1.234 0 2.164.253 2.792.76.703.572 1.055 1.391 1.055 2.457m-1.191.03c0-.776-.218-1.371-.653-1.786-.436-.414-1.072-.622-1.91-.622-.355 0-.658.022-.91.07v4.972c.14.02.394.03.764.03.864 0 1.532-.227 2.002-.681.47-.454.707-1.115.707-1.983"/></g><g><path fill="#fff" d="M56.968 11.06c0 .712-.217 1.295-.65 1.753-.454.47-1.055.705-1.806.705-.723 0-1.3-.225-1.729-.677-.429-.45-.643-1.019-.643-1.704 0-.717.22-1.305.664-1.762.443-.456 1.04-.685 1.79-.685.724 0 1.305.225 1.745.675.418.438.629 1.004.629 1.695m-1.147.033c0-.427-.098-.793-.293-1.098-.229-.37-.555-.554-.979-.554-.438 0-.771.185-1 .554-.196.305-.293.677-.293 1.117 0 .427.098.793.292 1.099.237.369.566.554.99.554.418 0 .745-.188.98-.564.202-.311.303-.68.303-1.108"/></g><g><path fill="#fff" d="M64.689 8.69l-1.46 4.828h-.95l-.605-2.097a16.144 16.144 0 0 1-.375-1.56h-.018c-.09.531-.215 1.05-.375 1.56l-.643 2.097h-.96L57.93 8.69h1.066l.527 2.295c.128.543.233 1.06.317 1.55h.019c.077-.404.204-.918.385-1.54l.662-2.304h.845l.634 2.255c.153.55.278 1.08.374 1.59h.029c.07-.497.176-1.027.316-1.59l.566-2.255h1.019z"/></g><g><path fill="#fff" d="M70.482 13.518h-.98v-2.709c0-.834-.295-1.251-.887-1.251a.86.86 0 0 0-.708.344c-.18.23-.272.5-.272.81v2.805h-.98V10.14c0-.415-.012-.865-.035-1.353h.86l.047.74h.027c.114-.23.284-.42.507-.571.266-.177.563-.266.888-.266.411 0 .754.142 1.026.428.337.35.507.873.507 1.567z"/></g><g/><g clip-path="url(#qy15b)"><path fill="#fff" d="M72.41 13.519h.966V6.76h-.966z"/></g><g clip-path="url(#qy15b)"><path fill="#fff" d="M80.138 11.06c0 .712-.217 1.295-.65 1.753-.454.47-1.056.705-1.806.705-.724 0-1.3-.225-1.729-.677-.429-.45-.643-1.019-.643-1.704 0-.717.22-1.305.664-1.762.443-.456 1.04-.685 1.789-.685.725 0 1.305.225 1.746.675.418.438.629 1.004.629 1.695M79 11.093c0-.427-.098-.793-.294-1.098-.229-.37-.556-.554-.982-.554-.44 0-.776.185-1.005.554-.196.305-.293.677-.293 1.117 0 .427.098.793.293 1.099.238.369.568.554.996.554.417 0 .744-.188.98-.564.205-.311.305-.68.305-1.108"/></g><g clip-path="url(#qy15b)"><path fill="#fff" d="M84.962 13.413h-.94l-.078-.534h-.028c-.321.426-.78.639-1.374.639-.444 0-.804-.14-1.074-.42a1.303 1.303 0 0 1-.368-.942c0-.566.24-.997.72-1.295.483-.299 1.16-.445 2.03-.438v-.086c0-.61-.326-.915-.977-.915-.464 0-.873.115-1.226.343l-.213-.675c.437-.266.977-.4 1.614-.4 1.228 0 1.846.638 1.846 1.915v1.704c0 .462.023.83.068 1.104m-1.089-1.595v-.71c-1.15-.02-1.724.29-1.724.927 0 .24.065.42.2.54.134.12.304.18.509.18.229 0 .443-.072.637-.213a.869.869 0 0 0 .378-.724"/></g><g clip-path="url(#qy15b)"><path fill="#fff" d="M91.728 14.366h-.998l-.054-.837h-.03c-.318.637-.862.955-1.625.955-.608 0-1.117-.246-1.52-.74-.401-.493-.601-1.133-.601-1.92 0-.844.218-1.527.655-2.05.424-.486.943-.729 1.56-.729.68 0 1.156.236 1.425.708h.023V6.76h1.125v6.201c0 .508.013.976.04 1.405m-1.163-2.199v-.87c0-.15-.01-.271-.031-.364a1.328 1.328 0 0 0-.408-.702 1.09 1.09 0 0 0-.753-.285c-.42 0-.75.172-.991.516-.24.344-.361.783-.361 1.32 0 .515.115.933.346 1.254.244.343.572.515.984.515.37 0 .666-.143.89-.43a1.46 1.46 0 0 0 .324-.954"/></g><g clip-path="url(#qy15b)"><path fill="#fff" d="M100.418 11.06c0 .712-.217 1.295-.65 1.753-.454.47-1.054.705-1.806.705-.722 0-1.298-.225-1.729-.677-.429-.45-.643-1.019-.643-1.704 0-.717.22-1.305.664-1.762.443-.456 1.04-.685 1.79-.685.724 0 1.305.225 1.745.675.418.438.629 1.004.629 1.695m-1.144.033c0-.427-.098-.793-.293-1.098-.23-.37-.556-.554-.982-.554-.439 0-.772.185-1.003.554-.196.305-.293.677-.293 1.117 0 .427.098.793.293 1.099.237.369.567.554.993.554.417 0 .745-.188.982-.564.201-.311.303-.68.303-1.108"/></g><g clip-path="url(#qy15b)"><path fill="#fff" d="M106.202 13.518h-.979v-2.709c0-.834-.295-1.251-.889-1.251a.857.857 0 0 0-.707.344c-.181.23-.272.5-.272.81v2.805h-.98V10.14c0-.415-.01-.865-.035-1.353h.86l.046.74h.027c.115-.23.285-.42.508-.571.266-.177.562-.266.889-.266.41 0 .752.142 1.024.428.34.35.508.873.508 1.567z"/></g><g clip-path="url(#qy15b)"><path fill="#fff" d="M113.927 9.616h-1.164v2.217c0 .563.207.845.616.845.19 0 .348-.016.472-.048l.026.77c-.209.075-.482.113-.82.113-.418 0-.744-.122-.98-.366-.235-.244-.353-.654-.353-1.23v-2.3h-.694v-.76h.694V8.02l1.038-.3v1.135h1.164v.761z"/></g><g clip-path="url(#qy15b)"><path fill="#fff" d="M119.722 13.519h-.99v-2.634c0-.83-.297-1.246-.894-1.246-.459 0-.772.24-.943.722-.03.101-.048.225-.048.37v2.787h-.987V6.76h.987v2.792h.02c.311-.508.757-.762 1.336-.762.408 0 .748.14 1.016.42.334.349.503.868.503 1.554z"/></g><g clip-path="url(#qy15b)"><path fill="#fff" d="M125.473 11.36h-3.62c.015.459.188.808.523 1.05.307.216.702.324 1.186.324.535 0 1.024-.072 1.464-.219l.189.716c-.515.191-1.121.287-1.823.287-.84 0-1.503-.212-1.982-.635-.482-.423-.72-.99-.72-1.703 0-.7.222-1.282.67-1.746.468-.496 1.1-.744 1.899-.744.78 0 1.374.248 1.775.744.323.393.484.88.484 1.459 0 .185-.017.34-.045.467zm-1.097-.724c.009-.308-.07-.574-.235-.798-.21-.289-.53-.434-.965-.434-.395 0-.718.141-.964.424a1.45 1.45 0 0 0-.36.808z"/></g></g></g></svg>