<svg width="80" height="61" viewBox="0 0 80 61" fill="none" xmlns="http://www.w3.org/2000/svg">
<path fill-rule="evenodd" clip-rule="evenodd" d="M0 0V6.1C0 6.77344 0.54303 7.32 1.21212 7.32C1.88121 7.32 2.42424 6.77344 2.42424 6.1V2.44H77.5758V58.56H2.42424V10.98C2.42424 10.3066 1.88121 9.76 1.21212 9.76C0.54303 9.76 0 10.3066 0 10.98V61H80V0H0Z" fill="white"/>
<path fill-rule="evenodd" clip-rule="evenodd" d="M10.9091 51.24H59.3939C60.063 51.24 60.6061 50.6934 60.6061 50.02C60.6061 49.3465 60.063 48.8 59.3939 48.8H10.9091C10.24 48.8 9.69697 49.3465 9.69697 50.02C9.69697 50.6934 10.24 51.24 10.9091 51.24" fill="white"/>
<path fill-rule="evenodd" clip-rule="evenodd" d="M10.9091 46.36H69.0909C69.76 46.36 70.303 45.8134 70.303 45.14C70.303 44.4665 69.76 43.92 69.0909 43.92H10.9091C10.24 43.92 9.69697 44.4665 9.69697 45.14C9.69697 45.8134 10.24 46.36 10.9091 46.36" fill="white"/>
<path fill-rule="evenodd" clip-rule="evenodd" d="M20.6061 40.26C20.6061 40.9334 21.1491 41.48 21.8182 41.48H69.0909C69.76 41.48 70.303 40.9334 70.303 40.26C70.303 39.5865 69.76 39.04 69.0909 39.04H21.8182C21.1491 39.04 20.6061 39.5865 20.6061 40.26" fill="white"/>
<path fill-rule="evenodd" clip-rule="evenodd" d="M17.8575 35.7752C17.8459 35.763 17.8387 35.7496 17.8265 35.7374L15.9435 33.8421L46.4708 7.35471C47.4459 7.52307 48.2247 8.27947 48.4308 9.24754L17.8575 35.7752ZM14.095 39.0399H12.1211V37.1593L14.1029 35.4397L16.0199 37.3698L14.095 39.0399ZM46.0605 4.87994H45.6102L9.69685 36.0412V41.4799H14.9956L50.909 10.3193V9.75994C50.909 7.06923 48.7338 4.87994 46.0605 4.87994V4.87994Z" fill="white"/>
</svg>
