<svg width="80" height="61" viewBox="0 0 80 61" fill="none" xmlns="http://www.w3.org/2000/svg">
<path fill-rule="evenodd" clip-rule="evenodd" d="M73.9394 19.52H15.7576C15.0885 19.52 14.5455 20.0666 14.5455 20.74C14.5455 21.4134 15.0885 21.96 15.7576 21.96H73.9394C75.9448 21.96 77.5758 23.6015 77.5758 25.62V29.28H73.0303L64.5455 58.56H15.4545L6.9697 29.28H2.42424V25.62C2.42424 23.6015 4.05515 21.96 6.06061 21.96H12.1212V10.98C12.1212 6.2708 15.9273 2.44 20.6061 2.44H59.3939C64.0727 2.44 67.8788 6.2708 67.8788 10.98V15.86C67.8788 16.5334 68.4218 17.08 69.0909 17.08C69.76 17.08 70.303 16.5334 70.303 15.86V10.98C70.303 4.92575 65.4091 0 59.3939 0H20.6061C14.5909 0 9.69697 4.92575 9.69697 10.98V19.52H6.06061C2.71879 19.52 0 22.2565 0 25.62V31.72H5.15152L13.6364 61H66.3636L74.8485 31.72H80V25.62C80 22.2565 77.2812 19.52 73.9394 19.52Z" fill="white"/>
<path fill-rule="evenodd" clip-rule="evenodd" d="M31.5152 50.02V30.5C31.5152 29.8266 30.9721 29.28 30.303 29.28C29.6339 29.28 29.0909 29.8266 29.0909 30.5V50.02C29.0909 50.6935 29.6339 51.24 30.303 51.24C30.9721 51.24 31.5152 50.6935 31.5152 50.02Z" fill="white"/>
<path fill-rule="evenodd" clip-rule="evenodd" d="M21.8182 50.02V30.5C21.8182 29.8266 21.2751 29.28 20.6061 29.28C19.937 29.28 19.3939 29.8266 19.3939 30.5V50.02C19.3939 50.6935 19.937 51.24 20.6061 51.24C21.2751 51.24 21.8182 50.6935 21.8182 50.02Z" fill="white"/>
<path fill-rule="evenodd" clip-rule="evenodd" d="M41.2121 50.02V30.5C41.2121 29.8266 40.6691 29.28 40 29.28C39.3309 29.28 38.7879 29.8266 38.7879 30.5V50.02C38.7879 50.6935 39.3309 51.24 40 51.24C40.6691 51.24 41.2121 50.6935 41.2121 50.02Z" fill="white"/>
<path fill-rule="evenodd" clip-rule="evenodd" d="M50.9091 50.02V30.5C50.9091 29.8266 50.3661 29.28 49.697 29.28C49.0279 29.28 48.4848 29.8266 48.4848 30.5V50.02C48.4848 50.6935 49.0279 51.24 49.697 51.24C50.3661 51.24 50.9091 50.6935 50.9091 50.02Z" fill="white"/>
<path fill-rule="evenodd" clip-rule="evenodd" d="M60.6061 50.02V30.5C60.6061 29.8266 60.063 29.28 59.3939 29.28C58.7249 29.28 58.1818 29.8266 58.1818 30.5V50.02C58.1818 50.6935 58.7249 51.24 59.3939 51.24C60.063 51.24 60.6061 50.6935 60.6061 50.02Z" fill="white"/>
<path fill-rule="evenodd" clip-rule="evenodd" d="M46.0606 15.86C46.0606 16.5334 46.6036 17.08 47.2727 17.08H58.1818V14.64C58.1818 9.93081 54.3758 6.1 49.697 6.1C45.0182 6.1 41.2121 9.93081 41.2121 14.64H39.537L37.5758 10.6921V4.88H23.0303V10.6921L19.857 17.08H33.9394C34.6085 17.08 35.1515 16.5334 35.1515 15.86C35.1515 15.1866 34.6085 14.64 33.9394 14.64H23.7794L25.4545 11.2679V7.32H35.1515V11.2679L38.0388 17.08H43.6364V14.64C43.6364 11.2765 46.3551 8.54 49.697 8.54C53.0388 8.54 55.7576 11.2765 55.7576 14.64H47.2727C46.6036 14.64 46.0606 15.1866 46.0606 15.86Z" fill="white"/>
</svg>
