<svg width="80" height="61" viewBox="0 0 80 61" fill="none" xmlns="http://www.w3.org/2000/svg">
<path fill-rule="evenodd" clip-rule="evenodd" d="M32.7273 48.8H27.677L18.7552 42.065C18.4388 38.9991 15.8564 36.6 12.7273 36.6H7.27273V42.7C7.27273 43.3734 7.81576 43.92 8.48485 43.92C9.15394 43.92 9.69697 43.3734 9.69697 42.7V39.04H12.7273C14.683 39.04 16.2782 40.6028 16.3564 42.5517L11.8703 47.067C11.397 47.5434 11.397 48.3162 11.8703 48.792C12.1067 49.0306 12.417 49.1495 12.7273 49.1495C13.0376 49.1495 13.3479 49.0306 13.5842 48.792L17.8879 44.4604L20.6776 46.5662L16.3715 50.9008C15.8976 51.3772 15.8976 52.1495 16.3715 52.6259C16.6079 52.8644 16.9182 52.9834 17.2285 52.9834C17.5382 52.9834 17.8491 52.8644 18.0855 52.6259L22.6364 48.0454L26.8685 51.24H32.7273C33.3958 51.24 33.9394 51.7871 33.9394 52.46C33.9394 55.8235 31.2206 58.56 27.8788 58.56H2.42424V43.92H3.63636C4.30545 43.92 4.84848 43.3734 4.84848 42.7C4.84848 42.0265 4.30545 41.48 3.63636 41.48H0V61H27.8788C32.5576 61 36.3636 57.1692 36.3636 52.46C36.3636 50.4415 34.7327 48.8 32.7273 48.8Z" fill="white"/>
<path fill-rule="evenodd" clip-rule="evenodd" d="M31.5152 25.62H29.0909V20.74C29.0909 15.4568 25.3642 11.0355 20.4182 9.99363C21.2915 8.9365 21.8182 7.57925 21.8182 6.1C21.8182 2.73646 19.0994 0 15.7576 0C12.4158 0 9.69697 2.73646 9.69697 6.1C9.69697 6.77344 10.24 7.32 10.9091 7.32C11.5782 7.32 12.1212 6.77344 12.1212 6.1C12.1212 4.08151 13.7521 2.44 15.7576 2.44C17.763 2.44 19.3939 4.08151 19.3939 6.1C19.3939 8.11849 17.763 9.76 15.7576 9.76H13.3333C12.4109 9.76 11.4933 9.87651 10.6067 10.1059C5.78909 11.3539 2.42424 15.727 2.42424 20.74V21.96C2.42424 22.6334 2.96727 23.18 3.63636 23.18C4.30545 23.18 4.84848 22.6334 4.84848 21.96V20.74C4.84848 16.8403 7.46485 13.4395 11.2115 12.469C11.9006 12.2903 12.6145 12.2 13.3333 12.2H18.1818C22.8606 12.2 26.6667 16.0308 26.6667 20.74V28.06H29.0909V31.72H2.42424V28.06H23.0303C23.6994 28.06 24.2424 27.5134 24.2424 26.84C24.2424 26.1666 23.6994 25.62 23.0303 25.62H0V34.16H31.5152V25.62Z" fill="white"/>
<path fill-rule="evenodd" clip-rule="evenodd" d="M64.2424 0H63.0303V4.88C63.0303 6.89849 61.3994 8.54 59.3939 8.54H58.1818V20.74C58.1818 21.4134 58.7248 21.96 59.3939 21.96C60.063 21.96 60.6061 21.4134 60.6061 20.74V10.8574C63.3691 10.2907 65.4545 7.82569 65.4545 4.88V2.4949C72.2412 3.11344 77.5758 8.87123 77.5758 15.86V19.52H71.5152V58.56H41.2121V19.52H35.1515V15.86C35.1515 8.87123 40.4861 3.11344 47.2727 2.4949V4.88C47.2727 8.24354 49.9915 10.98 53.3333 10.98H54.5455C55.2145 10.98 55.7576 10.4334 55.7576 9.76C55.7576 9.08656 55.2145 8.54 54.5455 8.54H53.3333C51.3279 8.54 49.697 6.89849 49.697 4.88V0H48.4848C39.7964 0 32.7273 7.11504 32.7273 15.86V21.96H38.7879V61H73.9394V21.96H80V15.86C80 7.11504 72.9309 0 64.2424 0Z" fill="white"/>
</svg>
