<svg width="80" height="61" viewBox="0 0 80 61" fill="none" xmlns="http://www.w3.org/2000/svg">
<path fill-rule="evenodd" clip-rule="evenodd" d="M48.4848 50.02H47.2727V51.24C47.2727 51.9128 46.7291 52.46 46.0606 52.46H33.9394C33.2709 52.46 32.7273 51.9128 32.7273 51.24V50.02H31.5151C28.1733 50.02 25.4545 52.7564 25.4545 56.12V59.78C25.4545 60.4534 25.9976 61 26.6667 61C27.3357 61 27.8788 60.4534 27.8788 59.78V56.12C27.8788 54.4352 29.0157 53.012 30.5588 52.5881C31.0933 53.9411 32.4073 54.9 33.9394 54.9H46.0606C47.5927 54.9 48.9066 53.9411 49.4412 52.5881C50.9842 53.012 52.1212 54.4352 52.1212 56.12V59.78C52.1212 60.4534 52.6642 61 53.3333 61C54.0024 61 54.5454 60.4534 54.5454 59.78V56.12C54.5454 52.7564 51.8267 50.02 48.4848 50.02Z" fill="white"/>
<path fill-rule="evenodd" clip-rule="evenodd" d="M44.8485 0C44.1794 0 43.6364 0.54656 43.6364 1.22C43.6364 1.89344 44.1794 2.44 44.8485 2.44H77.5758V58.56H59.3939C59.3939 49.815 52.3248 42.7 43.6364 42.7H36.3636C27.6752 42.7 20.6061 49.815 20.6061 58.56H2.42424V2.44H35.1515C35.8206 2.44 36.3636 1.89344 36.3636 1.22C36.3636 0.54656 35.8206 0 35.1515 0H0V61H23.0303V58.56C23.0303 51.1601 29.0115 45.14 36.3636 45.14H43.6364C50.9885 45.14 56.9697 51.1601 56.9697 58.56V61H80V0H44.8485Z" fill="white"/>
<path fill-rule="evenodd" clip-rule="evenodd" d="M40.0583 8.4968L39.7692 8.49314C36.931 8.45471 34.2468 9.53868 32.2232 11.5474C30.2001 13.5555 29.0862 16.2365 29.0862 19.0962V19.5311C29.0862 23.0002 30.4286 26.2624 32.8662 28.7159C33.5522 29.4064 33.9298 30.3238 33.9298 31.3004V32.9401H41.2122V24.2415L44.5565 20.3143C44.9922 19.8025 44.9335 19.0321 44.4256 18.5935C43.9171 18.1555 43.1516 18.2147 42.7159 18.7259L40.0001 21.9156L37.2838 18.7259C36.8486 18.2147 36.0832 18.1549 35.5747 18.5935C35.0668 19.0321 35.008 19.8025 35.4432 20.3143L38.788 24.2415V30.5001H36.3025C36.131 29.1752 35.5347 27.9509 34.5801 26.9908C32.6007 24.9979 31.5104 22.3487 31.5104 19.5311V19.0962C31.5104 16.8947 32.368 14.831 33.925 13.2847C35.4838 11.7377 37.5535 10.9057 39.7383 10.9331L40.0274 10.9368C44.6777 10.9984 48.4607 14.8548 48.4607 19.5329V19.791C48.4607 22.4408 47.4347 24.9326 45.5728 26.8072L45.3747 27.006C44.2413 28.1467 43.6171 29.6644 43.6171 31.2785V37.8116H35.1516C34.4819 37.8116 33.9395 38.3575 33.9395 39.0316C33.9395 39.705 34.4819 40.2516 35.1516 40.2516H46.0413V31.2785C46.0413 30.3165 46.4128 29.4119 47.0892 28.7317L47.2868 28.5323C49.6068 26.1972 50.885 23.0929 50.885 19.791V19.5329C50.885 13.5269 46.0286 8.5761 40.0583 8.4968Z" fill="white"/>
<path fill-rule="evenodd" clip-rule="evenodd" d="M35.1515 36.6H40C40.6691 36.6 41.2121 36.0534 41.2121 35.38C41.2121 34.7066 40.6691 34.16 40 34.16H35.1515C34.4824 34.16 33.9394 34.7066 33.9394 35.38C33.9394 36.0534 34.4824 36.6 35.1515 36.6Z" fill="white"/>
<path fill-rule="evenodd" clip-rule="evenodd" d="M40 6.1C40.6691 6.1 41.2121 5.55344 41.2121 4.88V1.22C41.2121 0.54656 40.6691 0 40 0C39.3309 0 38.7879 0.54656 38.7879 1.22V4.88C38.7879 5.55344 39.3309 6.1 40 6.1Z" fill="white"/>
<path fill-rule="evenodd" clip-rule="evenodd" d="M51.2642 4.0174L48.8399 6.4574C48.3666 6.93381 48.3666 7.70607 48.8399 8.18248C49.0763 8.42099 49.3866 8.53994 49.6969 8.53994C50.0072 8.53994 50.3175 8.42099 50.5539 8.18248L52.9781 5.74248C53.4514 5.26607 53.4514 4.49381 52.9781 4.0174C52.5054 3.54099 51.7369 3.54099 51.2642 4.0174Z" fill="white"/>
<path fill-rule="evenodd" clip-rule="evenodd" d="M30.303 8.54C30.6133 8.54 30.9236 8.42105 31.16 8.18254C31.6333 7.70613 31.6333 6.93387 31.16 6.45746L28.7357 4.01746C28.263 3.54105 27.4945 3.54105 27.0218 4.01746C26.5485 4.49387 26.5485 5.26613 27.0218 5.74254L29.4461 8.18254C29.6824 8.42105 29.9927 8.54 30.303 8.54Z" fill="white"/>
<path fill-rule="evenodd" clip-rule="evenodd" d="M52.1212 14.64C52.1212 15.3135 52.6642 15.86 53.3333 15.86H56.9697C57.6388 15.86 58.1818 15.3135 58.1818 14.64C58.1818 13.9666 57.6388 13.42 56.9697 13.42H53.3333C52.6642 13.42 52.1212 13.9666 52.1212 14.64Z" fill="white"/>
<path fill-rule="evenodd" clip-rule="evenodd" d="M23.0303 13.42C22.3612 13.42 21.8182 13.9666 21.8182 14.64C21.8182 15.3135 22.3612 15.86 23.0303 15.86H26.6667C27.3358 15.86 27.8788 15.3135 27.8788 14.64C27.8788 13.9666 27.3358 13.42 26.6667 13.42H23.0303Z" fill="white"/>
</svg>
