<svg xmlns="http://www.w3.org/2000/svg" width="320" height="183" viewBox="0 0 320 183"><defs><mask id="rejeb" width="2" height="2" x="-1" y="-1"><path fill="#fff" d="M12 6h296v161H12z"/><path d="M12 21a3 3 0 0 1 3-3h132.967l12-12 12 12H305a3 3 0 0 1 3 3v143a3 3 0 0 1-3 3H15a3 3 0 0 1-3-3z"/></mask><filter id="rejea" width="348" height="217" x="-14" y="-20" filterUnits="userSpaceOnUse"><feOffset dy="4" in="SourceGraphic" result="FeOffset1506Out"/><feGaussianBlur in="FeOffset1506Out" result="FeGaussianBlur1507Out" stdDeviation="6.4 6.4"/></filter><mask id="rejed" width="2.01" height="2.01" x="-1" y="-1.01"><path fill="#fff" d="M11 5h298v163H11z"/><path d="M12 21a3 3 0 0 1 3-3h132.967l12-12 12 12H305a3 3 0 0 1 3 3v143a3 3 0 0 1-3 3H15a3 3 0 0 1-3-3z"/></mask><filter id="rejec" width="318" height="183" x="1" y="-5" filterUnits="userSpaceOnUse"><feOffset in="SourceGraphic" result="FeOffset1517Out"/><feGaussianBlur in="FeOffset1517Out" result="FeGaussianBlur1518Out" stdDeviation="0 0"/></filter></defs><g><g><g filter="url(#rejea)"><path fill="none" d="M12 21a3 3 0 0 1 3-3h132.967l12-12 12 12H305a3 3 0 0 1 3 3v143a3 3 0 0 1-3 3H15a3 3 0 0 1-3-3z" mask="url(&quot;#rejeb&quot;)"/><path fill="#001a34" fill-opacity=".1" d="M12 21a3 3 0 0 1 3-3h132.967l12-12 12 12H305a3 3 0 0 1 3 3v143a3 3 0 0 1-3 3H15a3 3 0 0 1-3-3z"/></g><g filter="url(#rejec)"><path fill="none" stroke="#001a34" stroke-opacity=".03" stroke-width="2" d="M12 21a3 3 0 0 1 3-3h132.967l12-12 12 12H305a3 3 0 0 1 3 3v143a3 3 0 0 1-3 3H15a3 3 0 0 1-3-3z" mask="url(&quot;#rejed&quot;)"/><path fill="#001a34" fill-opacity=".03" d="M12 21a3 3 0 0 1 3-3h132.967l12-12 12 12H305a3 3 0 0 1 3 3v143a3 3 0 0 1-3 3H15a3 3 0 0 1-3-3z"/></g><path fill="#fff" d="M12 21a3 3 0 0 1 3-3h132.967l12-12 12 12H305a3 3 0 0 1 3 3v143a3 3 0 0 1-3 3H15a3 3 0 0 1-3-3z"/></g></g></svg>