<svg xmlns="http://www.w3.org/2000/svg" width="320" height="132" viewBox="0 0 320 132"><defs><mask id="97twb" width="2" height="2" x="-1" y="-1"><path fill="#fff" d="M12 6h296v110H12z"/><path d="M12 21a3 3 0 0 1 3-3h132.967l12-12 12 12H305a3 3 0 0 1 3 3v92a3 3 0 0 1-3 3H15a3 3 0 0 1-3-3z"/></mask><filter id="97twa" width="348" height="166" x="-14" y="-20" filterUnits="userSpaceOnUse"><feOffset dy="4" in="SourceGraphic" result="FeOffset1475Out"/><feGaussianBlur in="FeOffset1475Out" result="FeGaussianBlur1476Out" stdDeviation="6.4 6.4"/></filter><mask id="97twd" width="2.01" height="2.02" x="-1" y="-1.01"><path fill="#fff" d="M11 5h298v112H11z"/><path d="M12 21a3 3 0 0 1 3-3h132.967l12-12 12 12H305a3 3 0 0 1 3 3v92a3 3 0 0 1-3 3H15a3 3 0 0 1-3-3z"/></mask><filter id="97twc" width="318" height="132" x="1" y="-5" filterUnits="userSpaceOnUse"><feOffset in="SourceGraphic" result="FeOffset1486Out"/><feGaussianBlur in="FeOffset1486Out" result="FeGaussianBlur1487Out" stdDeviation="0 0"/></filter></defs><g><g><g filter="url(#97twa)"><path fill="none" d="M12 21a3 3 0 0 1 3-3h132.967l12-12 12 12H305a3 3 0 0 1 3 3v92a3 3 0 0 1-3 3H15a3 3 0 0 1-3-3z" mask="url(&quot;#97twb&quot;)"/><path fill="#001a34" fill-opacity=".1" d="M12 21a3 3 0 0 1 3-3h132.967l12-12 12 12H305a3 3 0 0 1 3 3v92a3 3 0 0 1-3 3H15a3 3 0 0 1-3-3z"/></g><g filter="url(#97twc)"><path fill="none" stroke="#001a34" stroke-opacity=".03" stroke-width="2" d="M12 21a3 3 0 0 1 3-3h132.967l12-12 12 12H305a3 3 0 0 1 3 3v92a3 3 0 0 1-3 3H15a3 3 0 0 1-3-3z" mask="url(&quot;#97twd&quot;)"/><path fill="#001a34" fill-opacity=".03" d="M12 21a3 3 0 0 1 3-3h132.967l12-12 12 12H305a3 3 0 0 1 3 3v92a3 3 0 0 1-3 3H15a3 3 0 0 1-3-3z"/></g><path fill="#fff" d="M12 21a3 3 0 0 1 3-3h132.967l12-12 12 12H305a3 3 0 0 1 3 3v92a3 3 0 0 1-3 3H15a3 3 0 0 1-3-3z"/></g></g></svg>