<svg xmlns="http://www.w3.org/2000/svg" width="282" height="241" viewBox="0 0 282 241"><g><g transform="rotate(-4 -137.495 91.977)"><path fill="#fff" d="M35.913 156.595L5.516 206.688l66.678-23.458 13.37 53.532 49.637-40.082 32.534 38.08 44.071-56.482 50.748 44.925-21.014-72.972 37.993-42.406-67.605-33.664.072-60.738-62.028 48.66L118.41 12.89l-16.78 67.051-68.114-34.048 14.793 57.833L.85 112.908z"/></g><g transform="rotate(-4 -129.294 82.042)"><path fill="#f91155" d="M39.827 148.33L11.68 196.167l55.704-15.84L75.11 236.6l60.047-40.01 34.969 27.393 34.796-48.522 61.616 39.375-21.02-72.86 38.004-42.34-67.626-33.61.071-60.645-62.046 48.584-31.61-35.623-16.746 53.455-72.289-27.511 18.95 51.259L.52 112.75z"/></g></g></svg>