<svg width="25" height="24" fill="none" xmlns="http://www.w3.org/2000/svg"><g clip-path="url(#clip0)"><path d="M20.792 4.006v.001c.153.285.283.583.283 1.838v12.31c0 1.254-.13 1.554-.283 1.84v.002a1.726 1.726 0 0 1-.72.718h0l-.004.003c-.285.152-.583.282-1.838.282H5.919c-1.254 0-1.554-.13-1.84-.283h-.002a1.726 1.726 0 0 1-.718-.72l-.002-.005c-.152-.283-.282-.582-.282-1.837V5.844c0-1.254.13-1.554.283-1.84v-.002a1.73 1.73 0 0 1 .72-.718h0l.005-.002C4.366 3.13 4.665 3 5.92 3h12.309c1.253 0 1.554.13 1.84.282.315.169.555.41.723.724z" stroke="#D6DBE0" stroke-width="2"/></g><defs><clipPath id="clip0"/></defs></svg>