<svg width="25" height="24" fill="none" xmlns="http://www.w3.org/2000/svg"><path d="M6.08 2h12.25c1.331 0 1.814.14 2.3.4.489.262.87.646 1.13 1.135.26.489.399.974.399 2.31v12.31c0 1.336-.14 1.821-.398 2.31a2.72 2.72 0 0 1-1.13 1.134c-.487.262-.97.401-2.3.401H6.078c-1.33 0-1.813-.14-2.3-.4a2.72 2.72 0 0 1-1.128-1.136c-.26-.489-.4-.974-.4-2.31V5.844c0-1.336.14-1.821.399-2.31A2.72 2.72 0 0 1 3.78 2.4c.485-.261.968-.4 2.298-.4z" fill="#005BFF"/><path d="M17.474 7.293l-7.26 7.293-3.277-3.293a.994.994 0 0 0-1.711.703 1.004 1.004 0 0 0 .303.711l4.685 4.707 8.667-8.707a1 1 0 0 0-1.084-1.638.996.996 0 0 0-.323.224z" fill="#fff"/></svg>