<svg width="24" height="24" fill="none" xmlns="http://www.w3.org/2000/svg"><path d="M12 1.5c1.854 0 3.64.482 5.215 1.385a1 1 0 1 1-.994 1.735A8.456 8.456 0 0 0 12 3.5a8.5 8.5 0 1 0 8.5 8.5 8.456 8.456 0 0 0-1.113-4.21 1 1 0 1 1 1.736-.991A10.454 10.454 0 0 1 22.5 12c0 5.799-4.701 10.5-10.5 10.5S1.5 17.799 1.5 12 6.201 1.5 12 1.5zM12 7c.552 0 1 .427 1 .954l-.001 3.045 3.047.001c.527 0 .954.448.954 1s-.427 1-.954 1L13 12.999v3.047c0 .527-.448.954-1 .954s-1-.427-1-.954L10.999 13H7.954C7.427 13 7 12.552 7 12s.427-1 .954-1l3.045-.001L11 7.954c0-.527.448-.954 1-.954z" fill="#005BFF"/></svg>