<svg width="129" height="28" fill="none" xmlns="http://www.w3.org/2000/svg"><path fill-rule="evenodd" clip-rule="evenodd" d="M.07 15.428C-.803 6.574 6.577-.806 15.43.07c6.552.65 11.851 5.949 12.5 12.5.875 8.856-6.504 16.235-15.358 15.358C6.019 27.279.72 21.98.07 15.428zm6.524-2.402c-.62 4.878 3.502 9 8.38 8.38 3.324-.422 6.009-3.107 6.433-6.434.62-4.878-3.502-9-8.38-8.38-3.326.425-6.011 3.11-6.433 6.434z" fill="#005BFF"/><path fill-rule="evenodd" clip-rule="evenodd" d="M.07 15.428C-.803 6.574 6.577-.806 15.43.07c6.552.65 11.851 5.949 12.5 12.5.875 8.856-6.504 16.235-15.358 15.358C6.019 27.279.72 21.98.07 15.428zm6.524-2.402c-.62 4.878 3.502 9 8.38 8.38 3.324-.422 6.009-3.107 6.433-6.434.62-4.878-3.502-9-8.38-8.38-3.326.425-6.011 3.11-6.433 6.434z" fill="#fff"/><path d="M35.443.625a3.271 3.271 0 0 0-3.2 3.942c.308 1.54 1.753 2.59 3.322 2.59h9.119l-14.19 18.72a.932.932 0 0 0 .742 1.495h22.257c1.569 0 3.014-1.052 3.321-2.59a3.27 3.27 0 0 0-3.2-3.941H42.506l14.18-18.705a.943.943 0 0 0-.751-1.51h-20.49z" fill="#005BFF"/><path d="M35.443.625a3.271 3.271 0 0 0-3.2 3.942c.308 1.54 1.753 2.59 3.322 2.59h9.119l-14.19 18.72a.932.932 0 0 0 .742 1.495h22.257c1.569 0 3.014-1.052 3.321-2.59a3.27 3.27 0 0 0-3.2-3.941H42.506l14.18-18.705a.943.943 0 0 0-.751-1.51h-20.49z" fill="#fff"/><path d="M124.381.7c-1.516.318-2.555 1.73-2.555 3.279v10.879L104.147.832a.94.94 0 0 0-1.524.737v22.46c0 1.549 1.042 2.962 2.555 3.28a3.271 3.271 0 0 0 3.977-3.192V13.143l17.678 14.025a.94.94 0 0 0 1.524-.737V3.891A3.27 3.27 0 0 0 124.381.7z" fill="#005BFF"/><path d="M124.381.7c-1.516.318-2.555 1.73-2.555 3.279v10.879L104.147.832a.94.94 0 0 0-1.524.737v22.46c0 1.549 1.042 2.962 2.555 3.28a3.271 3.271 0 0 0 3.977-3.192V13.143l17.678 14.025a.94.94 0 0 0 1.524-.737V3.891A3.27 3.27 0 0 0 124.381.7z" fill="#fff"/><path fill-rule="evenodd" clip-rule="evenodd" d="M58.752 13.996C58.752 6.266 67.526 0 78.35 0c10.823 0 19.597 6.267 19.597 13.996 0 7.73-8.774 13.997-19.597 13.997-10.824 0-19.598-6.267-19.598-13.997zm32.663 0c0-3.525-5.588-7.464-13.066-7.464-7.478 0-13.066 3.941-13.066 7.464 0 3.526 5.588 7.465 13.066 7.465 7.478 0 13.066-3.942 13.066-7.465z" fill="#005BFF"/><path fill-rule="evenodd" clip-rule="evenodd" d="M58.752 13.996C58.752 6.266 67.526 0 78.35 0c10.823 0 19.597 6.267 19.597 13.996 0 7.73-8.774 13.997-19.597 13.997-10.824 0-19.598-6.267-19.598-13.997zm32.663 0c0-3.525-5.588-7.464-13.066-7.464-7.478 0-13.066 3.941-13.066 7.464 0 3.526 5.588 7.465 13.066 7.465 7.478 0 13.066-3.942 13.066-7.465z" fill="#fff"/></svg>