<?xml version="1.0" encoding="utf-8"?>
<!-- Generator: Adobe Illustrator 22.0.0, SVG Export Plug-In . SVG Version: 6.00 Build 0)  -->
<svg version="1.1" id="Слой_1" xmlns="http://www.w3.org/2000/svg" xmlns:xlink="http://www.w3.org/1999/xlink" x="0px" y="0px"
	 viewBox="0 0 100 80" style="enable-background:new 0 0 100 80;" xml:space="preserve">
<style type="text/css">
	.st0{fill:#FFFFFF;filter:url(#Adobe_OpacityMaskFilter);}
	.st1{mask:url(#mask0_1_);}
	.st2{fill:#666666;}
</style>
<defs>
	<filter id="Adobe_OpacityMaskFilter" filterUnits="userSpaceOnUse" x="25.5" y="8" width="48.8" height="64">
		<feColorMatrix  type="matrix" values="1 0 0 0 0  0 1 0 0 0  0 0 1 0 0  0 0 0 1 0"/>
	</filter>
</defs>
<mask maskUnits="userSpaceOnUse" x="25.5" y="8" width="48.8" height="64" id="mask0_1_">
	<path class="st0" d="M25.5,8h48.8v64H25.5V8z"/>
</mask>
<g class="st1">
	<path class="st2" d="M67.9,8c-0.7,0-1.3,0.6-1.3,1.3c0,0.7,0.6,1.3,1.3,1.3h3.9v2.6h-5.1V40c0,4.9-4,9-9,9h-3.9v6.4
		c0,3.5,2.9,6.4,6.4,6.4h3.9v7.7H35.8v-7.7h3.9c3.5,0,6.4-2.9,6.4-6.4V49h-3.9c-5,0-9-4-9-9V13.1h-5.1v-2.6h34.7
		c0.7,0,1.3-0.6,1.3-1.3c0-0.7-0.6-1.3-1.3-1.3H25.5v7.7h5.1V40c0,6.4,5.2,11.5,11.6,11.5h1.3v3.8c0,2.1-1.7,3.8-3.9,3.8h-6.4V72
		h33.4V59.2h-6.4c-2.1,0-3.9-1.7-3.9-3.8v-3.8h1.3c6.4,0,11.6-5.2,11.6-11.5V15.7h5.1V8H67.9z"/>
</g>
<path class="st2" d="M64.5,15c0-0.6-0.6-1-1.3-1H37.8c-0.7,0-1.3,0.4-1.3,1s0.6,1,1.3,1h25.5C63.9,16,64.5,15.6,64.5,15z"/>
<path class="st2" d="M38.5,65c0,0.6,0.6,1,1.3,1h21.3c0.7,0,1.3-0.4,1.3-1c0-0.6-0.6-1-1.3-1H39.8C39.1,64,38.5,64.4,38.5,65z"/>
<path class="st2" d="M55.3,40.2L51,38l-4.3,2.3l0.8-4.8L44.1,32l4.8-0.7l2.1-4.4l2.1,4.4l4.8,0.7l-3.5,3.4L55.3,40.2z M54.9,28.9
	L51,21l-3.9,7.9l-8.6,1.3l6.2,6.1L43.3,45l7.7-4.1l7.7,4.1l-1.5-8.7l6.3-6.1L54.9,28.9z"/>
</svg>
