<svg width="42" height="55" viewBox="0 0 42 55" fill="none" xmlns="http://www.w3.org/2000/svg">
<mask id="mask0" mask-type="alpha" maskUnits="userSpaceOnUse" x="0" y="0" width="42" height="55">
<path fill-rule="evenodd" clip-rule="evenodd" d="M0 0H41.8622V55H0V0Z" fill="white"/>
</mask>
<g mask="url(#mask0)">
<path fill-rule="evenodd" clip-rule="evenodd" d="M36.354 0C35.7454 0 35.2524 0.49225 35.2524 1.1C35.2524 1.70706 35.7454 2.2 36.354 2.2H39.659V4.4H35.2524V27.5C35.2524 31.746 31.7933 35.2 27.5409 35.2H24.236V40.7C24.236 43.7326 26.7071 46.2 29.7442 46.2H33.0491V52.8H8.81305V46.2H12.118C15.1557 46.2 17.6262 43.7326 17.6262 40.7V35.2H14.3213C10.0689 35.2 6.60978 31.746 6.60978 27.5V4.4H2.20322V2.2H31.9482C32.5554 2.2 33.0491 1.70706 33.0491 1.1C33.0491 0.49225 32.5554 0 31.9482 0H-6.10352e-05V6.6H4.40719V27.5C4.40719 32.9587 8.85437 37.4 14.3213 37.4H15.4236V40.7C15.4236 42.5198 13.9405 44 12.118 44H6.60978V55H35.2524V44H29.7442C27.9217 44 26.44 42.5198 26.44 40.7V37.4H27.5409C33.0085 37.4 37.4564 32.9587 37.4564 27.5V6.6H41.8622V0H36.354Z" fill="#666666"/>
</g>
<path fill-rule="evenodd" clip-rule="evenodd" d="M33 6C33 5.4475 32.5111 5 31.9091 5H10.0909C9.48886 5 9 5.4475 9 6C9 6.5525 9.48886 7 10.0909 7H31.9091C32.5111 7 33 6.5525 33 6Z" fill="#666666"/>
<path fill-rule="evenodd" clip-rule="evenodd" d="M11 49C11 49.5525 11.5228 50 12.1667 50H30.8333C31.4779 50 32 49.5525 32 49C32 48.4475 31.4779 48 30.8333 48H12.1667C11.5228 48 11 48.4475 11 49Z" fill="#666666"/>
<path fill-rule="evenodd" clip-rule="evenodd" d="M25.105 27.8257L21.5 25.8327L17.8944 27.8257L18.5832 23.605L15.6664 20.6159L19.6968 20.0001L21.5 16.159L23.3025 20.0001L27.333 20.6159L24.4161 23.605L25.105 27.8257ZM24.7446 17.9122L21.5 11L18.2547 17.9122L11 19.0211L16.2493 24.402L15.0101 32L21.5 28.4129L27.9892 32L26.75 24.402L32 19.0211L24.7446 17.9122Z" fill="#666666"/>
</svg>
