<svg width="70" height="53" viewBox="0 0 70 53" fill="none" xmlns="http://www.w3.org/2000/svg">
<path fill-rule="evenodd" clip-rule="evenodd" d="M39.0945 30.6416C39.0945 30.0578 38.621 29.585 38.0379 29.585H33.8115V43.3208C33.8115 45.0688 32.3897 46.4906 30.6416 46.4906H22.1888C20.4408 46.4906 19.019 45.0688 19.019 43.3208V34.868C19.019 33.12 20.4408 31.6982 22.1888 31.6982H30.6416C31.2248 31.6982 31.6982 31.2253 31.6982 30.6416C31.6982 30.0578 31.2248 29.585 30.6416 29.585H22.1888C19.2752 29.585 16.9058 31.9551 16.9058 34.868V43.3208C16.9058 46.2337 19.2752 48.6038 22.1888 48.6038H30.6416C33.5546 48.6038 35.9247 46.2337 35.9247 43.3208V31.6982H38.0379C38.621 31.6982 39.0945 31.2253 39.0945 30.6416Z" fill="#666666"/>
<path fill-rule="evenodd" clip-rule="evenodd" d="M20.0754 13.7358C20.0754 13.152 19.6026 12.6792 19.0188 12.6792C18.4357 12.6792 17.9622 13.152 17.9622 13.7358C17.9622 14.3196 18.4357 14.7924 19.0188 14.7924C19.6026 14.7924 20.0754 14.3196 20.0754 13.7358Z" fill="#666666"/>
<path fill-rule="evenodd" clip-rule="evenodd" d="M11.6227 13.7358C11.6227 14.3196 12.0955 14.7924 12.6793 14.7924C13.2624 14.7924 13.7359 14.3196 13.7359 13.7358C13.7359 13.152 13.2624 12.6792 12.6793 12.6792C12.0955 12.6792 11.6227 13.152 11.6227 13.7358Z" fill="#666666"/>
<mask id="mask0" mask-type="alpha" maskUnits="userSpaceOnUse" x="0" y="4" width="26" height="37">
<path fill-rule="evenodd" clip-rule="evenodd" d="M0 4.22644H25.3584V40.151H0V4.22644Z" fill="white"/>
</mask>
<g mask="url(#mask0)">
<path fill-rule="evenodd" clip-rule="evenodd" d="M8.45269 20.0755V13.7359C8.45269 11.9879 9.87449 10.5661 11.6225 10.5661H11.8827C14.3584 10.5661 16.4221 8.76521 16.8316 6.40437C20.4471 6.88644 23.2451 9.99087 23.2451 13.7359V15.8491C23.2451 16.4322 23.7186 16.9057 24.3018 16.9057C24.8855 16.9057 25.3584 16.4322 25.3584 15.8491V13.7359C25.3584 8.49248 21.093 4.22644 15.8489 4.22644H14.7923V5.54323C14.7923 7.14729 13.4874 8.45286 11.8827 8.45286H11.6225C8.70958 8.45286 6.33949 10.8229 6.33949 13.7359V20.0755C6.33949 23.7947 9.09986 26.8827 12.6791 27.3964V29.5849H9.5093C4.2659 29.5849 -0.000137329 33.851 -0.000137329 39.0944V40.151H13.7357C14.3195 40.151 14.7923 39.6781 14.7923 39.0944C14.7923 38.5112 14.3195 38.0378 13.7357 38.0378H2.18835C2.70279 34.4585 5.79005 31.6981 9.5093 31.6981H14.7923V25.3585H13.7357C10.8228 25.3585 8.45269 22.9884 8.45269 20.0755Z" fill="#666666"/>
</g>
<path fill-rule="evenodd" clip-rule="evenodd" d="M17.9624 20.0755C17.9624 19.4918 17.4889 19.0189 16.9058 19.0189H14.7926C14.2088 19.0189 13.736 19.4918 13.736 20.0755C13.736 20.6593 14.2088 21.1321 14.7926 21.1321H16.9058C17.4889 21.1321 17.9624 20.6593 17.9624 20.0755Z" fill="#666666"/>
<path fill-rule="evenodd" clip-rule="evenodd" d="M3.16969 21.1322C3.75346 21.1322 4.22629 20.6594 4.22629 20.0756V13.736C4.22629 7.32701 9.44063 2.11333 15.8489 2.11333C22.2579 2.11333 27.4716 7.32701 27.4716 13.736V15.8492C27.4716 17.5972 26.0498 19.019 24.3018 19.019H23.2452V20.0756C23.2452 22.9885 20.8757 25.3586 17.9621 25.3586C17.379 25.3586 16.9055 25.8314 16.9055 26.4152C16.9055 26.9983 17.379 27.4718 17.9621 27.4718C21.7144 27.4718 24.8228 24.6632 25.2963 21.0384C27.7357 20.5715 29.5848 18.4227 29.5848 15.8492V13.736C29.5848 6.1621 23.4228 0.00012207 15.8489 0.00012207C8.27506 0.00012207 2.11308 6.1621 2.11308 13.736V20.0756C2.11308 20.6594 2.58657 21.1322 3.16969 21.1322Z" fill="#666666"/>
<path fill-rule="evenodd" clip-rule="evenodd" d="M50.2445 33.6999C51.0541 34.1047 51.9423 34.3068 52.8305 34.3068C53.7181 34.3068 54.6063 34.1047 55.4159 33.6999C55.9383 33.4384 56.1496 32.8044 55.8887 32.2827C55.6272 31.7604 54.9926 31.5484 54.4709 31.8092C53.4434 32.3237 52.217 32.3237 51.1895 31.8092C50.6678 31.5484 50.0332 31.7604 49.7717 32.2827C49.5108 32.8044 49.7221 33.4384 50.2445 33.6999Z" fill="#666666"/>
<path fill-rule="evenodd" clip-rule="evenodd" d="M57.0565 26.4151C57.0565 25.8314 56.5837 25.3585 55.9999 25.3585C55.4168 25.3585 54.9433 25.8314 54.9433 26.4151C54.9433 26.9982 55.4168 27.4717 55.9999 27.4717C56.5837 27.4717 57.0565 26.9982 57.0565 26.4151Z" fill="#666666"/>
<path fill-rule="evenodd" clip-rule="evenodd" d="M50.7168 26.4151C50.7168 25.8314 50.244 25.3585 49.6602 25.3585C49.0771 25.3585 48.6036 25.8314 48.6036 26.4151C48.6036 26.9982 49.0771 27.4717 49.6602 27.4717C50.244 27.4717 50.7168 26.9982 50.7168 26.4151Z" fill="#666666"/>
<mask id="mask1" mask-type="alpha" maskUnits="userSpaceOnUse" x="36" y="27" width="34" height="26">
<path fill-rule="evenodd" clip-rule="evenodd" d="M36.981 27.4718H69.7357V52.8302H36.981V27.4718Z" fill="white"/>
</mask>
<g mask="url(#mask1)">
<path fill-rule="evenodd" clip-rule="evenodd" d="M64.4764 42.2887L57.0564 42.2603V43.3209C57.0564 45.0682 55.6346 46.4907 53.8866 46.4907H50.7168C50.1337 46.4907 49.6602 46.9635 49.6602 47.5473C49.6602 48.1304 50.1337 48.6039 50.7168 48.6039H53.8866C56.437 48.6039 58.5707 46.7878 59.0633 44.3808L64.4672 44.4019C66.2073 44.4098 67.6225 45.8323 67.6225 47.5717V50.7171H39.0942V47.5473C39.0942 45.7993 40.516 44.3775 42.264 44.3775H51.7734V38.0378H50.7168C47.8039 38.0378 45.4338 35.6677 45.4338 32.7548V30.6416H44.3772C43.7947 30.6416 43.3206 30.1675 43.3206 29.585V28.5284C43.3206 27.9446 42.8477 27.4718 42.264 27.4718C41.6802 27.4718 41.2074 27.9446 41.2074 28.5284V29.585C41.2074 30.9626 42.091 32.1374 43.3206 32.5739V32.7548C43.3206 36.4741 46.081 39.5613 49.6602 40.0758V42.2643H42.264C39.3511 42.2643 36.981 44.6337 36.981 47.5473V52.8303H69.7357V47.5717C69.7357 44.672 67.3768 42.3019 64.4764 42.2887Z" fill="#666666"/>
</g>
<path fill-rule="evenodd" clip-rule="evenodd" d="M46.4905 24.3018C46.4905 23.1369 47.4388 22.1886 48.6037 22.1886H51.7735C53.6939 22.1886 55.3184 20.9022 55.8315 19.1456C57.1483 19.5306 58.1131 20.749 58.1131 22.1886V24.3018C58.1131 24.8856 58.586 25.3584 59.1698 25.3584C59.7529 25.3584 60.2264 24.8856 60.2264 24.3018V22.1886C60.2264 19.2757 57.8563 16.9056 54.9433 16.9056H53.8867V17.9622C53.8867 19.1278 52.9391 20.0754 51.7735 20.0754H48.6037C46.6384 20.0754 44.9815 21.4246 44.5107 23.2452H43.3207V22.1886C43.3207 18.1108 46.6384 14.7924 50.7169 14.7924H54.9433C59.0218 14.7924 62.3396 18.1108 62.3396 22.1886V29.5849C62.3396 30.1673 61.8661 30.6415 61.283 30.6415H60.2264V32.7547C60.2264 35.6676 57.8563 38.0377 54.9433 38.0377C54.3602 38.0377 53.8867 38.5112 53.8867 39.0943C53.8867 39.6781 54.3602 40.1509 54.9433 40.1509C59.0218 40.1509 62.3396 36.8332 62.3396 32.7547V32.5737C63.5698 32.1379 64.4528 30.9624 64.4528 29.5849V22.1886C64.4528 16.9452 60.1867 12.6792 54.9433 12.6792H50.7169C45.4735 12.6792 41.2075 16.9452 41.2075 22.1886V25.3584H46.4905V24.3018Z" fill="#666666"/>
<path fill-rule="evenodd" clip-rule="evenodd" d="M30.6414 35.9246H22.1886C21.6048 35.9246 21.132 36.3974 21.132 36.9812C21.132 37.5643 21.6048 38.0378 22.1886 38.0378H30.6414C31.2252 38.0378 31.698 37.5643 31.698 36.9812C31.698 36.3974 31.2252 35.9246 30.6414 35.9246Z" fill="#666666"/>
<path fill-rule="evenodd" clip-rule="evenodd" d="M30.6414 40.1509H22.1886C21.6048 40.1509 21.132 40.6237 21.132 41.2075C21.132 41.7913 21.6048 42.2641 22.1886 42.2641H30.6414C31.2252 42.2641 31.698 41.7913 31.698 41.2075C31.698 40.6237 31.2252 40.1509 30.6414 40.1509Z" fill="#666666"/>
</svg>
