<svg width="24" height="24" viewBox="0 0 24 24" fill="none" xmlns="http://www.w3.org/2000/svg">
<mask id="mask0" mask-type="alpha" maskUnits="userSpaceOnUse" x="0" y="0" width="24" height="24">
<path fill-rule="evenodd" clip-rule="evenodd" d="M0 0.52002H23.48V23.9998H0V0.52002Z" fill="white"/>
</mask>
<g mask="url(#mask0)">
<path fill-rule="evenodd" clip-rule="evenodd" d="M21.3972 17.5207C21.3972 19.9447 19.4245 21.9167 17.0005 21.9167H6.47982C4.05515 21.9174 2.08315 19.9447 2.08315 17.5207V7.00002C2.08315 4.57602 4.05515 2.60335 6.47982 2.60335H17.0005C19.4245 2.60335 21.3972 4.57602 21.3972 7.00002V17.5207ZM17.0005 0.52002H6.47982C2.90715 0.52002 -0.000183105 3.42669 -0.000183105 7.00002V17.5207C-0.000183105 21.0934 2.90715 24 6.47982 24H17.0005C20.5738 24 23.4805 21.0934 23.4805 17.5207V7.00002C23.4805 3.42669 20.5738 0.52002 17.0005 0.52002Z" fill="white"/>
</g>
<path fill-rule="evenodd" clip-rule="evenodd" d="M12 16.9339C9.83074 16.9339 8.06612 15.1693 8.06612 13C8.06612 10.8307 9.83074 9.06545 12 9.06545C14.1693 9.06545 15.9339 10.8307 15.9339 13C15.9339 15.1693 14.1686 16.9339 12 16.9339ZM12 7C8.69091 7 6 9.69157 6 13C6 16.3084 8.69091 19 12 19C15.3084 19 18 16.3084 18 13C18 9.69157 15.3084 7 12 7Z" fill="white"/>
<path fill-rule="evenodd" clip-rule="evenodd" d="M18.5003 5C18.1056 5 17.7194 5.15972 17.4405 5.43923C17.161 5.71743 17 6.1043 17 6.50033C17 6.89439 17.161 7.28126 17.4405 7.56142C17.7187 7.83897 18.1056 8 18.5003 8C18.8957 8 19.2813 7.83897 19.5608 7.56142C19.8409 7.28126 20 6.89439 20 6.50033C20 6.1043 19.8409 5.71743 19.5608 5.43923C19.2826 5.15972 18.8957 5 18.5003 5Z" fill="white"/>
</svg>
