<svg width="35" height="35" viewBox="0 0 35 35" fill="none" xmlns="http://www.w3.org/2000/svg">
<ellipse cx="17.5" cy="13.2317" rx="10.6707" ry="10.6707" fill="white"/>
<path d="M15.1388 15.1532C15.1388 14.6941 15.5109 14.3222 15.9699 14.3222H19.0302C19.4892 14.3222 19.8613 14.6941 19.8613 15.1532V18.4027H21.7698V6.80322H13.2303V18.4026H15.1388V15.1532V15.1532ZM18.5201 8.20145H20.5603C21.0193 8.20145 21.3914 8.57348 21.3914 9.03261C21.3914 9.49162 21.0193 9.86365 20.5603 9.86365H18.5201C18.0611 9.86365 17.689 9.49162 17.689 9.03261C17.6891 8.57348 18.0612 8.20145 18.5201 8.20145ZM18.5201 11.0145H20.5603C21.0193 11.0145 21.3914 11.3866 21.3914 11.8457C21.3914 12.3047 21.0193 12.6767 20.5603 12.6767H18.5201C18.0611 12.6767 17.689 12.3047 17.689 11.8457C17.6891 11.3866 18.0612 11.0145 18.5201 11.0145ZM14.4396 8.20145H16.4798C16.9388 8.20145 17.3109 8.57348 17.3109 9.03261C17.3109 9.49162 16.9388 9.86365 16.4798 9.86365H14.4396C13.9805 9.86365 13.6085 9.49162 13.6085 9.03261C13.6086 8.57348 13.9807 8.20145 14.4396 8.20145ZM13.6086 11.8457C13.6086 11.3866 13.9807 11.0145 14.4397 11.0145H16.4799C16.9389 11.0145 17.311 11.3866 17.311 11.8457C17.311 12.3047 16.9389 12.6767 16.4799 12.6767H14.4396C13.9807 12.6766 13.6086 12.3046 13.6086 11.8457Z" fill="#00426B"/>
<path d="M18.1988 15.9843H16.8005V18.4026H18.1988V15.9843Z" fill="#00426B"/>
<path d="M17.4999 0C10.101 0 4.08154 6.02106 4.08154 13.422C4.08154 16.3783 5.02407 19.1826 6.8073 21.5312C8.41317 23.6464 10.647 25.2597 13.1447 26.1193L16.3974 34.2536C16.5777 34.7043 17.0143 35 17.4999 35C17.9854 35 18.4219 34.7043 18.6023 34.2536L21.8551 26.1193C24.3527 25.2597 26.5865 23.6466 28.1925 21.5312C29.9758 19.1825 30.9183 16.3782 30.9183 13.422C30.9182 6.02106 24.8988 0 17.4999 0ZM11.3792 20.0647C10.9202 20.0647 10.5482 19.6927 10.5482 19.2336C10.5482 18.7745 10.9202 18.4026 11.3792 18.4026H11.5682V5.97227C11.5682 5.51315 11.9403 5.14111 12.3993 5.14111H22.6007C23.0597 5.14111 23.4317 5.51315 23.4317 5.97227V18.4027H23.6207C24.0796 18.4027 24.4518 18.7747 24.4518 19.2337C24.4518 19.6927 24.0797 20.0648 23.6207 20.0648L11.3792 20.0647Z" fill="#00426B"/>
</svg>
