<svg width="80" height="61" viewBox="0 0 80 61" fill="none" xmlns="http://www.w3.org/2000/svg">
<mask id="mask0" mask-type="alpha" maskUnits="userSpaceOnUse" x="25" y="49" width="30" height="12">
<path fill-rule="evenodd" clip-rule="evenodd" d="M25.359 49.5098H54.3394V60.3776H25.359V49.5098Z" fill="white"/>
</mask>
<g mask="url(#mask0)">
<path fill-rule="evenodd" clip-rule="evenodd" d="M48.3017 49.5098H47.0941V50.7173C47.0941 51.383 46.553 51.9249 45.8873 51.9249H33.8118C33.1454 51.9249 32.6035 51.383 32.6035 50.7173V49.5098H31.3967C28.0669 49.5098 25.359 52.2177 25.359 55.5475V59.1701C25.359 59.8373 25.8986 60.3777 26.5658 60.3777C27.233 60.3777 27.7741 59.8373 27.7741 59.1701V55.5475C27.7741 53.8796 28.9069 52.4713 30.4435 52.0517C30.9756 53.3913 32.2843 54.34 33.8118 54.34H45.8873C47.4133 54.34 48.7228 53.3913 49.2549 52.0517C50.7915 52.4713 51.925 53.8796 51.925 55.5475V59.1701C51.925 59.8373 52.4654 60.3777 53.1318 60.3777C53.799 60.3777 54.3394 59.8373 54.3394 59.1701V55.5475C54.3394 52.2177 51.6315 49.5098 48.3017 49.5098Z" fill="#666666"/>
</g>
<mask id="mask1" mask-type="alpha" maskUnits="userSpaceOnUse" x="0" y="0" width="80" height="61">
<path fill-rule="evenodd" clip-rule="evenodd" d="M0 0H79.698V60.3774H0V0Z" fill="white"/>
</mask>
<g mask="url(#mask1)">
<path fill-rule="evenodd" clip-rule="evenodd" d="M44.6791 0C44.012 0 43.4716 0.540377 43.4716 1.20755C43.4716 1.87396 44.012 2.41509 44.6791 2.41509H77.2829V57.9623H59.1697C59.1697 49.3064 52.1274 42.2642 43.4716 42.2642H36.2263C27.5704 42.2642 20.5282 49.3064 20.5282 57.9623H2.41497V2.41509H35.0187C35.6859 2.41509 36.2263 1.87396 36.2263 1.20755C36.2263 0.540377 35.6859 0 35.0187 0H-0.00012207V60.3774H22.9433V57.9623C22.9433 50.6377 28.9025 44.6792 36.2263 44.6792H43.4716C50.7953 44.6792 56.7546 50.6377 56.7546 57.9623V60.3774H79.698V0H44.6791Z" fill="#666666"/>
</g>
<path fill-rule="evenodd" clip-rule="evenodd" d="M39.9069 8.41029L39.6193 8.40652C36.7921 8.36803 34.1174 9.44123 32.1016 11.4299C30.0857 13.4178 28.9771 16.0707 28.9771 18.9016V19.3318C28.9771 22.7658 30.3137 25.9944 32.7423 28.4231C33.4254 29.1061 33.8012 30.0141 33.8012 30.9809V32.6043H41.0563V23.9937L44.3884 20.1069C44.8231 19.6005 44.7642 18.8375 44.2578 18.4043C43.7514 17.9703 42.9891 18.0292 42.5552 18.5348L39.8495 21.6918L37.1431 18.5348C36.7099 18.0284 35.9476 17.9703 35.4404 18.4043C34.934 18.8375 34.8759 19.6005 35.3091 20.1069L38.6412 23.9937V30.1884H36.1657C35.9944 28.8775 35.4004 27.6654 34.4503 26.7152C32.4774 24.7431 31.3914 22.1205 31.3914 19.3318V18.9016C31.3914 16.7227 32.2465 14.6797 33.7967 13.1492C35.3499 11.6178 37.4118 10.7944 39.5884 10.8216L39.8767 10.8254C44.5091 10.8865 48.2782 14.7031 48.2782 19.3341V19.5892C48.2782 22.2118 47.2555 24.6782 45.4004 26.5341L45.2042 26.7303C44.0737 27.8601 43.4518 29.3612 43.4518 30.959V37.4254H35.0186C34.3521 37.4254 33.8118 37.9665 33.8118 38.6329C33.8118 39.3001 34.3521 39.8405 35.0186 39.8405H45.8669V30.959C45.8669 30.0065 46.2382 29.1114 46.9114 28.4382L47.1084 28.2412C49.4193 25.9295 50.6925 22.8571 50.6925 19.5892V19.3341C50.6925 13.3892 45.8548 8.48878 39.9069 8.41029Z" fill="#666666"/>
<path fill-rule="evenodd" clip-rule="evenodd" d="M35.0189 36.2266H39.8491C40.5156 36.2266 41.0567 35.6862 41.0567 35.0191C41.0567 34.3527 40.5156 33.8115 39.8491 33.8115H35.0189C34.3518 33.8115 33.8114 34.3527 33.8114 35.0191C33.8114 35.6862 34.3518 36.2266 35.0189 36.2266Z" fill="#666666"/>
<path fill-rule="evenodd" clip-rule="evenodd" d="M39.8494 6.03774C40.5158 6.03774 41.057 5.49736 41.057 4.83019V1.20755C41.057 0.540377 40.5158 0 39.8494 0C39.1822 0 38.6411 0.540377 38.6411 1.20755V4.83019C38.6411 5.49736 39.1822 6.03774 39.8494 6.03774Z" fill="#666666"/>
<path fill-rule="evenodd" clip-rule="evenodd" d="M51.0706 3.97633L48.6555 6.39143C48.1838 6.86312 48.1838 7.62765 48.6555 8.09935C48.891 8.33482 49.2004 8.45331 49.5099 8.45331C49.8186 8.45331 50.128 8.33482 50.3635 8.09935L52.7786 5.68426C53.2502 5.21256 53.2502 4.44803 52.7786 3.97633C52.3076 3.50463 51.5416 3.50463 51.0706 3.97633Z" fill="#666666"/>
<path fill-rule="evenodd" clip-rule="evenodd" d="M30.1885 8.45307C30.4979 8.45307 30.8066 8.33533 31.0428 8.09911C31.5145 7.62741 31.5145 6.86288 31.0428 6.39194L28.6277 3.97609C28.1568 3.50439 27.3908 3.50439 26.9198 3.97609C26.4481 4.44779 26.4481 5.21307 26.9198 5.68401L29.3349 8.09911C29.5711 8.33533 29.8798 8.45307 30.1885 8.45307Z" fill="#666666"/>
<path fill-rule="evenodd" clip-rule="evenodd" d="M51.9249 14.4908C51.9249 15.1572 52.4653 15.6983 53.1325 15.6983H56.7544C57.4215 15.6983 57.9627 15.1572 57.9627 14.4908C57.9627 13.8236 57.4215 13.2832 56.7544 13.2832H53.1325C52.4653 13.2832 51.9249 13.8236 51.9249 14.4908Z" fill="#666666"/>
<path fill-rule="evenodd" clip-rule="evenodd" d="M22.9435 13.2832C22.2763 13.2832 21.736 13.8236 21.736 14.4908C21.736 15.1572 22.2763 15.6983 22.9435 15.6983H26.5662C27.2333 15.6983 27.7737 15.1572 27.7737 14.4908C27.7737 13.8236 27.2333 13.2832 26.5662 13.2832H22.9435Z" fill="#666666"/>
</svg>
