<svg width="80" height="61" viewBox="0 0 80 61" fill="none" xmlns="http://www.w3.org/2000/svg">
<path fill-rule="evenodd" clip-rule="evenodd" d="M22.2147 49.1225C19.5999 49.1225 17.4726 51.2498 17.4726 53.8639C17.4726 56.4787 19.5999 58.6052 22.2147 58.6052C24.8288 58.6052 26.9561 56.4787 26.9561 53.8639C26.9561 51.2498 24.8288 49.1225 22.2147 49.1225ZM22.2147 60.9519C18.3062 60.9519 15.126 57.7725 15.126 53.8639C15.126 49.9553 18.3062 46.7759 22.2147 46.7759C26.1233 46.7759 29.3027 49.9553 29.3027 53.8639C29.3027 57.7725 26.1233 60.9519 22.2147 60.9519Z" fill="#666666"/>
<path fill-rule="evenodd" clip-rule="evenodd" d="M59.3264 49.1225C56.7123 49.1225 54.5851 51.2498 54.5851 53.8639C54.5851 56.4787 56.7123 58.6052 59.3264 58.6052C61.9405 58.6052 64.0677 56.4787 64.0677 53.8639C64.0677 51.2498 61.9405 49.1225 59.3264 49.1225ZM59.3264 60.9519C55.4178 60.9519 52.2384 57.7725 52.2384 53.8639C52.2384 49.9553 55.4178 46.7759 59.3264 46.7759C63.235 46.7759 66.4144 49.9553 66.4144 53.8639C66.4144 57.7725 63.235 60.9519 59.3264 60.9519Z" fill="#666666"/>
<mask id="mask0" mask-type="alpha" maskUnits="userSpaceOnUse" x="0" y="26" width="80" height="31">
<path fill-rule="evenodd" clip-rule="evenodd" d="M0 26.8491H79.2942V56.1604H0V26.8491Z" fill="white"/>
</mask>
<g mask="url(#mask0)">
<path fill-rule="evenodd" clip-rule="evenodd" d="M74.4775 56.1604H69.0078C68.3601 56.1604 67.8344 55.6354 67.8344 54.987C67.8344 54.3386 68.3601 53.8137 69.0078 53.8137H74.4775C75.8398 53.8137 76.9483 52.7051 76.9483 51.3428V42.6952L63.4489 29.195H30.0904C28.4645 29.195 26.9361 29.8289 25.7864 30.9786L18.0142 38.7508C16.4211 40.344 14.303 41.2217 12.0485 41.2217C6.69918 41.2217 2.34642 45.5745 2.34642 50.9245V53.8137H12.6352C13.2836 53.8137 13.8085 54.3386 13.8085 54.987C13.8085 55.6354 13.2836 56.1604 12.6352 56.1604H-0.000244141V50.9245C-0.000244141 44.2807 5.40547 38.875 12.0485 38.875C13.6752 38.875 15.2043 38.2411 16.3548 37.0922L24.127 29.3192C25.7201 27.7261 27.8375 26.8491 30.0904 26.8491H64.4211L79.2942 41.723V51.3428C79.2942 53.9988 77.1335 56.1604 74.4775 56.1604Z" fill="#666666"/>
</g>
<path fill-rule="evenodd" clip-rule="evenodd" d="M49.9826 56.1606H31.802C31.1536 56.1606 30.6287 55.6357 30.6287 54.9873C30.6287 54.3389 31.1536 53.814 31.802 53.814H49.9826C50.6302 53.814 51.1559 54.3389 51.1559 54.9873C51.1559 55.6357 50.6302 56.1606 49.9826 56.1606Z" fill="#666666"/>
<path fill-rule="evenodd" clip-rule="evenodd" d="M45.5199 47.235C44.8715 47.235 44.3466 46.7093 44.3466 46.0617V28.4922C44.3466 27.8446 44.8715 27.3188 45.5199 27.3188C46.1675 27.3188 46.6925 27.8446 46.6925 28.4922V46.0617C46.6925 46.7093 46.1675 47.235 45.5199 47.235Z" fill="#666666"/>
<path fill-rule="evenodd" clip-rule="evenodd" d="M45.0965 41.2568H12.8237C12.1753 41.2568 11.6504 40.7319 11.6504 40.0835C11.6504 39.4351 12.1753 38.9102 12.8237 38.9102H45.0965C45.7449 38.9102 46.2698 39.4351 46.2698 40.0835C46.2698 40.7319 45.7449 41.2568 45.0965 41.2568Z" fill="#666666"/>
<mask id="mask1" mask-type="alpha" maskUnits="userSpaceOnUse" x="29" y="0" width="51" height="40">
<path fill-rule="evenodd" clip-rule="evenodd" d="M29.9674 0H79.2459V39.1585H29.9674V0Z" fill="white"/>
</mask>
<g mask="url(#mask1)">
<path fill-rule="evenodd" clip-rule="evenodd" d="M75.7259 39.1584V18.7728H79.2459V7.03951H66.0786C66.6745 5.64142 66.6097 4.06961 65.8676 2.68218C64.9686 1.00218 63.2946 -0.000488281 61.3899 -0.000488281C59.6878 -0.000488281 58.1084 0.845226 57.1644 2.26084L54.6066 6.0978L52.0489 2.26084C51.1057 0.845226 49.5255 -0.000488281 47.8234 -0.000488281C45.9194 -0.000488281 44.2455 1.00218 43.3465 2.68218C42.6036 4.06961 42.5388 5.64142 43.1354 7.03951H29.9674V18.7728H69.86C70.5068 18.7728 71.0333 18.2471 71.0333 17.5995C71.0333 16.9511 70.5068 16.4262 69.86 16.4262H32.3141V9.38618H47.4127L45.5514 6.59304C44.9823 5.74123 44.932 4.69285 45.415 3.78923C45.8988 2.88561 46.7986 2.34694 47.8234 2.34694C48.7392 2.34694 49.5887 2.80104 50.0962 3.56294L54.6066 10.3279L59.1164 3.56294C59.6245 2.80104 60.4741 2.34694 61.3899 2.34694C62.4139 2.34694 63.3145 2.88561 63.7983 3.78923C64.2813 4.69285 64.231 5.74123 63.6626 6.59304L61.8006 9.38618H76.8992V16.4262H73.3792V36.8117" fill="#666666"/>
</g>
<mask id="mask2" mask-type="alpha" maskUnits="userSpaceOnUse" x="0" y="0" width="80" height="61">
<path fill-rule="evenodd" clip-rule="evenodd" d="M0 60.9524H79.2945V0H0V60.9524Z" fill="white"/>
</mask>
<g mask="url(#mask2)">
<path fill-rule="evenodd" clip-rule="evenodd" d="M35.0027 28.4527H37.3494V17.0127H35.0027V28.4527Z" fill="#666666"/>
</g>
</svg>
