<svg width="239" height="313" fill="none" xmlns="http://www.w3.org/2000/svg"><path d="M119.35 312.047c72.344 0 118.915-36.624 118.915-88.621 0-45.214-39.789-69.178-70.535-72.343 33.459-5.878 66.014-30.746 66.014-68.727 0-50.188-43.407-81.838-113.942-81.838-52.9 0-90.881 20.346-115.297 47.927l32.102 40.241C57.858 68.34 84.083 57.488 113.02 57.488c31.651 0 56.067 11.756 56.067 35.72 0 22.155-22.156 32.102-55.615 32.102-11.303 0-32.102 0-37.528-.452v57.875c4.522-.452 24.868-.904 37.528-.904 42.05 0 60.588 10.851 60.588 34.815 0 22.607-20.346 38.433-56.97 38.433-29.39 0-62.397-12.661-83.196-34.364L.436 263.667c22.155 27.129 63.3 48.38 118.914 48.38z" fill="#EB1923"/></svg>