<svg width="250" height="251" fill="none" xmlns="http://www.w3.org/2000/svg"><circle cx="125" cy="125.818" r="125" fill="#DFDBD4"/><circle cx="125" cy="125.818" r="119.671" fill="#DFDBD4" stroke="#fff"/><path d="M142.639 106.709a7.208 7.208 0 0 0 1.943-4.917c0-3.978-3.213-7.16-7.1-7.16-2.956 0-9.767 4.375-12.498 8.306-2.811-3.93-9.607-8.179-12.434-8.179-3.888 0-7.101 3.182-7.101 7.16a7.13 7.13 0 0 0 1.816 4.774H93.514v17.12h3.759v33.191h55.486v-33.175h3.727v-17.12h-13.847zm-5.173-9.42c2.409 0 4.417 1.989 4.417 4.646 0 2.244-1.574 4.169-3.63 4.567h-10.876c-.69-.207-.915-.446-.915-.589.016-2.259 8.048-8.624 11.004-8.624zm-24.932 0c2.811 0 10.988 6.365 10.988 8.624 0 .207-.482.43-.819.589h-10.956c-2.04-.398-3.615-2.323-3.615-4.567-.016-2.53 1.992-4.646 4.402-4.646zm4.418 57.058H99.939v-30.518h17.013v30.518zm0-33.032H96.196v-11.933h20.772l-.016 11.933zm13.397 33.032h-10.715v-44.981h10.715v44.981zm19.695 0h-17.012v-30.518h17.012v30.518zm3.743-33.032h-20.755v-11.933h20.771l-.016 11.933z" fill="#000"/></svg>