<svg width="67" height="66" viewBox="0 0 67 66" fill="none" xmlns="http://www.w3.org/2000/svg">
<g opacity="0.5">
<mask id="mask0" mask-type="alpha" maskUnits="userSpaceOnUse" x="0" y="0" width="34" height="66">
<path fill-rule="evenodd" clip-rule="evenodd" d="M0 0.401733H33.3049V65.7819H0V0.401733Z" fill="white"/>
</mask>
<g mask="url(#mask0)">
<path fill-rule="evenodd" clip-rule="evenodd" d="M21.3908 45.8447C18.2611 42.5527 16.6975 38.3005 16.6975 33.0917C16.6975 27.8829 18.2611 23.6323 21.3908 20.3391C24.5793 16.9869 28.5509 15.3102 33.3051 15.3102V0.401733C23.7374 0.401733 15.795 3.57603 9.47687 9.92141C3.15869 16.268 0 23.9917 0 33.0917C0 42.1929 3.15869 49.9166 9.47687 56.2624C15.795 62.609 23.7374 65.7821 33.3051 65.7821V50.8736C28.5509 50.8736 24.5793 49.1985 21.3908 45.8447Z" fill="white"/>
</g>
</g>
<mask id="mask1" mask-type="alpha" maskUnits="userSpaceOnUse" x="33" y="0" width="34" height="66">
<path fill-rule="evenodd" clip-rule="evenodd" d="M33.3044 0.401672H66.6092V65.7819H33.3044V0.401672Z" fill="white"/>
</mask>
<g mask="url(#mask1)">
<path fill-rule="evenodd" clip-rule="evenodd" d="M66.6095 33.0916C66.6095 23.992 63.4508 16.2683 57.1326 9.92135C50.8144 3.57597 42.8717 0.401672 33.3044 0.401672V15.3101C37.9977 15.3101 41.9382 16.9868 45.1283 20.339C48.3169 23.6928 49.912 27.943 49.912 33.0916C49.912 38.2418 48.3169 42.492 45.1283 45.8446C41.9382 49.1985 37.9977 50.8736 33.3044 50.8736V65.782C42.8717 65.782 50.8144 62.6089 57.1326 56.2623C63.4508 49.9169 66.6095 42.1928 66.6095 33.0916Z" fill="#F91155"/>
</g>
</svg>
