<svg width="128" height="147" viewBox="0 0 128 147" fill="none" xmlns="http://www.w3.org/2000/svg">
<g opacity="0.5">
<mask id="mask0" mask-type="alpha" maskUnits="userSpaceOnUse" x="28" y="48" width="50" height="99">
<path fill-rule="evenodd" clip-rule="evenodd" d="M28 48.6025H77.7089V146.673H28V48.6025Z" fill="white"/>
</mask>
<g mask="url(#mask0)">
<path fill-rule="evenodd" clip-rule="evenodd" d="M59.9263 116.767C55.2552 111.829 52.9215 105.451 52.9215 97.6375C52.9215 89.8242 55.2552 83.4483 59.9263 78.5086C64.6854 73.4803 70.6131 70.9652 77.7089 70.9652V48.6025C63.4287 48.6025 51.5745 53.364 42.1444 62.8821C32.7143 72.4019 27.9998 83.9875 27.9998 97.6375C27.9998 111.289 32.7143 122.875 42.1444 132.394C51.5745 141.913 63.4287 146.673 77.7089 146.673V124.31C70.6131 124.31 64.6854 121.798 59.9263 116.767" fill="white"/>
</g>
</g>
<mask id="mask1" mask-type="alpha" maskUnits="userSpaceOnUse" x="77" y="48" width="51" height="99">
<path fill-rule="evenodd" clip-rule="evenodd" d="M77.7083 48.6025H127.417V146.673H77.7083V48.6025Z" fill="white"/>
</mask>
<g mask="url(#mask1)">
<path fill-rule="evenodd" clip-rule="evenodd" d="M127.417 97.6375C127.417 83.9881 122.703 72.4025 113.273 62.8821C103.843 53.364 91.9878 48.6025 77.7083 48.6025V70.9652C84.7131 70.9652 90.5945 73.4803 95.3559 78.5086C100.115 83.5393 102.496 89.9146 102.496 97.6375C102.496 105.363 100.115 111.738 95.3559 116.767C90.5945 121.798 84.7131 124.31 77.7083 124.31V146.673C91.9878 146.673 103.843 141.913 113.273 132.394C122.703 122.875 127.417 111.289 127.417 97.6375" fill="#F91155"/>
</g>
<mask id="mask2" mask-type="alpha" maskUnits="userSpaceOnUse" x="0" y="0" width="31" height="50">
<path fill-rule="evenodd" clip-rule="evenodd" d="M0.000366211 0.746338H30.4688V49.1075H0.000366211V0.746338Z" fill="white"/>
</mask>
<g mask="url(#mask2)">
<path fill-rule="evenodd" clip-rule="evenodd" d="M18.0914 34.6195C17.0272 33.5553 17.0272 31.8239 18.0914 30.7598L19.1474 29.7045L12.5586 23.1157L9.5735 26.1008L4.22201 20.7493L20.0392 4.93141L25.2675 9.98141L15.9578 19.718C15.3877 20.3135 15.4086 21.2583 16.0048 21.8277C16.6011 22.3978 17.5459 22.3762 18.1145 21.7807L29.478 9.89783L20.0034 0.746338L0.000366211 20.7493L9.5735 30.3232L12.5586 27.3381L15.0638 29.8434C14.5705 30.7001 14.3078 31.6747 14.3078 32.6896C14.3078 34.2157 14.9019 35.6508 15.981 36.7299L27.9213 48.6702C28.2131 48.962 28.5944 49.1075 28.9765 49.1075C29.3586 49.1075 29.7407 48.962 30.0317 48.6702C30.6145 48.0874 30.6145 47.1426 30.0317 46.5598L18.0914 34.6195Z" fill="white"/>
</g>
<mask id="mask3" mask-type="alpha" maskUnits="userSpaceOnUse" x="69" y="0" width="31" height="50">
<path fill-rule="evenodd" clip-rule="evenodd" d="M69.2748 0.746338H99.744V49.1073H69.2748V0.746338Z" fill="white"/>
</mask>
<g mask="url(#mask3)">
<path fill-rule="evenodd" clip-rule="evenodd" d="M79.7409 0.746094L70.2663 9.89758L81.6289 21.7812C82.1983 22.3759 83.1431 22.3983 83.7394 21.8282C84.3349 21.258 84.3566 20.3133 83.7864 19.7177L74.476 9.98117L79.7043 4.93117L95.5222 20.7491L90.1707 26.1013L87.1857 23.1162L80.5969 29.7043L81.6528 30.7595C82.7163 31.8237 82.7163 33.555 81.6528 34.6192L69.7125 46.5595C69.1289 47.1424 69.1289 48.0879 69.7125 48.67C70.0036 48.9618 70.3857 49.1073 70.7678 49.1073C71.1491 49.1073 71.5319 48.9618 71.823 48.67L83.7633 36.7297C84.8424 35.6506 85.4372 34.2162 85.4372 32.6894C85.4372 31.6744 85.1737 30.6998 84.6804 29.8431L87.1857 27.3379L90.1707 30.323L99.7446 20.7491L79.7409 0.746094Z" fill="white"/>
</g>
<path fill-rule="evenodd" clip-rule="evenodd" d="M61.6315 18.5633C63.3777 16.8178 66.218 16.8178 67.9636 18.5633L69.2747 19.8753L71.8225 17.3267C72.4061 16.7439 72.4061 15.7991 71.8225 15.2163C71.2404 14.6335 70.2942 14.6335 69.7121 15.2163L69.2143 15.7141C66.2971 13.5693 62.1583 13.8141 59.521 16.4529L59.4098 16.5633C58.5927 15.482 57.2994 14.779 55.8419 14.779C55.3195 14.779 54.8165 14.8693 54.3494 15.035V13.2865C54.3494 10.8178 52.3412 8.80884 49.8718 8.80884C47.4031 8.80884 45.3942 10.8178 45.3942 13.2865V15.035C43.7919 14.4656 41.6725 14.7767 40.4382 16.667L40.2233 16.4529C37.5859 13.8141 33.4464 13.5693 30.5292 15.7141L30.0315 15.2163C29.4494 14.6335 28.5031 14.6335 27.921 15.2163C27.3382 15.7991 27.3382 16.7439 27.921 17.3267L30.4688 19.8753L31.7807 18.5633C33.527 16.8178 36.3673 16.8178 38.1128 18.5633L39.4591 19.9096C39.4397 20.179 39.424 20.4551 39.424 20.7491V32.6932C38.1762 31.7544 36.6247 31.1969 34.9464 31.1969H33.4539V53.585C33.4539 57.1887 36.0225 60.2044 39.424 60.8984V62.5402C39.424 63.3648 40.0927 64.0327 40.9165 64.0327C41.7412 64.0327 42.4091 63.3648 42.4091 62.5402V58.0626H40.9165C38.4479 58.0626 36.4389 56.0544 36.4389 53.585V34.4379C38.1762 35.0536 39.424 36.7141 39.424 38.6596V46.1223V47.6148C39.424 48.4394 40.0927 49.1073 40.9165 49.1073C41.7412 49.1073 42.4091 48.4394 42.4091 47.6148V46.1223V20.7491C42.4091 19.8521 42.5553 17.7641 43.9016 17.7641C44.7255 17.7641 45.3942 18.4335 45.3942 19.2566V35.6745V37.167V38.6596C45.3942 39.4842 46.0628 40.1521 46.8867 40.1521C47.7113 40.1521 48.3792 39.4842 48.3792 38.6596V37.167V35.6745V13.2865C48.3792 12.4633 49.0494 11.7939 49.8718 11.7939C50.6956 11.7939 51.3643 12.4633 51.3643 13.2865V35.6745V37.167V38.6596C51.3643 39.4842 52.033 40.1521 52.8568 40.1521C53.6815 40.1521 54.3494 39.4842 54.3494 38.6596V37.167V35.6745V19.2566C54.3494 18.4335 55.0195 17.7641 55.8419 17.7641C56.6658 17.7641 57.3344 18.4335 57.3344 19.2566V35.6745V37.167V38.6596C57.3344 39.4842 58.0031 40.1521 58.827 40.1521C59.6516 40.1521 60.3195 39.4842 60.3195 38.6596V37.167V35.6745V25.2267C60.3195 24.4036 60.9897 23.7342 61.8121 23.7342C62.6359 23.7342 63.3046 24.4036 63.3046 25.2267V53.585C63.3046 56.0544 61.2964 58.0626 58.827 58.0626H57.3344V70.0029H60.3195V72.9879H39.424V70.0029H52.8568C53.6815 70.0029 54.3494 69.335 54.3494 68.5103C54.3494 67.6865 53.6815 67.0178 52.8568 67.0178H36.4389V75.973H63.3046V67.0178H60.3195V60.8984C63.7218 60.2044 66.2897 57.1887 66.2897 53.585V25.2267C66.2897 22.7581 64.2815 20.7491 61.8121 20.7491C61.2897 20.7491 60.7867 20.8394 60.3195 21.0051V19.8745L61.6315 18.5633Z" fill="white"/>
</svg>
