<svg width="98" height="98" fill="none" xmlns="http://www.w3.org/2000/svg"><path d="M5.394 58.279h-.63l.142.613c4.71 20.274 22.53 35.232 44.043 35.232 21.512 0 39.335-14.958 43.842-35.237l.135-.608H5.393zm87.72-2.85h.452l.045-.45.05-.508c.185-1.824.357-3.534.357-5.416 0-24.79-20.28-45.069-45.069-45.069S3.881 24.266 3.881 49.055c0 1.882.172 3.592.356 5.416l.051.509.045.45h88.78zm3.956-6.374c0 26.465-21.655 48.12-48.12 48.12C22.483 97.175.828 75.52.828 49.055.829 22.59 22.484.935 48.949.935c26.466 0 48.121 21.655 48.121 48.12z" fill="#068F97" stroke="#fff"/><path d="M23.88 65.818l.01.01.01.01L37.26 77.78c.676.683.743 1.57.194 2.12-.685.684-1.578.754-2.13.202l-.01-.01-.01-.009-13.36-11.943c-.676-.683-.742-1.57-.193-2.12.685-.684 1.577-.754 2.13-.202zm12.966-.406l.01.01.01.01 13.36 11.942c.676.684.743 1.57.193 2.12-.684.685-1.577.755-2.129.203l-.01-.01-.01-.01-13.36-11.942c-.676-.684-.743-1.57-.193-2.12.685-.685 1.577-.754 2.129-.203zm12.965-.202l.01.01.01.01 13.36 11.942c.676.684.743 1.57.194 2.12-.685.684-1.578.754-2.13.202l-.01-.01-.01-.009-13.36-11.943c-.676-.683-.742-1.57-.193-2.12.685-.684 1.577-.754 2.13-.202zm12.763-.405l.01.01.01.01 13.36 11.942c.676.684.743 1.57.194 2.12-.685.684-1.578.754-2.13.202l-.01-.01-.01-.009-13.36-11.943c-.675-.683-.742-1.57-.193-2.12.685-.684 1.577-.754 2.13-.202zM49.449 34.494v-.026c0-1.708.682-3.79 1.773-6.012 1.085-2.211 2.55-4.51 4.06-6.638 2.672-3.761 5.459-6.95 6.496-8.137l.3-.345c.306-.297.775-.45 1.052-.45.278 0 .747.153 1.053.45l.3.345c1.037 1.186 3.825 4.376 6.495 8.137 1.511 2.128 2.976 4.427 4.061 6.638 1.091 2.222 1.772 4.304 1.772 6.012 0 7.625-6.258 13.884-13.883 13.884-7.63 0-13.869-6.258-13.48-13.858zm13.86-17.568l-.381-.451-.382.45c-2.238 2.645-4.835 6.006-6.877 9.196-1.02 1.594-1.907 3.155-2.541 4.57-.63 1.4-1.032 2.707-1.032 3.777 0 5.949 4.883 10.832 10.832 10.832 5.948 0 10.832-4.883 10.832-10.832 0-1.118-.4-2.448-1.031-3.862-.635-1.425-1.523-2.98-2.544-4.563-2.042-3.165-4.64-6.475-6.875-9.117zM30.083 31.104l-.38-.443-.379.443c-1.228 1.433-2.51 3.125-3.465 4.672-.476.773-.878 1.52-1.148 2.19-.259.637-.426 1.269-.37 1.8.017 2.896 2.463 5.332 5.363 5.332 2.91 0 5.362-2.453 5.362-5.362 0-.508-.184-1.128-.457-1.777-.278-.662-.67-1.405-1.134-2.178a35.92 35.92 0 0 0-3.392-4.677zm8.035 8.834c0 4.586-3.828 8.414-8.414 8.414-4.796 0-8.617-3.835-8.617-8.414 0-1.007.359-2.196.953-3.462.591-1.26 1.397-2.557 2.249-3.772 1.474-2.103 3.06-3.923 3.86-4.842.118-.135.22-.251.3-.345.613-.599 1.693-.599 2.307 0 .08.094.182.21.3.345.8.919 2.386 2.74 3.86 4.842.852 1.215 1.658 2.513 2.249 3.772.594 1.266.953 2.455.953 3.462zm34.426 26.944c0-3.573 3.017-6.59 6.59-6.59s6.59 3.017 6.59 6.59-3.017 6.59-6.59 6.59-6.59-3.017-6.59-6.59zm3.052 0c0 1.897 1.642 3.54 3.538 3.54 1.897 0 3.54-1.643 3.54-3.54s-1.643-3.538-3.54-3.538c-1.896 0-3.538 1.642-3.538 3.538zM47.437 17.25c0 3.572-3.018 6.59-6.591 6.59-3.573 0-6.59-3.018-6.59-6.59 0-3.574 3.017-6.591 6.59-6.591s6.59 3.017 6.59 6.59zm-3.052 0c0-1.898-1.642-3.54-3.539-3.54-1.897 0-3.539 1.642-3.539 3.54 0 1.896 1.642 3.538 3.539 3.538 1.897 0 3.539-1.642 3.539-3.539z" fill="#068F97" stroke="#fff"/></svg>