<svg width="76" height="1675" fill="none" xmlns="http://www.w3.org/2000/svg"><g clip-path="url(#clip0)"><path d="M75.933 219.452H58.546m17.387 32.063H58.546m17.387 64.384H58.546m17.387-32.063H58.546m17.387 64.126H58.546m17.387 32.322H58.546m17.387 32.063H58.546m17.387 32.322H58.546m16.089 46.025H57.248m17.387 32.063H57.248m17.387 64.385H57.248m17.387-32.321H57.248m17.387 66.194H57.248m17.387 30.511H57.248m17.387 32.064H57.248m17.387 32.321H57.248m18.685 35.683H58.546m17.387 35.683H58.546m17.387 64.385H58.546m17.387-32.063H58.546m17.387 64.385H58.546m17.387 32.063H58.546m17.387 32.062H58.546m17.387 32.322H58.546" stroke="#003E51" stroke-width=".5"/><path d="M8.978 176.011c.778.517 2.335 1.034 4.152 1.034 3.114 0 4.152-2.068 4.152-3.62 0-2.585-2.335-3.62-4.67-3.62h-1.299v-1.81h1.298c1.817 0 4.152-1.034 4.152-3.102 0-1.552-1.038-2.845-3.373-2.845-1.557 0-2.855.776-3.634 1.293l-.778-1.81c1.038-.776 2.855-1.293 4.93-1.293 3.634 0 5.191 2.069 5.191 4.396 0 1.81-1.298 3.62-3.374 4.396 2.336.517 4.153 2.068 4.153 4.654 0 2.844-2.336 5.43-6.748 5.43-2.076 0-3.893-.776-4.93-1.293l.778-1.81z" fill="#000"/><path d="M74.376 198.507H.933M74.376 1269H.933m73.443-802.87H.933m75 535.25H2.49" stroke="#003E51" stroke-width=".5"/><path d="M16.764 448.288v-5.171H8.199v-1.552l8.305-11.894h2.595v11.377h2.595v1.81H19.1v5.172h-2.335v.258zm0-6.981v-9.05c-.52 1.034-1.039 1.81-1.558 2.844l-4.411 6.206h5.969z" fill="#000"/><path d="M74.635 1023.1H57.248m17.387 32.06H57.248m17.387 64.38H57.248m17.387-32.06H57.248m17.387 64.38H57.248m17.387 32.07H57.248m17.387 32.06H57.248m17.387 32.32H57.248m18.685 48.61H58.546m17.387 32.07H58.546m17.387 64.38H58.546m17.387-32.06H58.546m17.387 64.12H58.546m17.387 32.33H58.546m17.387 32.06H58.546" stroke="#003E51" stroke-width=".5"/><path d="M19.1 969.571c-.52 0-1.299 0-1.818.258-3.892.517-5.968 3.362-6.487 6.465.778-1.293 2.335-2.069 4.411-2.069 3.374 0 5.71 2.327 5.71 5.947 0 3.362-2.336 6.465-6.229 6.465-3.892 0-6.488-3.103-6.488-7.758 0-3.62 1.298-6.464 3.115-8.274 1.557-1.551 3.633-2.327 5.968-2.844.779 0 1.298-.259 1.817-.259v2.069zm-.78 10.601c0-2.585-1.556-4.137-3.892-4.137-1.557 0-2.855 1.034-3.633 2.327-.26.259-.26.517-.26 1.035 0 3.102 1.557 5.43 4.152 5.43 2.077-.259 3.634-2.069 3.634-4.655zm1.558 252.108v1.55l-8.045 16.81H9.238l8.044-16.29H8.2v-2.07h11.679z" fill="#000"/><path d="M75.154.699V1674.7" stroke="#003E51" stroke-width=".5"/></g><defs><clipPath id="clip0"><path fill="#fff" transform="matrix(-1 0 0 1 75.933 .699)" d="M0 0h75v1674H0z"/></clipPath></defs></svg>