<svg width="33" height="41" fill="none" xmlns="http://www.w3.org/2000/svg"><path fill-rule="evenodd" clip-rule="evenodd" d="M26.581 10.638h5.182c.465 0 .846.4.846.887v24.338c0 2.447-1.896 4.433-4.233 4.433H4.669c-2.337 0-4.234-1.986-4.234-4.433V11.516c0-.319.17-.612.432-.771.27-.15.593-.15.855.018l1.033.656a2.44 2.44 0 0 0 2.633 0l1.042-.656c.004 0 .006-.003.008-.005s.004-.004.009-.004c.008-.01.025-.018.042-.027l.016-.007c.007-.003.013-.005.018-.01.008-.005.015-.007.021-.01l.021-.008a.06.06 0 0 1 .034-.018.046.046 0 0 0 .021-.005.058.058 0 0 1 .021-.004.06.06 0 0 0 .022-.004.06.06 0 0 1 .02-.005c.005 0 .011-.002.018-.004a.063.063 0 0 1 .017-.005c.008 0 .016-.002.025-.004a.098.098 0 0 1 .025-.005H8.31V8.262c0-4.052 3.149-7.35 7.018-7.35a6.71 6.71 0 0 1 2.117.346 6.719 6.719 0 0 1 2.117-.346c3.87 0 7.019 3.298 7.019 7.35v2.376zm-1.693 0V8.262c0-2.961-2.202-5.382-4.987-5.568 1.498 1.348 2.447 3.343 2.447 5.568v2.376h2.54zm-10.66-2.376v2.376h6.418V8.262c0-2.296-1.321-4.264-3.21-5.124-1.887.86-3.208 2.837-3.208 5.124zm.753-5.568c-2.785.186-4.987 2.616-4.987 5.568v2.376h2.54V8.262a7.5 7.5 0 0 1 2.447-5.568zM2.128 13.085v22.787c0 1.463 1.143 2.66 2.54 2.66H6.87a4.558 4.558 0 0 1-.847-2.66V13.085a4.051 4.051 0 0 1-3.895 0zm26.248 25.447c1.397 0 2.54-1.197 2.54-2.66v-23.46H26.59v6.312c0 .488-.381.887-.847.887-.466 0-.847-.399-.847-.887v-6.312h-3.243a.674.674 0 0 1-.144.018.718.718 0 0 1-.144-.018h-7.129v6.312c0 .488-.38.887-.847.887-.465 0-.846-.399-.846-.887v-6.312H9.3a.675.675 0 0 1-.144.018.718.718 0 0 1-.144-.018H7.717v23.46c0 1.463 1.143 2.66 2.54 2.66h18.119zm-9.695-11.996l3.472-3.636a.826.826 0 0 1 1.202 0c.33.346.33.905 0 1.25l-4.073 4.265a.855.855 0 0 1-.6.257.828.828 0 0 1-.602-.266l-2.286-2.411a.913.913 0 0 1 .008-1.25.817.817 0 0 1 1.194.008l1.685 1.782z" fill="#000"/></svg>