<svg width="75" height="1674" fill="none" xmlns="http://www.w3.org/2000/svg"><g clip-path="url(#clip0)"><path d="M0 218.753h17.387M0 250.816h17.387M0 315.201h17.387M0 283.137h17.387M0 347.263h17.387M0 379.585h17.387M0 411.648h17.387M0 443.97h17.387M1.298 489.995h17.387M1.298 522.058h17.387M1.298 586.443h17.387M1.298 554.121h17.387M1.298 620.316h17.387M1.298 650.828h17.387M1.298 682.891h17.387M1.298 715.213h17.387M0 750.895h17.387M0 786.578h17.387M0 850.963h17.387M0 818.9h17.387M0 883.285h17.387M0 915.348h17.387M0 947.41h17.387M0 979.732h17.387" stroke="#003E51" stroke-width=".5"/><path d="M45.675 175.312c.778.517 2.335 1.035 4.152 1.035 3.114 0 4.152-2.069 4.152-3.62 0-2.586-2.335-3.62-4.671-3.62H48.01v-1.811h1.298c1.817 0 4.152-1.034 4.152-3.102 0-1.552-1.038-2.845-3.373-2.845-1.558 0-2.855.776-3.634 1.293l-.778-1.81c1.038-.776 2.855-1.293 4.93-1.293 3.634 0 5.19 2.069 5.19 4.396 0 1.81-1.297 3.62-3.373 4.396 2.336.517 4.152 2.068 4.152 4.654 0 2.844-2.335 5.43-6.747 5.43-2.076 0-3.893-.776-4.93-1.293l.778-1.81z" fill="#000"/><path d="M1.557 197.808H75M1.557 1268.3H75M1.557 465.431H75M0 1000.68h73.443" stroke="#003E51" stroke-width=".5"/><path d="M52.941 447.589v-5.171h-8.564v-1.552l8.305-11.894h2.595v11.377h2.595v1.81h-2.595v5.172h-2.336v.258zm0-6.981v-9.05c-.519 1.034-1.038 1.81-1.557 2.844l-4.412 6.206h5.97z" fill="#000"/><path d="M1.298 1022.4h17.387m-17.387 32.06h17.387m-17.387 64.38h17.387m-17.387-32.06h17.387m-17.387 64.39h17.387m-17.387 32.06h17.387m-17.387 32.06h17.387m-17.387 32.32h17.387M0 1296.22h17.387M0 1328.29h17.387M0 1392.67h17.387M0 1360.61h17.387M0 1424.74h17.387M0 1457.06h17.387M0 1489.12h17.387" stroke="#003E51" stroke-width=".5"/><path d="M65.917 968.872c-.52 0-1.298 0-1.817.258-3.892.518-5.969 3.362-6.488 6.465.779-1.293 2.336-2.069 4.412-2.069 3.374 0 5.71 2.327 5.71 5.947 0 3.362-2.336 6.465-6.229 6.465-3.893 0-6.488-3.103-6.488-7.758 0-3.62 1.298-6.464 3.114-8.274 1.557-1.551 3.634-2.327 5.97-2.844.778 0 1.297-.259 1.816-.259v2.069zm-.779 10.601c0-2.585-1.557-4.137-3.892-4.137-1.558 0-2.855 1.034-3.634 2.327-.26.259-.26.517-.26 1.035 0 3.102 1.558 5.43 4.153 5.43 2.076-.259 3.633-2.069 3.633-4.655zm-8.045 252.107v1.55l-8.045 16.81h-2.595l8.045-16.29h-9.083v-2.07h11.678z" fill="#000"/><path d="M.779 0v1674" stroke="#003E51" stroke-width=".5"/></g><defs><clipPath id="clip0"><path fill="#fff" d="M0 0h75v1674H0z"/></clipPath></defs></svg>