<svg width="554" height="337" fill="none" xmlns="http://www.w3.org/2000/svg"><path d="M259.952 44.867c4.83 0 8.01-2.67 8.01-6.93 0-4.05-3.03-6.48-6.42-6.48-1.83 0-3.45.72-4.41 1.68v-4.89h9.48v-3.75h-13.74v11.49l2.97.78c1.2-1.14 2.55-1.62 4.2-1.62 2.28 0 3.6 1.2 3.6 2.97 0 1.62-1.35 2.97-3.72 2.97-2.1 0-3.96-.78-5.31-2.19l-2.37 2.97c1.71 1.86 4.23 3 7.71 3zm12.912-.03c1.32 0 2.43-1.11 2.43-2.43s-1.11-2.43-2.43-2.43-2.43 1.11-2.43 2.43 1.11 2.43 2.43 2.43zm12.491.03c5.7 0 8.28-5.19 8.28-10.35 0-5.16-2.58-10.32-8.28-10.32-5.73 0-8.28 5.16-8.28 10.32s2.55 10.35 8.28 10.35zm0-3.78c-2.88 0-3.96-2.88-3.96-6.57 0-3.69 1.08-6.54 3.96-6.54 2.85 0 3.93 2.85 3.93 6.54s-1.08 6.57-3.93 6.57z" fill="#78CBD2"/><mask id="a" maskUnits="userSpaceOnUse" x="0" y="52" width="554" height="262"><path fill="#C4C4C4" d="M.595 52.507h552.96v261.059H.595z"/></mask><g mask="url(#a)"><circle cx="275.302" cy="313.566" r="241.778" stroke="url(#paint0_linear)" stroke-width="5"/></g><path d="M273.698 52.507v283.507L259.887 144.42l13.811-91.913z" fill="#C1E7E3"/><path d="M273.698 52.507v283.507l13.811-191.594-13.811-91.913z" fill="#8BD2CB"/><circle cx="273.363" cy="324.789" r="11.224" fill="#9EEAE5"/><circle cx="273.363" cy="324.789" r="7.012" fill="#fff"/><path stroke="#FEDAC1" stroke-width="3" d="M20.195 312.065h30"/><path stroke="#81D1CC" stroke-width="3" d="M500.62 312.065h30"/><path fill-rule="evenodd" clip-rule="evenodd" d="M308.474 110.124a8.585 8.585 0 1 1 .001-17.17 8.585 8.585 0 0 1-.001 17.17zm-57.469-8.585a8.585 8.585 0 1 1-17.17 0 8.585 8.585 0 0 1 17.17 0zm-44.709 17.169a8.584 8.584 0 1 0 0-17.169 8.584 8.584 0 0 0 0 17.169zm-23.918 6.047a8.584 8.584 0 0 1-8.584 8.584 8.584 8.584 0 0 1-8.584-8.584 8.584 8.584 0 0 1 8.584-8.584 8.584 8.584 0 0 1 8.584 8.584zm-37.539 28.159a8.584 8.584 0 0 0 8.584-8.584 8.584 8.584 0 0 0-8.584-8.584 8.584 8.584 0 0 0-8.584 8.584 8.584 8.584 0 0 0 8.584 8.584zm-16.608 14.312a8.584 8.584 0 0 1-8.584 8.584 8.585 8.585 0 1 1 8.584-8.584zm-28.717 34.742a8.584 8.584 0 0 0 8.584-8.584 8.584 8.584 0 0 0-8.584-8.584 8.584 8.584 0 1 0 0 17.168zm-8.335 21.378a8.584 8.584 0 0 1-8.585 8.584 8.584 8.584 0 1 1 0-17.168 8.584 8.584 0 0 1 8.585 8.584zM70.14 262.86a8.584 8.584 0 1 0 0-17.168 8.584 8.584 0 1 0 0 17.168zm-5.93 33.831a8.584 8.584 0 1 0 0-17.168 8.584 8.584 0 1 0 0 17.168zm422.474 0a8.584 8.584 0 0 1-8.584-8.584 8.584 8.584 0 0 1 8.584-8.584 8.584 8.584 0 0 1 8.584 8.584 8.584 8.584 0 0 1-8.584 8.584zm-14.515-42.415a8.584 8.584 0 0 0 8.584 8.584 8.584 8.584 0 0 0 8.584-8.584 8.584 8.584 0 0 0-8.584-8.584 8.584 8.584 0 0 0-8.584 8.584zM468.3 231.93a8.585 8.585 0 1 1 0-17.17 8.585 8.585 0 0 1 0 17.17zm-25.504-38.546a8.584 8.584 0 0 0 8.584 8.584 8.584 8.584 0 0 0 8.584-8.584 8.584 8.584 0 0 0-8.584-8.584 8.584 8.584 0 0 0-8.584 8.584zm-11.549-17.574a8.585 8.585 0 1 1 .001-17.169 8.585 8.585 0 0 1-.001 17.169zm-33.776-31.48a8.584 8.584 0 0 0 8.584 8.584 8.585 8.585 0 1 0-8.584-8.584zM377.1 133.339a8.584 8.584 0 0 1-8.584-8.584 8.584 8.584 0 0 1 8.584-8.584 8.584 8.584 0 0 1 8.584 8.584 8.584 8.584 0 0 1-8.584 8.584zm-41.087-23.215a8.585 8.585 0 1 0 17.17-.003 8.585 8.585 0 0 0-17.17.003z" fill="url(#paint1_linear)"/><defs><linearGradient id="paint0_linear" x1="519.581" y1="310.532" x2="31.024" y2="313.566" gradientUnits="userSpaceOnUse"><stop stop-color="#80D1CC"/><stop offset="1" stop-color="#FFDAC1"/></linearGradient><linearGradient id="paint1_linear" x1="511.097" y1="308.581" x2="45.314" y2="309.155" gradientUnits="userSpaceOnUse"><stop stop-color="#81D1CC"/><stop offset="1" stop-color="#FEDAC1"/></linearGradient></defs></svg>