<svg xmlns="http://www.w3.org/2000/svg" width="140" height="41" viewBox="0 0 140 41"><defs><linearGradient id="vnyna" x1="23.3" x2="6" y1="32.07" y2="14.96" gradientUnits="userSpaceOnUse"><stop offset="0" stop-color="#00a0ff"/><stop offset=".01" stop-color="#00a1ff"/><stop offset=".26" stop-color="#00beff"/><stop offset=".51" stop-color="#00d2ff"/><stop offset=".76" stop-color="#00dfff"/><stop offset="1" stop-color="#00e3ff"/></linearGradient><linearGradient id="vnynb" x1="35.28" x2="8.83" y1="21.11" y2="21.11" gradientUnits="userSpaceOnUse"><stop offset="0" stop-color="#ffe000"/><stop offset=".41" stop-color="#ffbd00"/><stop offset=".78" stop-color="orange"/><stop offset="1" stop-color="#ff9c00"/></linearGradient><linearGradient id="vnync" x1="16.44" x2="-7.8" y1="26.27" y2="2.69" gradientUnits="userSpaceOnUse"><stop offset="0" stop-color="#ff3a44"/><stop offset="1" stop-color="#c31162"/></linearGradient><linearGradient id="vnynd" x1="-2.23" x2="8.6" y1="33.01" y2="22.48" gradientUnits="userSpaceOnUse"><stop offset="0" stop-color="#32a071"/><stop offset=".07" stop-color="#2da771"/><stop offset=".48" stop-color="#15cf74"/><stop offset=".8" stop-color="#06e775"/><stop offset="1" stop-color="#00f076"/></linearGradient></defs><g><g><g><path d="M134.815 41.111H5.185C2.335 41.111 0 38.798 0 35.973V5.139C0 2.314 2.335 0 5.185 0h129.63C137.665 0 140 2.314 140 5.14v30.833c.001 2.825-2.333 5.138-5.185 5.138z"/></g><g><path fill="#a6a6a6" d="M140 5.14v30.832c0 2.825-2.335 5.14-5.185 5.14H5.185c-2.85 0-5.185-2.315-5.185-5.14V5.139C0 2.314 2.335 0 5.185 0h129.63c2.852 0 5.186 2.314 5.185 5.14zM134.815.822H5.185C2.785.823.83 2.761.83 5.14v30.84c0 2.381 1.952 4.318 4.354 4.318h129.63c2.4 0 4.354-1.938 4.354-4.317V5.14c0-2.381-1.952-4.318-4.354-4.318z"/></g><g><path fill="#fff" d="M45.642 13.337c-.943 0-1.758-.322-2.423-.956-.663-.64-.999-1.44-.999-2.378 0-.94.337-1.737 1-2.373.662-.636 1.477-.96 2.422-.96.458 0 .913.09 1.351.27.435.179.783.42 1.037.716l.05.059-.68.665-.06-.07c-.416-.474-.97-.703-1.698-.703-.65 0-1.221.223-1.697.665-.473.442-.712 1.025-.712 1.731 0 .71.24 1.294.712 1.737.48.44 1.053.663 1.697.663.692 0 1.275-.224 1.734-.668.282-.275.447-.64.504-1.117h-2.324v-.916h3.266l.015.065c.033.15.05.304.05.488 0 .883-.276 1.601-.82 2.135-.623.628-1.438.947-2.425.947z"/></g><g><path fill="#fff" d="M53.333 13.337H50V6.67h3.333v.973H50.85v1.882h2.24v.957h-2.24v1.882h2.484z"/></g><g><path fill="#fff" d="M57.146 13.337h-.968V7.643H54.44V6.67h4.444v.973h-1.738v5.694z"/></g><g><path fill="#fff" d="M63.331 13.337H62.22V6.67h1.111z"/></g><g><path fill="#fff" d="M67.143 13.337h-.96V7.643H64.44V6.67h4.444v.973h-1.742v5.694z"/></g><g><path fill="#fff" d="M72.787 11.732c-.451-.45-.68-1.031-.68-1.73 0-.698.229-1.28.68-1.73.457-.452 1-.673 1.659-.673.651 0 1.207.225 1.653.673.45.45.68 1.032.68 1.73 0 .699-.228 1.28-.68 1.73-.445.447-1 .674-1.653.674-.66 0-1.202-.22-1.66-.674zm4.034.64c.634-.641.956-1.437.956-2.367 0-.924-.324-1.72-.961-2.362-.636-.645-1.433-.973-2.37-.973-.944 0-1.744.325-2.38.967-.634.639-.956 1.436-.956 2.366 0 .93.322 1.727.956 2.367.636.642 1.436.967 2.38.967.94 0 1.74-.325 2.375-.966z"/></g><g><path fill="#fff" d="M83.336 13.337h-1.079l-.027-.041-3.405-5.09.03.996v4.135H77.78V6.67h1.232l3.274 4.882-.032-.99V6.67h1.082v6.667z"/></g><g><path fill="#fff" d="M110.445 18.253h1.926V31.3h-1.926zm19.553 4.7l-5.313 12.312h-2.018l1.968-4.402-3.447-7.91h2.082l2.295 5.66h.066l2.22-5.66h2.147zm-10.807 4.802c-.517-.25-.915-.44-1.765-.44-.95 0-2.048.388-2.048 1.402 0 .793.88 1.11 1.511 1.11 1.119 0 2.15-.86 2.302-2.072zm1.866-1.479v5.005h-1.865v-1.01h-.066c-.45.687-1.168 1.279-2.467 1.279-1.7 0-3.211-1.125-3.211-2.874 0-1.912 1.88-2.936 3.726-2.936.92 0 1.667.301 2.017.505v-.137c-.016-1.072-1.032-1.678-2.033-1.678-.717 0-1.395.234-1.764.958l-1.714-.724c.597-1.376 2.048-1.997 3.443-1.997 2.22 0 3.933 1.295 3.934 3.61zm-13.606-3.97c0-1.03-.823-2.237-2.265-2.237h-2.75v4.473h2.75c1.441 0 2.265-1.228 2.265-2.237zm1.923-.002c0 2.488-2.1 4.052-4.242 4.052h-2.698V31.3h-1.929V18.253h4.625c2.137 0 4.243 1.565 4.244 4.051zm-27.13 4.842c0-1.565-1.036-2.706-2.351-2.706-1.334 0-2.45 1.14-2.45 2.706 0 1.55 1.116 2.676 2.45 2.676 1.315 0 2.351-1.125 2.351-2.676zM82.1 23.68v-.719h1.833v7.973c0 3.277-1.913 4.623-4.18 4.623-2.132 0-3.415-1.449-3.9-2.626l1.683-.709c.302.725 1.035 1.586 2.216 1.586 1.45 0 2.348-.913 2.348-2.61v-.637h-.064c-.434.536-1.263 1.009-2.313 1.009-2.203 0-4.217-1.935-4.217-4.424 0-2.504 2.015-4.455 4.217-4.455 1.05 0 1.879.47 2.313.99zm3.179-5.428h1.926V31.3h-1.926zm8.724 7.094c-.217-.554-.87-.942-1.638-.942-.981 0-2.35.877-2.3 2.589l3.938-1.647zm2.27.673l-5.89 2.457c.45.892 1.154 1.345 2.133 1.345.986 0 1.667-.489 2.169-1.228l1.501 1.01c-.48.723-1.647 1.967-3.67 1.967-2.502 0-4.367-1.952-4.367-4.439 0-2.64 1.885-4.44 4.15-4.44 2.286 0 3.409 1.83 3.772 2.823 0 0 .204.505.202.505zm-40.822-1.967c.064.337.1.74.1 1.178 0 1.412-.383 3.16-1.617 4.403-1.204 1.264-2.736 1.937-4.773 1.937-3.771 0-6.941-3.094-6.941-6.896 0-3.801 3.169-6.895 6.94-6.895 2.084 0 3.57.826 4.687 1.9l-1.32 1.33c-.797-.76-1.88-1.345-3.366-1.345-2.75 0-4.904 2.238-4.904 5.01 0 2.773 2.154 5.011 4.904 5.011 1.784 0 2.8-.725 3.453-1.377.535-.54.885-1.314 1.016-2.369h-4.47v-1.887zm7.653 3.079c0-1.6-1.145-2.691-2.477-2.691-1.333 0-2.482 1.09-2.482 2.691 0 1.58 1.15 2.69 2.482 2.69 1.332 0 2.477-1.11 2.477-2.69zm1.946 0c0 2.553-1.982 4.439-4.418 4.439-2.437 0-4.418-1.886-4.418-4.439 0-2.574 1.98-4.44 4.418-4.44 2.436 0 4.418 1.866 4.418 4.44zm7.71 0c0-1.6-1.153-2.691-2.487-2.691-1.335 0-2.482 1.09-2.482 2.691 0 1.58 1.147 2.69 2.482 2.69 1.334 0 2.488-1.11 2.487-2.69zm1.946 0c0 2.553-1.988 4.439-4.428 4.439-2.434 0-4.424-1.886-4.424-4.439 0-2.574 1.99-4.44 4.424-4.44 2.44 0 4.43 1.866 4.428 4.44z"/></g><g><path fill="url(#vnyna)" d="M11.589 7.854c-.303.313-.479.8-.479 1.433v22.547c0 .632.175 1.12.479 1.433l.075.069 12.78-12.63v-.298L11.663 7.78z"/></g><g><path fill="url(#vnynb)" d="M27.84 25.559l-4.51-4.293v-.303l4.517-4.293.1.055 5.35 2.894c1.526.821 1.526 2.171 0 2.997l-5.35 2.888a2.897 2.897 0 0 0-.107.055z"/></g><g><path fill="url(#vnync)" d="M27.778 24.379L23.278 20 10 32.922c.495.506 1.3.567 2.216.062l15.562-8.605"/></g><g><path fill="url(#vnynd)" d="M27.778 16.734L12.216 8.126c-.915-.5-1.721-.44-2.216.066l13.278 12.921z"/></g></g></g></svg>