<svg width="80" height="69" viewBox="0 0 80 69" fill="none" xmlns="http://www.w3.org/2000/svg">
<path fill-rule="evenodd" clip-rule="evenodd" d="M27.9311 62.1C27.9311 61.1471 27.1593 60.375 26.2069 60.375C25.2545 60.375 24.4828 61.1471 24.4828 62.1C24.4828 63.0529 25.2545 63.825 26.2069 63.825C27.1593 63.825 27.9311 63.0529 27.9311 62.1" fill="white"/>
<path fill-rule="evenodd" clip-rule="evenodd" d="M66.2069 62.1C66.2069 63.0529 66.9786 63.825 67.931 63.825C68.8835 63.825 69.6552 63.0529 69.6552 62.1C69.6552 61.1471 68.8835 60.375 67.931 60.375C66.9786 60.375 66.2069 61.1471 66.2069 62.1" fill="white"/>
<path fill-rule="evenodd" clip-rule="evenodd" d="M45.5172 0H6.89655C3.09379 0 0 3.09534 0 6.9V62.1C0 65.9047 3.09379 69 6.89655 69H45.5172C49.32 69 52.4138 65.9047 52.4138 62.1V55.2455L8.10345 55.2014V8.19375H45.431C46.1924 8.19375 46.8103 7.57551 46.8103 6.81375C46.8103 6.05199 46.1924 5.43375 45.431 5.43375H8.10345C6.58207 5.43375 5.34483 6.6723 5.34483 8.19375V55.2014C5.34483 56.7215 6.58069 57.96 8.10069 57.9614L49.6552 58.0035V62.1C49.6552 64.3832 47.7993 66.24 45.5172 66.24H6.89655C4.61448 66.24 2.75862 64.3832 2.75862 62.1V6.9C2.75862 4.61679 4.61448 2.76 6.89655 2.76H45.5172C47.7993 2.76 49.6552 4.61679 49.6552 6.9V51.06C49.6552 51.8218 50.2731 52.44 51.0345 52.44C51.7959 52.44 52.4138 51.8218 52.4138 51.06V6.9C52.4138 3.09534 49.32 0 45.5172 0" fill="white"/>
<path fill-rule="evenodd" clip-rule="evenodd" d="M73.1034 22.0355H62.0358C58.2558 22.0355 55.1621 25.1122 55.1393 28.8934L55.0062 51.0521C55.0014 51.8139 55.6158 52.4355 56.3772 52.4397C57.1276 52.4776 57.76 51.8311 57.7648 51.068L57.8979 28.9114C57.9117 26.642 59.7683 24.7955 62.0358 24.7955H73.1034C75.3855 24.7955 77.2414 26.6523 77.2414 28.9355V62.0997C77.2414 64.3829 75.3855 66.2397 73.1034 66.2397H62.069C59.7869 66.2397 57.931 64.3829 57.931 62.0997V57.9597H71.8965C73.4179 57.9597 74.6552 56.7218 74.6552 55.1997V30.3155C74.6552 28.7941 73.4179 27.5555 71.8965 27.5555H62.1552C61.3938 27.5555 60.7758 28.1738 60.7758 28.9355C60.7758 29.6973 61.3938 30.3155 62.1552 30.3155H71.8965V55.1997H55.1724V62.0997C55.1724 65.9043 58.2662 68.9997 62.069 68.9997H73.1034C76.9062 68.9997 80 65.9043 80 62.0997V28.9355C80 25.1309 76.9062 22.0355 73.1034 22.0355" fill="white"/>
</svg>
