<svg width="80" height="61" viewBox="0 0 80 61" fill="none" xmlns="http://www.w3.org/2000/svg">
<path fill-rule="evenodd" clip-rule="evenodd" d="M39.7688 22.2767H68.641C69.3051 22.2767 69.844 21.7355 69.844 21.0688C69.844 20.402 69.3051 19.8608 68.641 19.8608H39.7688C39.1048 19.8608 38.5658 20.402 38.5658 21.0688C38.5658 21.7355 39.1048 22.2767 39.7688 22.2767" fill="white"/>
<path fill-rule="evenodd" clip-rule="evenodd" d="M39.7688 27.1083H68.641C69.3051 27.1083 69.844 26.5672 69.844 25.9004C69.844 25.2337 69.3051 24.6925 68.641 24.6925H39.7688C39.1048 24.6925 38.5658 25.2337 38.5658 25.9004C38.5658 26.5672 39.1048 27.1083 39.7688 27.1083" fill="white"/>
<path fill-rule="evenodd" clip-rule="evenodd" d="M39.7688 31.9401H59.017C59.681 31.9401 60.22 31.3989 60.22 30.7322C60.22 30.0654 59.681 29.5242 59.017 29.5242H39.7688C39.1048 29.5242 38.5658 30.0654 38.5658 30.7322C38.5658 31.3989 39.1048 31.9401 39.7688 31.9401" fill="white"/>
<path fill-rule="evenodd" clip-rule="evenodd" d="M39.7688 41.6034H59.017C59.681 41.6034 60.22 41.0623 60.22 40.3955C60.22 39.7287 59.681 39.1876 59.017 39.1876H39.7688C39.1048 39.1876 38.5658 39.7287 38.5658 40.3955C38.5658 41.0623 39.1048 41.6034 39.7688 41.6034" fill="white"/>
<mask id="mask0" mask-type="alpha" maskUnits="userSpaceOnUse" x="0" y="0" width="80" height="61">
<path fill-rule="evenodd" clip-rule="evenodd" d="M0 0.464478H79.5374V61H0V0.464478Z" fill="white"/>
</mask>
<g mask="url(#mask0)">
<path fill-rule="evenodd" clip-rule="evenodd" d="M0 0.464233V12.683H73.4532C74.1558 12.683 74.7254 12.111 74.7254 11.4056C74.7254 10.6995 74.1558 10.1276 73.4532 10.1276H2.54496V3.01959H76.9925V58.4444H2.54496V16.2373C2.54496 15.5312 1.97534 14.9593 1.27278 14.9593C0.569624 14.9593 0 15.5312 0 16.2373V60.9998H79.5374V0.464233H0Z" fill="white"/>
</g>
<path fill-rule="evenodd" clip-rule="evenodd" d="M6.08463 5.36578C5.42057 5.36578 4.88162 5.90693 4.88162 6.5737C4.88162 7.24048 5.42057 7.78163 6.08463 7.78163H6.15982C6.82388 7.78163 7.36283 7.24048 7.36283 6.5737C7.36283 5.90693 6.82388 5.36578 6.15982 5.36578H6.08463Z" fill="white"/>
<path fill-rule="evenodd" clip-rule="evenodd" d="M10.8464 5.36578C10.1824 5.36578 9.6687 5.90693 9.6687 6.5737C9.6687 7.24048 10.2323 7.78163 10.8964 7.78163C11.561 7.78163 12.0994 7.24048 12.0994 6.5737C12.0994 5.90693 11.561 5.36578 10.8964 5.36578H10.8464Z" fill="white"/>
<path fill-rule="evenodd" clip-rule="evenodd" d="M15.6585 5.36578C14.9944 5.36578 14.4807 5.90693 14.4807 6.5737C14.4807 7.24048 15.0443 7.78163 15.7084 7.78163C16.373 7.78163 16.9114 7.24048 16.9114 6.5737C16.9114 5.90693 16.373 5.36578 15.7084 5.36578H15.6585Z" fill="white"/>
<path fill-rule="evenodd" clip-rule="evenodd" d="M68.5908 5.36578C67.9267 5.36578 67.3878 5.90693 67.3878 6.5737C67.3878 7.24048 67.9267 7.78163 68.5908 7.78163H68.666C69.33 7.78163 69.869 7.24048 69.869 6.5737C69.869 5.90693 69.33 5.36578 68.666 5.36578H68.5908Z" fill="white"/>
<path fill-rule="evenodd" clip-rule="evenodd" d="M74.4514 5.9031C74.4093 5.83667 74.3612 5.77627 74.301 5.71587C73.8559 5.26894 73.0499 5.26894 72.6048 5.71587C72.5446 5.77627 72.4965 5.83667 72.4544 5.9031C72.4123 5.96954 72.3702 6.03597 72.3401 6.10845C72.31 6.18696 72.286 6.25944 72.2739 6.33795C72.2559 6.41647 72.2499 6.49498 72.2499 6.5735C72.2499 6.65201 72.2559 6.73053 72.2739 6.80904C72.286 6.88756 72.31 6.96003 72.3401 7.03855C72.3702 7.11102 72.4123 7.17746 72.4544 7.24389C72.4965 7.31033 72.5446 7.37073 72.6048 7.43112C72.8273 7.65459 73.1341 7.78142 73.4529 7.78142C73.7717 7.78142 74.0784 7.65459 74.301 7.43112C74.3612 7.37073 74.4093 7.31033 74.4514 7.24389C74.4935 7.17746 74.5356 7.11102 74.5657 7.03855C74.5957 6.96003 74.6138 6.88756 74.6318 6.80904C74.6499 6.73053 74.6559 6.65201 74.6559 6.5735C74.6559 6.49498 74.6499 6.41647 74.6318 6.33795C74.6138 6.25944 74.5957 6.18696 74.5657 6.10845C74.5356 6.03597 74.4935 5.96954 74.4514 5.9031" fill="white"/>
<path fill-rule="evenodd" clip-rule="evenodd" d="M20.5207 5.36578C19.8567 5.36578 19.3177 5.90693 19.3177 6.5737C19.3177 7.24048 19.8567 7.78163 20.5207 7.78163H59.017C59.681 7.78163 60.22 7.24048 60.22 6.5737C60.22 5.90693 59.681 5.36578 59.017 5.36578H20.5207Z" fill="white"/>
<path fill-rule="evenodd" clip-rule="evenodd" d="M16.9117 25.9004C16.9117 23.9019 18.5304 22.2767 20.5207 22.2767C22.5111 22.2767 24.1298 23.9019 24.1298 25.9004V29.5242C24.1298 31.5227 22.5111 33.148 20.5207 33.148C18.5304 33.148 16.9117 31.5227 16.9117 29.5242V25.9004ZM9.69366 39.1876V41.6034H25.3328C25.9968 41.6034 26.5358 41.0623 26.5358 40.3955C26.5358 39.7287 25.9968 39.1876 25.3328 39.1876H12.0997C12.0997 37.1891 13.7183 35.5638 15.7087 35.5638H19.3177H21.7237H25.3328C27.3231 35.5638 28.9418 37.1891 28.9418 39.1876V40.3955C28.9418 41.0623 29.4807 41.6034 30.1448 41.6034C30.8089 41.6034 31.3478 41.0623 31.3478 40.3955V39.1876C31.3478 35.8573 28.6495 33.148 25.3328 33.148H25.3249C26.0828 32.1375 26.5358 30.8837 26.5358 29.5242V25.9004C26.5358 22.5702 23.8374 19.8608 20.5207 19.8608C17.204 19.8608 14.5057 22.5702 14.5057 25.9004V29.5242C14.5057 30.8825 14.955 32.1381 15.7117 33.148H15.7087C12.392 33.148 9.69366 35.8573 9.69366 39.1876V39.1876Z" fill="white"/>
</svg>
