<svg width="100" height="76" viewBox="0 0 100 76" fill="none" xmlns="http://www.w3.org/2000/svg">
<path fill-rule="evenodd" clip-rule="evenodd" d="M1.51515 39.3939C0.678788 39.3939 0 40.0727 0 40.9091V74.2424C0 75.0788 0.678788 75.7576 1.51515 75.7576C2.35152 75.7576 3.0303 75.0788 3.0303 74.2424V40.9091C3.0303 40.0727 2.35152 39.3939 1.51515 39.3939Z" fill="white"/>
<path fill-rule="evenodd" clip-rule="evenodd" d="M59.8485 39.3939H45.4545C42.1129 39.3939 39.3939 42.1129 39.3939 45.4545C39.3939 48.7962 42.1129 51.5152 45.4545 51.5152H95.4545V24.2424H100V9.09091H82.9962C83.7659 7.28485 83.6818 5.2553 82.7227 3.46364C81.5629 1.2947 79.4008 0 76.9409 0C74.7439 0 72.7038 1.09167 71.4848 2.9197L68.1818 7.875L64.8788 2.9197C63.6598 1.09167 61.6197 0 59.4227 0C56.9629 0 54.8008 1.2947 53.6409 3.46364C52.6818 5.2553 52.5977 7.28485 53.3674 9.09091H36.3636V24.2424H87.8788C88.7152 24.2424 89.3939 23.5636 89.3939 22.7273C89.3939 21.8909 88.7152 21.2121 87.8788 21.2121H39.3939V12.1212H58.8917L56.4871 8.51439C55.753 7.41364 55.6879 6.05985 56.3121 4.89318C56.9364 3.72652 58.0992 3.0303 59.4227 3.0303C60.6045 3.0303 61.7015 3.61742 62.3576 4.60076L68.1818 13.3371L74.0061 4.60076C74.6621 3.61742 75.7591 3.0303 76.9409 3.0303C78.2644 3.0303 79.4273 3.72652 80.0515 4.89318C80.6758 6.05985 80.6106 7.41364 79.8765 8.51439L77.472 12.1212H96.9697V21.2121H92.4242V48.4848H45.4545C43.7833 48.4848 42.4242 47.1258 42.4242 45.4545C42.4242 43.7833 43.7833 42.4242 45.4545 42.4242H59.8485C64.0258 42.4242 67.4242 39.0258 67.4242 34.8485C67.4242 30.6712 64.0258 27.2727 59.8485 27.2727H25.7576C18.7508 27.2727 12.9606 32.5856 12.2045 39.3939H6.06061V75.7576H86.3636C89.7053 75.7576 92.4242 73.0386 92.4242 69.697C92.4242 68.5939 92.128 67.5583 91.6106 66.6667H93.9394C97.2811 66.6667 100 63.9477 100 60.6061C100 57.2644 97.2811 54.5455 93.9394 54.5455H62.1212C61.2849 54.5455 60.6061 55.2242 60.6061 56.0606C60.6061 56.897 61.2849 57.5758 62.1212 57.5758H93.9394C95.6106 57.5758 96.9697 58.9348 96.9697 60.6061C96.9697 62.2773 95.6106 63.6364 93.9394 63.6364H68.1818H63.6364H62.1212C61.2849 63.6364 60.6061 64.3151 60.6061 65.1515C60.6061 65.9879 61.2849 66.6667 62.1212 66.6667H63.6364H68.1818H86.3636C88.0349 66.6667 89.3939 68.0258 89.3939 69.697C89.3939 71.3682 88.0349 72.7273 86.3636 72.7273H9.09091V42.4242H15.1515V40.9091C15.1515 35.0606 19.9091 30.303 25.7576 30.303H59.8485C62.3553 30.303 64.3939 32.3417 64.3939 34.8485C64.3939 37.3553 62.3553 39.3939 59.8485 39.3939Z" fill="white"/>
</svg>
