<svg width="80" height="61" viewBox="0 0 80 61" fill="none" xmlns="http://www.w3.org/2000/svg">
<mask id="mask0" mask-type="alpha" maskUnits="userSpaceOnUse" x="0" y="0" width="80" height="61">
<path fill-rule="evenodd" clip-rule="evenodd" d="M0 0.451416H79.9982V61H0" fill="white"/>
</mask>
<g mask="url(#mask0)">
<path fill-rule="evenodd" clip-rule="evenodd" d="M66.6649 40.26V35.38C66.6649 34.7072 67.2085 34.16 67.877 34.16H69.0891C69.7582 34.16 70.3013 33.6135 70.3013 32.94C70.3013 32.2666 69.7582 31.72 69.0891 31.72H67.877C65.8716 31.72 64.2407 33.3615 64.2407 35.38V40.26C64.2407 42.2785 65.8716 43.92 67.877 43.92H72.7255V54.9C72.7255 56.9185 71.0946 58.56 69.0891 58.56H6.06067C5.08915 58.56 4.17582 58.1788 3.48915 57.4877C2.80188 56.7959 2.4237 55.8766 2.4243 54.8988L2.43703 19.442C2.43885 15.2214 5.57036 11.5882 9.754 10.9855L56.7643 2.90974C57.1213 2.84752 57.4722 2.9439 57.7498 3.17936C58.0273 3.41543 58.1801 3.74666 58.1801 4.11205V14.64C58.1801 15.3135 58.7231 15.86 59.3922 15.86C60.0613 15.86 60.6043 15.3135 60.6043 14.64V4.11205C60.6043 3.03113 60.1334 2.01182 59.3128 1.31459C58.4922 0.617361 57.4146 0.322121 56.3564 0.503901L9.37885 8.57542C4.04127 9.34341 0.015213 14.0148 0.0127887 19.4407L6.14718e-05 54.8982C-0.000544589 56.5275 0.629758 58.0598 1.77461 59.2127C2.91885 60.365 4.44127 61 6.06067 61H69.0891C72.431 61 75.1498 58.2636 75.1498 54.9V41.48H67.877C67.2085 41.48 66.6649 40.9329 66.6649 40.26Z" fill="white"/>
</g>
<mask id="mask1" mask-type="alpha" maskUnits="userSpaceOnUse" x="0" y="0" width="80" height="61">
<path fill-rule="evenodd" clip-rule="evenodd" d="M0 0.451416H79.9982V61H0V0.451416Z" fill="white"/>
</mask>
<g mask="url(#mask1)">
<path fill-rule="evenodd" clip-rule="evenodd" d="M75.1498 31.72V24.4C75.1498 21.0365 72.431 18.3 69.0892 18.3H6.05886C5.38977 18.3 4.84674 18.8466 4.84674 19.52C4.84674 20.1935 5.38977 20.74 6.05886 20.74H69.0892C71.0946 20.74 72.7255 22.3816 72.7255 24.4V34.16H77.574V42.697C77.574 43.3704 78.117 43.917 78.7861 43.917C79.4552 43.917 79.9983 43.3704 79.9983 42.697V31.72H75.1498Z" fill="white"/>
</g>
<path fill-rule="evenodd" clip-rule="evenodd" d="M69.0921 37.82C69.0921 38.4934 69.6376 39.04 70.3073 39.04C70.977 39.04 71.5194 38.4934 71.5194 37.82C71.5194 37.1465 70.977 36.6 70.3073 36.6H70.3012C69.6321 36.6 69.0921 37.1465 69.0921 37.82Z" fill="white"/>
<path fill-rule="evenodd" clip-rule="evenodd" d="M31.5134 26.84H37.5746C40.9164 26.84 43.6346 29.5765 43.6352 32.94C43.6352 36.3036 40.9164 39.04 37.5746 39.04H31.5134V26.84ZM25.4528 45.14C24.7837 45.14 24.2407 45.6866 24.2407 46.36C24.2407 47.0335 24.7837 47.58 25.4528 47.58H29.0891V54.9C29.0891 55.5735 29.6322 56.12 30.3013 56.12C30.9704 56.12 31.5134 55.5735 31.5134 54.9V47.58H39.9982C40.6673 47.58 41.2104 47.0335 41.2104 46.36C41.2104 45.6866 40.6673 45.14 39.9982 45.14H31.5134V41.48H37.5746C42.2534 41.48 46.0595 37.6486 46.0595 32.9394C46.0588 28.2308 42.2528 24.4 37.5746 24.4H29.0891V39.04H25.4528C24.7837 39.04 24.2407 39.5866 24.2407 40.26C24.2407 40.9335 24.7837 41.48 25.4528 41.48H29.0891V45.14H25.4528Z" fill="white"/>
</svg>
