<svg width="80" height="61" viewBox="0 0 80 61" fill="none" xmlns="http://www.w3.org/2000/svg">
<path fill-rule="evenodd" clip-rule="evenodd" d="M36.0677 51.3326C37.2089 50.4134 37.8726 49.0427 37.8871 47.5708C37.9016 46.0994 37.2659 44.7153 36.1429 43.7729L33.8859 41.8807C33.4241 41.4933 33.3132 40.8351 33.6229 40.3154L33.8586 39.9201C34.6192 38.644 34.761 37.1117 34.2483 35.716C33.7356 34.3203 32.6368 33.2504 31.2344 32.7795L29.3798 32.1573C30.8544 30.2047 32.8483 28.6711 35.1513 27.7622V29.2799C35.1513 30.2577 35.5289 31.1764 36.2144 31.8675C36.9004 32.5587 37.8126 32.9393 38.7829 32.9393H38.7847H39.6271C38.6968 33.4798 38.0544 34.4192 37.8907 35.497C37.7144 36.656 38.1138 37.8303 38.9598 38.6367L41.2119 40.7845V45.7103C41.2119 47.0468 41.9016 48.2369 43.0568 48.8951C43.6168 49.2141 44.2259 49.3745 44.8398 49.3745C45.4926 49.3745 46.1495 49.1934 46.7544 48.828C48.5695 47.7318 49.6968 45.7273 49.6968 43.5972V42.6999C49.6968 42.0271 50.2404 41.4799 50.9089 41.4799H53.2756C52.661 48.3095 46.9429 53.6799 39.9998 53.6799C38.075 53.6799 36.2453 53.2639 34.5907 52.5215L36.0677 51.3326ZM32.3235 51.2228C28.9053 48.7908 26.6665 44.7849 26.6665 40.2599C26.6665 38.1158 27.1719 36.0881 28.0641 34.2886L30.4677 35.0944C31.1689 35.3299 31.718 35.8649 31.975 36.5627C32.2307 37.2605 32.1604 38.0267 31.7798 38.6648L31.5441 39.06C30.6156 40.618 30.9477 42.5919 32.3344 43.7552L34.5907 45.648C35.1519 46.119 35.4701 46.8107 35.4629 47.5464C35.4556 48.2826 35.1241 48.9683 34.5532 49.4276L32.3235 51.2228ZM37.5756 27.0662C38.3622 26.9198 39.1719 26.8399 39.9998 26.8399C46.9429 26.8399 52.661 32.2103 53.2756 39.0399H50.9089C48.9041 39.0399 47.2726 40.682 47.2726 42.6999V43.5972C47.2726 44.8752 46.5962 46.0781 45.4726 46.757C44.9253 47.0864 44.4362 46.8772 44.2513 46.7723C44.0665 46.6667 43.6362 46.352 43.6362 45.7103V39.7353L40.6271 36.8659C40.3544 36.6048 40.2301 36.2406 40.2871 35.8667C40.3441 35.4915 40.5707 35.181 40.9101 35.0145L41.0047 34.9675C42.0113 34.4728 42.5186 33.4066 42.2671 32.3147C42.0174 31.2282 41.1053 30.4987 39.9701 30.4987H39.9689L38.7841 30.4993H38.7835C38.461 30.4993 38.158 30.373 37.9301 30.1431C37.7016 29.9131 37.5756 29.6063 37.5756 29.2799V27.0662ZM55.7574 40.2599C55.7574 31.5149 48.6889 24.3999 39.9998 24.3999C31.3113 24.3999 24.2422 31.5149 24.2422 40.2599C24.2422 49.0055 31.3113 56.1199 39.9998 56.1199C48.6889 56.1199 55.7574 49.0055 55.7574 40.2599Z" fill="white"/>
<path fill-rule="evenodd" clip-rule="evenodd" d="M73.9394 19.52H15.7576C15.0885 19.52 14.5455 20.0666 14.5455 20.74C14.5455 21.4134 15.0885 21.96 15.7576 21.96H73.9394C75.9448 21.96 77.5758 23.6015 77.5758 25.62V29.28H73.0303L64.5455 58.56H15.4545L6.9697 29.28H2.42424V25.62C2.42424 23.6015 4.05515 21.96 6.06061 21.96H12.1212V10.98C12.1212 6.2708 15.9273 2.44 20.6061 2.44H59.3939C64.0727 2.44 67.8788 6.2708 67.8788 10.98V15.86C67.8788 16.5334 68.4218 17.08 69.0909 17.08C69.76 17.08 70.303 16.5334 70.303 15.86V10.98C70.303 4.92575 65.4091 0 59.3939 0H20.6061C14.5909 0 9.69697 4.92575 9.69697 10.98V19.52H6.06061C2.71879 19.52 0 22.2565 0 25.62V31.72H5.15152L13.6364 61H66.3636L74.8485 31.72H80V25.62C80 22.2565 77.2812 19.52 73.9394 19.52Z" fill="white"/>
</svg>
