<svg width="80" height="61" viewBox="0 0 80 61" fill="none" xmlns="http://www.w3.org/2000/svg">
<mask id="mask0" mask-type="alpha" maskUnits="userSpaceOnUse" x="0" y="0" width="80" height="61">
<path fill-rule="evenodd" clip-rule="evenodd" d="M0 0.566528H80V61H0V0.566528Z" fill="white"/>
</mask>
<g mask="url(#mask0)">
<path fill-rule="evenodd" clip-rule="evenodd" d="M40 0.566833L0 10.5322V17.5152H73.9394C74.6085 17.5152 75.1515 16.974 75.1515 16.3072C75.1515 15.6399 74.6085 15.0993 73.9394 15.0993H2.42424V12.4183L40 3.05696L77.5758 12.4183V58.5845H2.42424V21.1389C2.42424 20.4716 1.88121 19.931 1.21212 19.931C0.54303 19.931 0 20.4716 0 21.1389V61.0003H80V10.5322L40 0.566833Z" fill="white"/>
</g>
<path fill-rule="evenodd" clip-rule="evenodd" d="M26.6666 35.6337V56.1683H53.3333V35.6337H50.909V30.802C50.909 24.8077 46.0151 19.9307 40 19.9307C33.9848 19.9307 29.0909 24.8077 29.0909 30.802V32.0099C29.0909 32.6767 29.6339 33.2178 30.303 33.2178C30.9721 33.2178 31.5151 32.6767 31.5151 32.0099V30.802C31.5151 26.1394 35.3212 22.3465 40 22.3465C44.6787 22.3465 48.4848 26.1394 48.4848 30.802V38.0495H50.909V53.7525H29.0909V38.0495H31.5151V42.8812H47.2727C47.9418 42.8812 48.4848 42.34 48.4848 41.6733C48.4848 41.0065 47.9418 40.4653 47.2727 40.4653H33.9394V35.6337H26.6666Z" fill="white"/>
<path fill-rule="evenodd" clip-rule="evenodd" d="M38.7878 46.505V50.1287C38.7878 50.7955 39.3309 51.3367 40 51.3367C40.6691 51.3367 41.2121 50.7955 41.2121 50.1287V46.505C41.2121 45.8382 40.6691 45.2971 40 45.2971C39.3309 45.2971 38.7878 45.8382 38.7878 46.505Z" fill="white"/>
</svg>
