<svg width="80" height="60" viewBox="0 0 80 60" fill="none" xmlns="http://www.w3.org/2000/svg">
<path fill-rule="evenodd" clip-rule="evenodd" d="M51.7293 28.8H45.7143V20.4C45.7143 17.0916 43.0159 14.4 39.6992 14.4H15.6391C12.3224 14.4 9.62406 17.0916 9.62406 20.4V28.8H3.60902C1.61865 28.8 0 30.4146 0 32.4V55.2H4.81203V60H12.0301V55.2H39.6992C40.3633 55.2 40.9023 54.6624 40.9023 54C40.9023 53.3376 40.3633 52.8 39.6992 52.8H9.62406V57.6H7.21805V52.8H2.40601V32.4C2.40601 31.7382 2.94556 31.2 3.60902 31.2H12.0301V20.4C12.0301 18.4146 13.6487 16.8 15.6391 16.8H39.6992C41.6896 16.8 43.3083 18.4146 43.3083 20.4V31.2H51.7293C52.3928 31.2 52.9323 31.7382 52.9323 32.4V52.8H48.1203V57.6H45.7143V54C45.7143 53.3376 45.1753 52.8 44.5113 52.8C43.8472 52.8 43.3083 53.3376 43.3083 54V60H50.5263V55.2H55.3383V32.4C55.3383 30.4146 53.7197 28.8 51.7293 28.8Z" fill="white"/>
<path fill-rule="evenodd" clip-rule="evenodd" d="M70.9774 57.6H67.3684V26.4H79.8123L71.8724 0H55.6463L47.7064 26.4H60.1503V33.6C60.1503 34.2624 60.6893 34.8 61.3533 34.8C62.0174 34.8 62.5563 34.2624 62.5563 33.6V24H50.9401L57.4363 2.4H70.0824L76.5786 24H64.9624V57.6H58.9473C58.2833 57.6 57.7443 58.1376 57.7443 58.8C57.7443 59.4624 58.2833 60 58.9473 60H64.9624H66.1654H70.9774C71.6415 60 72.1804 59.4624 72.1804 58.8C72.1804 58.1376 71.6415 57.6 70.9774 57.6Z" fill="white"/>
<path fill-rule="evenodd" clip-rule="evenodd" d="M48.1203 48H7.21803V46.8C7.21803 44.8146 8.83667 43.2 10.827 43.2H44.5113C46.5016 43.2 48.1203 44.8146 48.1203 46.8V48ZM50.5263 46.8C50.5263 43.4916 47.828 40.8 44.5113 40.8H10.827C7.51036 40.8 4.81201 43.4916 4.81201 46.8V50.4H50.5263V46.8Z" fill="white"/>
<path fill-rule="evenodd" clip-rule="evenodd" d="M60.3548 37.8677C60.3969 37.9337 60.445 37.9937 60.5052 38.0477C60.5593 38.1017 60.6194 38.1557 60.6856 38.1977C60.7518 38.2397 60.8179 38.2757 60.8901 38.3057C60.9683 38.3357 61.0405 38.3597 61.1187 38.3777C61.1969 38.3897 61.2751 38.4017 61.3533 38.4017C61.4315 38.4017 61.5097 38.3897 61.5879 38.3777C61.6661 38.3597 61.7382 38.3357 61.8164 38.3057C61.8886 38.2757 61.9548 38.2397 62.0209 38.1977C62.0871 38.1557 62.1473 38.1017 62.2014 38.0477C62.2615 37.9937 62.3097 37.9337 62.3518 37.8677C62.3999 37.8017 62.436 37.7297 62.4661 37.6577C62.4961 37.5857 62.5202 37.5137 62.5322 37.4357C62.5503 37.3577 62.5563 37.2797 62.5563 37.2017C62.5563 37.1237 62.5503 37.0457 62.5322 36.9677C62.5202 36.8897 62.4961 36.8117 62.4661 36.7397C62.436 36.6677 62.3999 36.6017 62.3518 36.5357C62.3097 36.4697 62.2615 36.4097 62.2014 36.3497C61.9247 36.0737 61.5097 35.9477 61.1187 36.0257C61.0405 36.0377 60.9683 36.0617 60.8901 36.0917C60.8179 36.1217 60.7518 36.1577 60.6856 36.1997C60.6194 36.2477 60.5593 36.2957 60.5052 36.3497C60.445 36.4097 60.3969 36.4697 60.3548 36.5357C60.3127 36.6017 60.2706 36.6677 60.2405 36.7397C60.2104 36.8117 60.1924 36.8897 60.1743 36.9677C60.1563 37.0457 60.1503 37.1237 60.1503 37.2017C60.1503 37.2797 60.1563 37.3577 60.1743 37.4357C60.1924 37.5137 60.2104 37.5857 60.2405 37.6577C60.2706 37.7297 60.3127 37.8017 60.3548 37.8677Z" fill="white"/>
</svg>
