<svg width="80" height="61" viewBox="0 0 80 61" fill="none" xmlns="http://www.w3.org/2000/svg">
<path fill-rule="evenodd" clip-rule="evenodd" d="M15.2154 38.9114C16.1445 39.3786 17.1627 39.6122 18.1821 39.6122C19.2009 39.6122 20.2191 39.3786 21.1482 38.9114C21.747 38.61 21.9894 37.8774 21.6906 37.2747C21.3906 36.672 20.6627 36.4268 20.0639 36.7288C18.8857 37.3223 17.4779 37.3223 16.2997 36.7288C15.7015 36.4274 14.973 36.672 14.673 37.2747C14.3742 37.8774 14.6166 38.61 15.2154 38.9114Z" fill="white"/>
<path fill-rule="evenodd" clip-rule="evenodd" d="M23.0303 30.5C23.0303 29.8266 22.4873 29.28 21.8182 29.28C21.1491 29.28 20.6061 29.8266 20.6061 30.5C20.6061 31.1734 21.1491 31.72 21.8182 31.72C22.4873 31.72 23.0303 31.1734 23.0303 30.5Z" fill="white"/>
<path fill-rule="evenodd" clip-rule="evenodd" d="M15.7576 30.5C15.7576 29.8266 15.2145 29.28 14.5454 29.28C13.8763 29.28 13.3333 29.8266 13.3333 30.5C13.3333 31.1734 13.8763 31.72 14.5454 31.72C15.2145 31.72 15.7576 31.1734 15.7576 30.5Z" fill="white"/>
<mask id="mask0" mask-type="alpha" maskUnits="userSpaceOnUse" x="0" y="0" width="80" height="61">
<path fill-rule="evenodd" clip-rule="evenodd" d="M0 0H80V61H0" fill="white"/>
</mask>
<g mask="url(#mask0)">
<path fill-rule="evenodd" clip-rule="evenodd" d="M31.5424 48.8283L23.0302 48.7954V50.0202C23.0302 52.0381 21.3993 53.6802 19.3939 53.6802H15.7575C15.0884 53.6802 14.5454 54.2262 14.5454 54.9002C14.5454 55.5737 15.0884 56.1202 15.7575 56.1202H19.3939C22.3193 56.1202 24.7672 54.0231 25.3321 51.2439L31.5321 51.2683C33.5278 51.2775 35.1515 52.9196 35.1515 54.9283V58.5602H2.42418V54.9002C2.42418 52.8818 4.05509 51.2402 6.06054 51.2402H16.9696V43.9202H15.7575C12.4157 43.9202 9.69691 41.1838 9.69691 37.8202V35.3802H8.48479C7.8163 35.3802 7.27267 34.8331 7.27267 34.1602V32.9402C7.27267 32.2662 6.73024 31.7202 6.06054 31.7202C5.39145 31.7202 4.84842 32.2662 4.84842 32.9402V34.1602C4.84842 35.7505 5.86176 37.1078 7.27267 37.611V37.8202C7.27267 42.1146 10.4393 45.6795 14.5454 46.273V48.8002H6.06054C2.71873 48.8002 -6.10352e-05 51.5361 -6.10352e-05 54.9002V61.0002H37.5757V54.9283C37.5757 51.5806 34.8696 48.8436 31.5424 48.8283Z" fill="white"/>
</g>
<path fill-rule="evenodd" clip-rule="evenodd" d="M10.9091 28.06C10.9091 26.7143 11.9964 25.62 13.3334 25.62H16.9697C19.1721 25.62 21.0364 24.134 21.6249 22.1064C23.1358 22.5505 24.2425 23.9577 24.2425 25.62V28.06C24.2425 28.7334 24.7855 29.28 25.4546 29.28C26.1237 29.28 26.6667 28.7334 26.6667 28.06V25.62C26.6667 22.2565 23.9479 19.52 20.6061 19.52H19.394V20.74C19.394 22.0857 18.3067 23.18 16.9697 23.18H13.3334C11.0782 23.18 9.17821 24.7373 8.63821 26.84H7.27275V25.62C7.27275 20.9108 11.0788 17.08 15.7576 17.08H20.6061C25.2849 17.08 29.0909 20.9108 29.0909 25.62V34.16C29.0909 34.8328 28.5473 35.38 27.8788 35.38H26.6667V37.82C26.6667 41.1835 23.9479 43.92 20.6061 43.92C19.937 43.92 19.394 44.4666 19.394 45.14C19.394 45.8134 19.937 46.36 20.6061 46.36C25.2849 46.36 29.0909 42.5292 29.0909 37.82V37.6108C30.5018 37.1075 31.5152 35.7503 31.5152 34.16V25.62C31.5152 19.5657 26.6212 14.64 20.6061 14.64H15.7576C9.74245 14.64 4.84851 19.5657 4.84851 25.62V29.28H10.9091V28.06Z" fill="white"/>
<path fill-rule="evenodd" clip-rule="evenodd" d="M46.0559 23.9765V24.4108C46.0559 27.8805 47.3983 31.1428 49.8359 33.5962C50.522 34.2861 50.8995 35.2041 50.8995 36.1801V37.8198H58.182V29.1212L61.5262 25.194C61.962 24.6822 61.9032 23.9124 61.3953 23.4738C60.8868 23.0352 60.1214 23.095 59.6856 23.6062L56.9698 26.7953L54.2535 23.6062C53.8183 23.0944 53.0529 23.0352 52.5444 23.4738C52.0365 23.9124 51.9777 24.6822 52.4129 25.194L55.7577 29.1218V35.3798H53.2723C53.1008 34.0549 52.5044 32.8306 51.5498 31.8705C49.5705 29.8782 48.4802 27.229 48.4802 24.4108V23.9765C48.4802 21.775 49.3377 19.7107 50.8947 18.165C52.4535 16.618 54.5262 15.7897 56.708 15.8128L56.9971 15.8171C61.6474 15.8787 65.4305 19.7345 65.4305 24.4132V24.6707C65.4305 27.3211 64.4044 29.813 62.5426 31.6875L62.3444 31.8863C61.2111 33.027 60.5868 34.5441 60.5868 36.1582V42.6913H52.1214C51.4517 42.6913 50.9092 43.2378 50.9092 43.9113C50.9092 44.5853 51.4517 45.1313 52.1214 45.1313H63.0111V36.1582C63.0111 35.1962 63.3826 34.2916 64.0589 33.6114L64.2565 33.4126C66.5765 31.0775 67.8547 27.9726 67.8547 24.6707V24.4132C67.8547 18.4072 62.9983 13.4564 57.028 13.3771L56.7389 13.3728C53.8935 13.3271 51.2159 14.419 49.1929 16.4277C47.1698 18.4358 46.0559 21.1168 46.0559 23.9765Z" fill="white"/>
<path fill-rule="evenodd" clip-rule="evenodd" d="M52.1212 41.48H56.9697C57.6388 41.48 58.1818 40.9334 58.1818 40.26C58.1818 39.5866 57.6388 39.04 56.9697 39.04H52.1212C51.4521 39.04 50.9091 39.5866 50.9091 40.26C50.9091 40.9334 51.4521 41.48 52.1212 41.48Z" fill="white"/>
<path fill-rule="evenodd" clip-rule="evenodd" d="M58.1818 9.76V6.1C58.1818 5.42656 57.6388 4.88 56.9697 4.88C56.3006 4.88 55.7576 5.42656 55.7576 6.1V9.76C55.7576 10.4334 56.3006 10.98 56.9697 10.98C57.6388 10.98 58.1818 10.4334 58.1818 9.76Z" fill="white"/>
<path fill-rule="evenodd" clip-rule="evenodd" d="M68.2339 8.89739L65.8097 11.3374C65.3363 11.8138 65.3363 12.5861 65.8097 13.0625C66.046 13.301 66.3563 13.4199 66.6666 13.4199C66.9769 13.4199 67.2872 13.301 67.5236 13.0625L69.9478 10.6225C70.4212 10.1461 70.4212 9.3738 69.9478 8.89739C69.4751 8.42098 68.7066 8.42098 68.2339 8.89739Z" fill="white"/>
<path fill-rule="evenodd" clip-rule="evenodd" d="M45.7055 8.89739C45.2328 8.42098 44.4643 8.42098 43.9916 8.89739C43.5183 9.3738 43.5183 10.1461 43.9916 10.6225L46.4158 13.0625C46.6522 13.301 46.9625 13.4199 47.2728 13.4199C47.5831 13.4199 47.8934 13.301 48.1298 13.0625C48.6031 12.5861 48.6031 11.8138 48.1298 11.3374L45.7055 8.89739Z" fill="white"/>
<path fill-rule="evenodd" clip-rule="evenodd" d="M69.0909 0H44.8485C38.8333 0 33.9394 4.92575 33.9394 10.98V31.72C33.9394 32.3934 34.4824 32.94 35.1515 32.94C35.8206 32.94 36.3636 32.3934 36.3636 31.72V10.98C36.3636 6.2708 40.1697 2.44 44.8485 2.44H69.0909C73.7697 2.44 77.5758 6.2708 77.5758 10.98V39.04C77.5758 43.7492 73.7697 47.58 69.0909 47.58H44.8485C40.1697 47.58 36.3636 43.7492 36.3636 39.04V36.6C36.3636 35.9266 35.8206 35.38 35.1515 35.38C34.4824 35.38 33.9394 35.9266 33.9394 36.6V39.04C33.9394 45.0942 38.8333 50.02 44.8485 50.02H69.0909C75.1061 50.02 80 45.0942 80 39.04V10.98C80 4.92575 75.1061 0 69.0909 0Z" fill="white"/>
<path fill-rule="evenodd" clip-rule="evenodd" d="M69.0909 19.52C69.0909 20.1934 69.634 20.74 70.3031 20.74H73.9394C74.6085 20.74 75.1515 20.1934 75.1515 19.52C75.1515 18.8466 74.6085 18.3 73.9394 18.3H70.3031C69.634 18.3 69.0909 18.8466 69.0909 19.52Z" fill="white"/>
<path fill-rule="evenodd" clip-rule="evenodd" d="M40 18.3C39.3309 18.3 38.7879 18.8466 38.7879 19.52C38.7879 20.1934 39.3309 20.74 40 20.74H43.6364C44.3055 20.74 44.8485 20.1934 44.8485 19.52C44.8485 18.8466 44.3055 18.3 43.6364 18.3H40Z" fill="white"/>
</svg>
