<svg width="447" height="522" viewBox="0 0 447 522" fill="none" xmlns="http://www.w3.org/2000/svg">
<path fill-rule="evenodd" clip-rule="evenodd" d="M340.506 166.25L388.213 60.8019L262.567 122.744L223.222 21.0405L135.182 111.477L61.8432 44.6452L-11.2484 165.888L-122.129 90.0048L-63.0055 227.974L-127.544 320.176L13.8075 369.953L28.4245 488.998L138.787 378.784L212.913 467.626L229.675 332.207L372.123 382.616L328.933 272.824L420.19 243.464L340.506 166.25Z" fill="white"/>
<path fill-rule="evenodd" clip-rule="evenodd" d="M335.03 182.908L378.906 82.4692L272.934 126.844L244.039 18.4846L135.375 111.241L59.7834 65.9731L2.96755 169.35L-128.065 107.001L-68.9327 244.662L-133.575 336.699L7.90643 386.318L22.4925 505.112L133.015 395.082L203.981 457.275L224.017 348.566L373.21 385.119L323.403 289.267L421.161 243.17L335.03 182.908Z" fill="#F91155"/>
</svg>
