<svg width="197" height="198" fill="none" xmlns="http://www.w3.org/2000/svg"><path d="M98.389 197.204a2.515 2.515 0 0 1-2.516-2.516v-20.163c-19.081-.625-36.394-8.342-49.392-20.595L32.02 168.393a2.515 2.515 0 0 1-3.558 0 2.515 2.515 0 0 1 0-3.558l14.475-14.476c-12.044-12.954-19.617-30.115-20.235-49.008H2.535a2.515 2.515 0 1 1 0-5.032H22.7c.618-18.893 8.192-36.055 20.235-49.009L28.46 32.834a2.514 2.514 0 0 1 0-3.557 2.514 2.514 0 0 1 3.558 0L46.48 43.739c12.998-12.253 30.31-19.97 49.392-20.594V2.98a2.516 2.516 0 1 1 5.032 0v20.165c19.03.624 36.304 8.302 49.291 20.5l14.368-14.37a2.513 2.513 0 0 1 3.557 0 2.513 2.513 0 0 1 0 3.558l-14.373 14.374c12.098 12.966 19.709 30.169 20.33 49.11h20.164a2.515 2.515 0 1 1 0 5.032h-20.164c-.621 18.941-8.232 36.144-20.33 49.11l14.373 14.374a2.513 2.513 0 0 1 0 3.558 2.514 2.514 0 0 1-3.557 0l-14.368-14.369c-12.986 12.197-30.26 19.877-49.291 20.5v20.164a2.516 2.516 0 0 1-2.516 2.517zm0-169.067c-38.984 0-70.699 31.715-70.699 70.698 0 38.984 31.715 70.699 70.699 70.699 38.983 0 70.699-31.715 70.699-70.699 0-38.983-31.715-70.698-70.7-70.698zm0 131.836c-16.715 0-31.886-6.743-42.934-17.652a2.448 2.448 0 0 1-.553-.552c-10.91-11.048-17.651-26.218-17.651-42.934 0-16.716 6.742-31.885 17.65-42.933a2.523 2.523 0 0 1 .554-.553c11.049-10.91 26.219-17.653 42.934-17.653 16.718 0 31.888 6.743 42.936 17.654.104.076.202.16.294.253.094.092.177.191.253.294 10.911 11.048 17.655 26.219 17.655 42.937 0 16.718-6.744 31.89-17.655 42.938a2.573 2.573 0 0 1-.547.546c-11.048 10.911-26.217 17.655-42.936 17.655zm2.516-38.127v33.04c13.578-.602 25.913-6.051 35.32-14.656l-23.351-23.352a23.054 23.054 0 0 1-11.969 4.968zm-40.351 18.382c9.406 8.605 21.742 14.055 35.32 14.657v-33.04a23.035 23.035 0 0 1-11.97-4.969l-23.35 23.352zm55.878-26.909l23.351 23.352c8.606-9.406 14.055-21.742 14.656-35.32H121.4a23.036 23.036 0 0 1-4.968 11.968zm-74.093-11.968c.602 13.578 6.05 25.914 14.656 35.319l23.351-23.351a23.045 23.045 0 0 1-4.968-11.968H42.339zm56.05-20.63c-9.989 0-18.115 8.126-18.115 18.114 0 9.989 8.126 18.115 18.115 18.115 9.988 0 18.115-8.126 18.115-18.115 0-9.988-8.127-18.115-18.115-18.115zM121.4 96.318h33.039c-.602-13.578-6.051-25.913-14.656-35.32L116.432 84.35a23.048 23.048 0 0 1 4.969 11.97zm-79.062 0h33.039a23.035 23.035 0 0 1 4.97-11.969L56.994 61c-8.605 9.407-14.054 21.742-14.656 35.32zM60.553 57.44l23.35 23.352a23.042 23.042 0 0 1 11.97-4.969v-33.04c-13.58.601-25.915 6.05-35.32 14.657zm40.351 18.382a23.047 23.047 0 0 1 11.969 4.969l23.351-23.352c-9.407-8.605-21.742-14.055-35.32-14.656v33.04z" fill="#fff" fill-opacity=".2"/></svg>