<svg width="20" height="51" viewBox="0 0 20 51" fill="none" xmlns="http://www.w3.org/2000/svg">
<mask id="mask0" mask-type="alpha" maskUnits="userSpaceOnUse" x="0" y="0" width="20" height="51">
<path fill-rule="evenodd" clip-rule="evenodd" d="M0 0H19.6958V50.7274H0V0Z" fill="white"/>
</mask>
<g mask="url(#mask0)">
<path fill-rule="evenodd" clip-rule="evenodd" d="M8.33316 6.06016C8.33316 5.22227 9.0121 4.5449 9.84789 4.5449C10.6842 4.5449 11.3632 5.22227 11.3632 6.06016C11.3632 6.89648 10.6842 7.57542 9.84789 7.57542C9.0121 7.57542 8.33316 6.89648 8.33316 6.06016V6.06016ZM8.33316 1.5149C8.33316 0.678581 9.0121 -0.000366211 9.84789 -0.000366211C10.6842 -0.000366211 11.3632 0.678581 11.3632 1.5149C11.3632 2.35279 10.6842 3.03016 9.84789 3.03016C9.0121 3.03016 8.33316 2.35279 8.33316 1.5149V1.5149ZM7.07842 41.1675C7.46474 41.3107 7.66684 41.7417 7.53421 42.1275C7.39895 42.5175 6.96526 42.7302 6.57105 42.5959C5.71105 42.2923 3.70158 41.4523 2.08263 39.3828C0.115263 36.8654 0.00157895 34.1638 0 33.3044V18.9112C0.00157895 18.1633 0.091579 14.9391 2.61421 12.2144C5.46053 9.14174 9.21526 9.06542 9.84789 9.06332C10.4753 9.06332 14.2526 9.12753 17.1016 12.2144C19.6184 14.9417 19.6968 18.167 19.6958 18.9112V33.3044C19.7 34.1523 19.6 36.6881 17.8053 39.1381C16.1289 41.4265 13.9463 42.3091 13.1263 42.5954C12.7342 42.7312 12.2995 42.5212 12.1621 42.1291C12.0258 41.7354 12.2374 41.3007 12.6295 41.1638C13.3553 40.9023 15.0753 40.1712 16.4484 38.3823C18.0663 36.2754 18.1758 34.0412 18.1805 33.3044V18.9112C18.1805 18.3059 18.1163 15.5012 15.9 13.1659C13.4942 10.6312 10.3832 10.5781 9.84789 10.5781C9.33053 10.5796 6.00842 10.6481 3.58263 13.4002C1.39632 15.8791 1.48474 18.7833 1.51474 19.3749V33.3044C1.52263 34.0449 1.64 36.2107 3.19316 38.2881C4.58684 40.1533 6.36105 40.907 7.07842 41.1675V41.1675ZM10.6058 48.1517L13.1058 45.6517C13.2568 45.5007 13.4089 45.4244 13.6358 45.4244C13.8632 45.4244 14.0147 45.5007 14.1663 45.6517C14.4689 45.956 14.4689 46.4096 14.1663 46.7133L10.3784 50.5007C10.2268 50.6523 10.0374 50.7275 9.84789 50.7275C9.65895 50.7275 9.46947 50.6523 9.31789 50.5007L5.53 46.7133C5.22737 46.4096 5.22737 45.956 5.53 45.6517C5.68158 45.5007 5.83316 45.4244 6.06053 45.4244C6.28789 45.4244 6.43947 45.5007 6.59053 45.6517L9.09053 48.1517V37.8491C9.09053 37.3954 9.39368 37.0917 9.84789 37.0917C10.3026 37.0917 10.6058 37.3954 10.6058 37.8491V48.1517ZM9.8479 18.1538C10.2663 18.1538 10.6058 18.4923 10.6058 18.9112V23.4565C10.6058 23.8754 10.2663 24.2138 9.8479 24.2138C9.43 24.2138 9.09053 23.8754 9.09053 23.4565V18.9112C9.09053 18.4923 9.43 18.1538 9.8479 18.1538V18.1538Z" fill="white"/>
</g>
</svg>
