<svg width="20" height="52" viewBox="0 0 20 52" fill="none" xmlns="http://www.w3.org/2000/svg">
<mask id="mask0" mask-type="alpha" maskUnits="userSpaceOnUse" x="0" y="0" width="20" height="51">
<path fill-rule="evenodd" clip-rule="evenodd" d="M0 0H19.6958V50.7274H0V0Z" fill="white"/>
</mask>
<g mask="url(#mask0)">
<path fill-rule="evenodd" clip-rule="evenodd" d="M8.33316 6.06053C8.33316 5.22263 9.0121 4.54526 9.84789 4.54526C10.6842 4.54526 11.3632 5.22263 11.3632 6.06053C11.3632 6.89684 10.6842 7.57579 9.84789 7.57579C9.0121 7.57579 8.33316 6.89684 8.33316 6.06053ZM8.33316 1.51526C8.33316 0.678947 9.0121 0 9.84789 0C10.6842 0 11.3632 0.678947 11.3632 1.51526C11.3632 2.35316 10.6842 3.03053 9.84789 3.03053C9.0121 3.03053 8.33316 2.35316 8.33316 1.51526ZM7.07842 41.1679C7.46474 41.3111 7.66684 41.7421 7.53421 42.1279C7.39895 42.5179 6.96526 42.7305 6.57105 42.5963C5.71105 42.2926 3.70158 41.4526 2.08263 39.3832C0.115263 36.8658 0.00157895 34.1642 0 33.3047V18.9116C0.00157895 18.1637 0.091579 14.9395 2.61421 12.2147C5.46053 9.14211 9.21526 9.06579 9.84789 9.06368C10.4753 9.06368 14.2526 9.1279 17.1016 12.2147C19.6184 14.9421 19.6968 18.1674 19.6958 18.9116V33.3047C19.7 34.1526 19.6 36.6884 17.8053 39.1384C16.1289 41.4268 13.9463 42.3095 13.1263 42.5958C12.7342 42.7316 12.2995 42.5216 12.1621 42.1295C12.0258 41.7358 12.2374 41.3011 12.6295 41.1642C13.3553 40.9026 15.0753 40.1716 16.4484 38.3826C18.0663 36.2758 18.1758 34.0416 18.1805 33.3047V18.9116C18.1805 18.3063 18.1163 15.5016 15.9 13.1663C13.4942 10.6316 10.3832 10.5784 9.84789 10.5784C9.33053 10.58 6.00842 10.6484 3.58263 13.4005C1.39632 15.8795 1.48474 18.7837 1.51474 19.3753V33.3047C1.52263 34.0453 1.64 36.2111 3.19316 38.2884C4.58684 40.1537 6.36105 40.9074 7.07842 41.1679ZM10.6058 48.1521L13.1058 45.6521C13.2568 45.5011 13.4089 45.4247 13.6358 45.4247C13.8632 45.4247 14.0147 45.5011 14.1663 45.6521C14.4689 45.9563 14.4689 46.41 14.1663 46.7137L10.3784 50.5011C10.2268 50.6526 10.0374 50.7279 9.84789 50.7279C9.65895 50.7279 9.46947 50.6526 9.31789 50.5011L5.53 46.7137C5.22737 46.41 5.22737 45.9563 5.53 45.6521C5.68158 45.5011 5.83316 45.4247 6.06053 45.4247C6.28789 45.4247 6.43947 45.5011 6.59053 45.6521L9.09053 48.1521V37.8495C9.09053 37.3958 9.39368 37.0921 9.84789 37.0921C10.3026 37.0921 10.6058 37.3958 10.6058 37.8495V48.1521ZM9.84789 18.1542C10.2663 18.1542 10.6058 18.4926 10.6058 18.9116V23.4568C10.6058 23.8758 10.2663 24.2142 9.84789 24.2142C9.43 24.2142 9.09053 23.8758 9.09053 23.4568V18.9116C9.09053 18.4926 9.43 18.1542 9.84789 18.1542Z" fill="#797979"/>
</g>
</svg>
