<svg width="37" height="21" viewBox="0 0 37 21" fill="none" xmlns="http://www.w3.org/2000/svg">
<mask id="mask0" mask-type="alpha" maskUnits="userSpaceOnUse" x="0" y="0" width="37" height="21">
<path fill-rule="evenodd" clip-rule="evenodd" d="M0 0.188404H37V20.1884H0V0.188404Z" fill="white"/>
</mask>
<g mask="url(#mask0)">
<path fill-rule="evenodd" clip-rule="evenodd" d="M6.1799 11.7266C5.32551 11.7266 4.63533 11.0371 4.63533 10.1884C4.63533 9.33922 5.32551 8.64979 6.1799 8.64979C7.03269 8.64979 7.72502 9.33922 7.72502 10.1884C7.72502 11.0371 7.03269 11.7266 6.1799 11.7266ZM1.54511 11.7266C0.692321 11.7266 0 11.0371 0 10.1884C0 9.33922 0.692321 8.64979 1.54511 8.64979C2.39951 8.64979 3.09022 9.33922 3.09022 10.1884C3.09022 11.0371 2.39951 11.7266 1.54511 11.7266ZM27.2517 13.0007C27.3977 12.6084 27.8372 12.4032 28.2301 12.5379C28.6283 12.6752 28.8451 13.1156 28.7088 13.5164C28.3986 14.3892 27.542 16.4302 25.4318 18.0736C22.8648 20.0714 20.1106 20.1868 19.2336 20.1884H19.2841C18.5215 20.1868 15.2343 20.0954 12.4553 17.5338C9.32218 14.6436 9.24436 10.8308 9.24222 10.1884C9.24222 9.55139 9.30769 5.71624 12.4553 2.82276C15.2364 0.267059 18.5252 0.187427 19.2841 0.188496H19.2336C20.0982 0.184755 22.684 0.286299 25.1822 2.10821C27.5157 3.81041 28.4158 6.02675 28.7077 6.85941C28.8462 7.25757 28.632 7.69902 28.2317 7.83851C27.8308 7.97693 27.3875 7.76262 27.2479 7.36392C26.9812 6.62693 26.2357 4.88037 24.4116 3.48601C22.2632 1.84313 19.985 1.73197 19.2336 1.72716H19.2841C18.6669 1.72716 15.8069 1.79236 13.4257 4.0429C10.841 6.48583 10.7868 9.64492 10.7868 10.1884C10.7884 10.7138 10.8582 14.0872 13.6645 16.5505C16.1928 18.7705 19.1531 18.6807 19.7569 18.6503H19.2336C19.9888 18.6423 22.1972 18.5231 24.3155 16.9465C26.217 15.5307 26.986 13.7291 27.2517 13.0007ZM34.3735 9.41885L31.8242 6.88079C31.6702 6.72687 31.5929 6.57295 31.5929 6.34207C31.5929 6.11119 31.6702 5.95727 31.8242 5.80335C32.1339 5.49605 32.5971 5.49605 32.9067 5.80335L36.7687 9.64973C36.9233 9.80365 37 9.99605 37 10.1884C37 10.3803 36.9233 10.5727 36.7687 10.7266L32.9067 14.573C32.5971 14.8803 32.1339 14.8803 31.8242 14.573C31.6702 14.4191 31.5929 14.2652 31.5929 14.0343C31.5929 13.8034 31.6702 13.65 31.8242 13.4961L34.3735 10.9575H23.8679C23.4053 10.9575 23.0956 10.6497 23.0956 10.1884C23.0956 9.72669 23.4053 9.41885 23.8679 9.41885H34.3735Z" fill="white"/>
</g>
</svg>
