<svg width="37" height="21" viewBox="0 0 37 21" fill="none" xmlns="http://www.w3.org/2000/svg">
<mask id="mask0" mask-type="alpha" maskUnits="userSpaceOnUse" x="0" y="0" width="37" height="21">
<path fill-rule="evenodd" clip-rule="evenodd" d="M0 0.188354H37V20.1884H0V0.188354Z" fill="white"/>
</mask>
<g mask="url(#mask0)">
<path fill-rule="evenodd" clip-rule="evenodd" d="M6.1799 11.7266C5.32551 11.7266 4.63533 11.0372 4.63533 10.1885C4.63533 9.33926 5.32551 8.64983 6.1799 8.64983C7.03269 8.64983 7.72502 9.33926 7.72502 10.1885C7.72502 11.0372 7.03269 11.7266 6.1799 11.7266ZM1.54511 11.7266C0.692321 11.7266 0 11.0372 0 10.1885C0 9.33926 0.692321 8.64983 1.54511 8.64983C2.39951 8.64983 3.09022 9.33926 3.09022 10.1885C3.09022 11.0372 2.39951 11.7266 1.54511 11.7266ZM27.2517 13.0007C27.3977 12.6084 27.8372 12.4032 28.2301 12.5379C28.6283 12.6753 28.8451 13.1156 28.7088 13.5165C28.3986 14.3892 27.542 16.4302 25.4318 18.0737C22.8648 20.0714 20.1106 20.1868 19.2336 20.1884H19.2841C18.5215 20.1868 15.2343 20.0954 12.4553 17.5339C9.32218 14.6436 9.24436 10.8309 9.24222 10.1885C9.24222 9.55143 9.30769 5.71627 12.4553 2.8228C15.2364 0.267098 18.5252 0.187466 19.2841 0.188534H19.2336C20.0982 0.184793 22.684 0.286337 25.1822 2.10825C27.5157 3.81045 28.4158 6.02678 28.7077 6.85945C28.8462 7.25761 28.632 7.69906 28.2317 7.83854C27.8308 7.97696 27.3875 7.76265 27.2479 7.36396C26.9812 6.62696 26.2357 4.88041 24.4116 3.48604C22.2632 1.84317 19.985 1.732 19.2336 1.72719H19.2841C18.6669 1.72719 15.8069 1.7924 13.4257 4.04293C10.841 6.48587 10.7868 9.64496 10.7868 10.1885C10.7884 10.7138 10.8582 14.0872 13.6645 16.5505C16.1928 18.7706 19.1531 18.6808 19.7569 18.6503H19.2336C19.9888 18.6423 22.1972 18.5231 24.3155 16.9465C26.217 15.5308 26.986 13.7292 27.2517 13.0007ZM34.3735 9.41889L31.8242 6.88082C31.6702 6.7269 31.5929 6.57298 31.5929 6.34211C31.5929 6.11123 31.6702 5.95731 31.8242 5.80339C32.1339 5.49608 32.5971 5.49608 32.9067 5.80339L36.7687 9.64977C36.9233 9.80369 37 9.99609 37 10.1885C37 10.3804 36.9233 10.5728 36.7687 10.7267L32.9067 14.5731C32.5971 14.8804 32.1339 14.8804 31.8242 14.5731C31.6702 14.4191 31.5929 14.2652 31.5929 14.0343C31.5929 13.8035 31.6702 13.6501 31.8242 13.4962L34.3735 10.9576H23.8679C23.4053 10.9576 23.0956 10.6497 23.0956 10.1885C23.0956 9.72673 23.4053 9.41889 23.8679 9.41889H34.3735Z" fill="#797979"/>
</g>
</svg>
