<svg width="80" height="61" viewBox="0 0 80 61" fill="none" xmlns="http://www.w3.org/2000/svg">
<path fill-rule="evenodd" clip-rule="evenodd" d="M0 0V12.1872H73.56C74.2634 12.1872 74.834 11.6166 74.834 10.9125C74.834 10.2083 74.2634 9.63849 73.56 9.63849H2.54868V2.54868H77.1041V57.8287H2.54868V15.7313C2.54868 15.0279 1.97811 14.4574 1.27396 14.4574C0.570566 14.4574 0 15.0279 0 15.7313V60.3774H79.6536V0H0Z" fill="white"/>
<path fill-rule="evenodd" clip-rule="evenodd" d="M6.09371 4.88867C5.42805 4.88867 4.88843 5.42829 4.88843 6.0932C4.88843 6.75886 5.42805 7.29773 6.09371 7.29773H6.16918C6.83409 7.29773 7.37296 6.75886 7.37296 6.0932C7.37296 5.42829 6.83409 4.88867 6.16918 4.88867H6.09371Z" fill="white"/>
<path fill-rule="evenodd" clip-rule="evenodd" d="M10.8624 4.88867C10.1967 4.88867 9.68274 5.42829 9.68274 6.0932C9.68274 6.75886 10.2473 7.29773 10.9122 7.29773C11.5778 7.29773 12.1175 6.75886 12.1175 6.0932C12.1175 5.42829 11.5778 4.88867 10.9122 4.88867H10.8624Z" fill="white"/>
<path fill-rule="evenodd" clip-rule="evenodd" d="M15.681 4.88867C15.0161 4.88867 14.5021 5.42829 14.5021 6.0932C14.5021 6.75886 15.0667 7.29773 15.7316 7.29773C16.3965 7.29773 16.9361 6.75886 16.9361 6.0932C16.9361 5.42829 16.3965 4.88867 15.7316 4.88867H15.681Z" fill="white"/>
<path fill-rule="evenodd" clip-rule="evenodd" d="M68.691 4.88867C68.0253 4.88867 67.4857 5.42829 67.4857 6.0932C67.4857 6.75886 68.0253 7.29773 68.691 7.29773H68.7665C69.4306 7.29773 69.9702 6.75886 69.9702 6.0932C69.9702 5.42829 69.4306 4.88867 68.7665 4.88867H68.691Z" fill="white"/>
<path fill-rule="evenodd" clip-rule="evenodd" d="M74.56 5.42448C74.5177 5.35882 74.4694 5.29844 74.4158 5.23806C74.3555 5.18372 74.2943 5.13542 74.2287 5.09391C74.163 5.05089 74.0958 5.00863 74.0241 4.97919C73.9457 4.949 73.8732 4.93089 73.7947 4.91278C73.6377 4.88259 73.4815 4.88259 73.3245 4.91278C73.2468 4.93089 73.1743 4.949 73.0966 4.97919C73.0241 5.00863 72.9577 5.05089 72.8913 5.09391C72.8249 5.13542 72.7645 5.18372 72.7049 5.23806C72.6506 5.29844 72.6015 5.35882 72.56 5.42448C72.5177 5.49089 72.4755 5.55731 72.4453 5.62976C72.4151 5.7075 72.3977 5.77995 72.3789 5.85844C72.3615 5.93693 72.3555 6.01467 72.3555 6.09316C72.3555 6.17165 72.3615 6.25014 72.3789 6.32787C72.3977 6.40636 72.4151 6.47882 72.4453 6.55731C72.4755 6.629 72.5177 6.69617 72.56 6.76183C72.6015 6.82825 72.6506 6.88863 72.7049 6.949C72.7645 7.00259 72.8249 7.05089 72.8913 7.09316C72.9577 7.14146 73.0241 7.17768 73.0966 7.20787C73.1743 7.23806 73.2468 7.26221 73.3245 7.27429C73.4038 7.2924 73.4815 7.29768 73.56 7.29768C73.6377 7.29768 73.717 7.2924 73.7947 7.27429C73.8732 7.26221 73.9457 7.23806 74.0241 7.20787C74.0958 7.17768 74.163 7.14146 74.2287 7.09316C74.2943 7.05089 74.3555 7.00259 74.4158 6.949C74.4694 6.88863 74.5177 6.82825 74.56 6.76183C74.6075 6.69617 74.6438 6.629 74.674 6.55731C74.7041 6.47882 74.7291 6.40636 74.7404 6.32787C74.7585 6.25014 74.7645 6.17165 74.7645 6.09316C74.7645 6.01467 74.7585 5.93693 74.7404 5.85844C74.7291 5.77995 74.7041 5.7075 74.674 5.62976C74.6438 5.55731 74.6075 5.49089 74.56 5.42448Z" fill="white"/>
<path fill-rule="evenodd" clip-rule="evenodd" d="M20.5506 4.88867C19.8849 4.88867 19.3453 5.42829 19.3453 6.0932C19.3453 6.75886 19.8849 7.29773 20.5506 7.29773H59.103C59.7687 7.29773 60.3075 6.75886 60.3075 6.0932C60.3075 5.42829 59.7687 4.88867 59.103 4.88867H20.5506Z" fill="white"/>
<path fill-rule="evenodd" clip-rule="evenodd" d="M21.7556 30.0653C21.7556 29.3996 21.216 28.8608 20.5503 28.8608H9.43787L11.7767 40.3491C12.0892 42.0691 13.585 43.3174 15.333 43.3174H25.7677C27.5164 43.3174 29.0115 42.0691 29.3194 40.3747L31.6635 28.8608H26.5745V25.2464C26.5745 23.2532 24.9526 21.6321 22.9601 21.6321H18.1413C16.1481 21.6321 14.5269 23.2532 14.5269 25.2464C14.5269 25.9113 15.0665 26.4509 15.7322 26.4509C16.3964 26.4509 16.936 25.9113 16.936 25.2464C16.936 24.5815 17.4764 24.0419 18.1413 24.0419H22.9601C23.625 24.0419 24.1647 24.5815 24.1647 25.2464V31.2698H28.7141L26.9541 39.9189C26.8492 40.4917 26.3511 40.9083 25.7677 40.9083H15.333C14.7503 40.9083 14.2522 40.4917 14.1428 39.894L12.3873 31.2698H20.5503C21.216 31.2698 21.7556 30.7302 21.7556 30.0653Z" fill="white"/>
<path fill-rule="evenodd" clip-rule="evenodd" d="M60.1069 42.2595H43.2397C42.5756 42.2595 42.0359 41.7198 42.0359 41.0549C42.0359 40.3893 42.5756 39.8504 43.2397 39.8504H60.1069C63.9824 39.8504 67.1348 36.6972 67.1348 32.8225C67.1348 28.947 63.9824 25.7946 60.1069 25.7946H43.2397C42.5756 25.7946 42.0359 25.2549 42.0359 24.59C42.0359 23.9244 42.5756 23.3855 43.2397 23.3855H60.1069C65.3107 23.3855 69.5446 27.6187 69.5446 32.8225C69.5446 38.0263 65.3107 42.2595 60.1069 42.2595Z" fill="white"/>
<path fill-rule="evenodd" clip-rule="evenodd" d="M46.847 45.7809C46.5391 45.7809 46.2304 45.6632 45.9949 45.4277L41.4493 40.8821L46.1285 36.2028C46.5995 35.7319 47.3617 35.7319 47.8327 36.2028C48.3029 36.673 48.3029 37.4353 47.8327 37.9062L44.8561 40.8821L47.6991 43.7243C48.1693 44.1945 48.1693 44.9575 47.6991 45.4277C47.4629 45.6632 47.1549 45.7809 46.847 45.7809Z" fill="white"/>
</svg>
