<svg width="80" height="61" viewBox="0 0 80 61" fill="none" xmlns="http://www.w3.org/2000/svg">
<path fill-rule="evenodd" clip-rule="evenodd" d="M60.377 33.8113H48.3015V50.7169H65.2072V42.2641C65.2072 41.5969 64.6668 41.0566 64.0004 41.0566C63.3332 41.0566 62.7921 41.5969 62.7921 42.2641V48.3018H50.7166V36.2264H60.377C61.0442 36.2264 61.5853 35.6852 61.5853 35.0188C61.5853 34.3517 61.0442 33.8113 60.377 33.8113Z" fill="white"/>
<mask id="mask0" mask-type="alpha" maskUnits="userSpaceOnUse" x="0" y="0" width="80" height="61">
<path fill-rule="evenodd" clip-rule="evenodd" d="M0 0.000244141H79.6979V60.3775H0V0.000244141Z" fill="white"/>
</mask>
<g mask="url(#mask0)">
<path fill-rule="evenodd" clip-rule="evenodd" d="M65.0865 4.83043C64.525 2.07798 62.085 0.000244141 59.1696 0.000244141C56.2541 0.000244141 53.8141 2.07798 53.2526 4.83043H26.445C25.8835 2.07798 23.4435 0.000244141 20.5281 0.000244141C17.6126 0.000244141 15.1726 2.07798 14.6118 4.83043H-0.000244141V21.7361H73.6601C74.3273 21.7361 74.8677 21.1957 74.8677 20.5285C74.8677 19.8614 74.3273 19.321 73.6601 19.321H2.41485V7.24553H16.9054V6.03798C16.9054 4.04024 18.5303 2.41534 20.5281 2.41534C22.5258 2.41534 24.1507 4.04024 24.1507 6.03798V7.24553H55.5469V6.03798C55.5469 4.04024 57.1726 2.41534 59.1696 2.41534C61.1673 2.41534 62.7922 4.04024 62.7922 6.03798V7.24553H77.2828V57.9625H2.41485V25.3587C2.41485 24.6916 1.87447 24.1512 1.2073 24.1512C0.540888 24.1512 -0.000244141 24.6916 -0.000244141 25.3587V60.3776H79.6979V4.83043H65.0865Z" fill="white"/>
</g>
<path fill-rule="evenodd" clip-rule="evenodd" d="M55.3055 39.1243C54.9055 38.5907 54.1492 38.4835 53.6149 38.8828C53.0821 39.2828 52.9734 40.0397 53.3734 40.5733L57.9628 46.6918L69.796 30.9137C70.196 30.3801 70.0881 29.6224 69.5545 29.2224C69.0209 28.8239 68.2647 28.9318 67.864 29.4639L57.9628 42.6661L55.3055 39.1243Z" fill="white"/>
</svg>
