<svg width="80" height="61" viewBox="0 0 80 61" fill="none" xmlns="http://www.w3.org/2000/svg">
<mask id="mask0" mask-type="alpha" maskUnits="userSpaceOnUse" x="0" y="31" width="3" height="30">
<path fill-rule="evenodd" clip-rule="evenodd" d="M0 31.3962H2.41555V60.3773H0V31.3962Z" fill="white"/>
</mask>
<g mask="url(#mask0)">
<path fill-rule="evenodd" clip-rule="evenodd" d="M1.20724 31.3962C0.540827 31.3962 -0.000305176 31.9366 -0.000305176 32.6038V59.1698C-0.000305176 59.837 0.540827 60.3774 1.20724 60.3774C1.87441 60.3774 2.41554 59.837 2.41554 59.1698V32.6038C2.41554 31.9366 1.87441 31.3962 1.20724 31.3962Z" fill="white"/>
</g>
<mask id="mask1" mask-type="alpha" maskUnits="userSpaceOnUse" x="4" y="0" width="76" height="61">
<path fill-rule="evenodd" clip-rule="evenodd" d="M4.83038 0H79.6976V60.3773H4.83038V0Z" fill="white"/>
</mask>
<g mask="url(#mask1)">
<path fill-rule="evenodd" clip-rule="evenodd" d="M47.6983 31.3962H36.2266C33.5632 31.3962 31.3957 33.563 31.3957 36.2264C31.3957 38.8898 33.5632 41.0566 36.2266 41.0566H76.0757V19.3208H79.6976V7.24528H66.1459C66.7602 5.80604 66.693 4.18868 65.9285 2.76C65.004 1.0317 63.2809 0 61.3209 0C59.5693 0 57.9436 0.870189 56.9723 2.32679L54.3398 6.27547L51.7074 2.32679C50.7353 0.870189 49.1096 0 47.3587 0C45.3979 0 43.6757 1.0317 42.7504 2.76C41.9866 4.18868 41.9194 5.80604 42.533 7.24528H28.9813V19.3208H70.0379C70.7043 19.3208 71.2455 18.7804 71.2455 18.1132C71.2455 17.446 70.7043 16.9057 70.0379 16.9057H31.3957V9.66038H46.9353L45.0191 6.78566C44.4342 5.90868 44.3821 4.82943 44.8802 3.89962C45.3776 2.96981 46.3036 2.41509 47.3587 2.41509C48.3006 2.41509 49.1753 2.88302 49.6976 3.66641L54.3398 10.6294L58.9813 3.66641C59.5043 2.88302 60.3791 2.41509 61.3209 2.41509C62.3753 2.41509 63.3021 2.96981 63.7994 3.89962C64.2968 4.82943 64.2455 5.90868 63.6598 6.78566L61.7436 9.66038H77.2832V16.9057H73.6598V38.6415H36.2266C34.8945 38.6415 33.8115 37.5585 33.8115 36.2264C33.8115 34.8943 34.8945 33.8113 36.2266 33.8113H47.6983C51.0274 33.8113 53.736 31.1026 53.736 27.7736C53.736 24.4445 51.0274 21.7358 47.6983 21.7358H20.5285C14.9443 21.7358 10.3293 25.9698 9.72699 31.3962H4.83038V60.3774H68.8304C71.493 60.3774 73.6598 58.2106 73.6598 55.5472C73.6598 54.6679 73.4243 53.843 73.0123 53.1321H74.8681C77.5308 53.1321 79.6976 50.9653 79.6976 48.3019C79.6976 45.6385 77.5308 43.4717 74.8681 43.4717H49.5089C48.8432 43.4717 48.3021 44.0121 48.3021 44.6792C48.3021 45.3457 48.8432 45.8868 49.5089 45.8868H74.8681C76.2002 45.8868 77.2832 46.9698 77.2832 48.3019C77.2832 49.634 76.2002 50.717 74.8681 50.717H54.3398H50.7172H49.5089C48.8432 50.717 48.3021 51.2574 48.3021 51.9245C48.3021 52.5909 48.8432 53.1321 49.5089 53.1321H50.7172H54.3398H68.8304C70.1625 53.1321 71.2455 54.2151 71.2455 55.5472C71.2455 56.8785 70.1625 57.9623 68.8304 57.9623H7.24472V33.8113H12.0757V32.6038C12.0757 27.9426 15.8674 24.1509 20.5285 24.1509H47.6983C49.6953 24.1509 51.3209 25.7758 51.3209 27.7736C51.3209 29.7713 49.6953 31.3962 47.6983 31.3962Z" fill="white"/>
</g>
</svg>
