<svg width="80" height="61" viewBox="0 0 80 61" fill="none" xmlns="http://www.w3.org/2000/svg">
<path fill-rule="evenodd" clip-rule="evenodd" d="M29.9771 51.9798C29.4352 51.5255 29.3643 50.7187 29.8194 50.176L47.9175 28.6077C48.3719 28.0658 49.1756 27.9919 49.7213 28.4492C50.2624 28.9036 50.3341 29.7111 49.8783 30.253L31.7809 51.8213C31.3258 52.3632 30.522 52.4372 29.9771 51.9798ZM51.1613 51.527C52.6609 50.0281 52.6609 47.5964 51.1613 46.0975C49.6624 44.5979 47.2307 44.5979 45.7319 46.0975C44.2322 47.5964 44.2322 50.0281 45.7319 51.527C47.2307 53.0266 49.6624 53.0266 51.1613 51.527ZM52.9719 53.3368C50.4722 55.8364 46.4209 55.8364 43.922 53.3368C41.4224 50.8379 41.4224 46.7866 43.922 44.287C46.4209 41.7881 50.4722 41.7881 52.9719 44.287C55.4707 46.7866 55.4707 50.8379 52.9719 53.3368ZM33.9666 34.3322C35.4654 32.8326 35.4654 30.4017 33.9666 28.9021C32.4669 27.4032 30.036 27.4032 28.5364 28.9021C27.0368 30.4017 27.0368 32.8326 28.5364 34.3322C30.036 35.8319 32.4669 35.8319 33.9666 34.3322ZM35.7771 36.1421C33.2775 38.6409 29.2254 38.6409 26.7266 36.1421C24.2277 33.6432 24.2277 29.5911 26.7266 27.0922C29.2254 24.5926 33.2775 24.5926 35.7771 27.0922C38.2752 29.5911 38.2752 33.6432 35.7771 36.1421Z" fill="white"/>
<mask id="mask0" mask-type="alpha" maskUnits="userSpaceOnUse" x="0" y="0" width="80" height="61">
<path fill-rule="evenodd" clip-rule="evenodd" d="M0 0H79.6978V60.3773H0V0Z" fill="white"/>
</mask>
<g mask="url(#mask0)">
<path fill-rule="evenodd" clip-rule="evenodd" d="M73.6601 19.3208H15.6978C15.0306 19.3208 14.491 19.8611 14.491 20.5283C14.491 21.1947 15.0306 21.7358 15.6978 21.7358H73.6601C75.6578 21.7358 77.2835 23.3608 77.2835 25.3585V28.9811H72.7552L64.3023 57.9623H15.3967L6.94385 28.9811H2.41554V25.3585C2.41554 23.3608 4.04045 21.7358 6.03743 21.7358H12.0752V10.8679C12.0752 6.20679 15.8676 2.41509 20.5288 2.41509H59.1703C63.8314 2.41509 67.6223 6.20679 67.6223 10.8679V15.6981C67.6223 16.3645 68.1635 16.9057 68.8306 16.9057C69.497 16.9057 70.0374 16.3645 70.0374 15.6981V10.8679C70.0374 4.87547 65.162 0 59.1703 0H20.5288C14.5355 0 9.66007 4.87547 9.66007 10.8679V19.3208H6.03743C2.70837 19.3208 -0.000305176 22.0287 -0.000305176 25.3585V31.3962H5.13177L13.5846 60.3774H66.1129L74.5657 31.3962H79.6978V25.3585C79.6978 22.0287 76.9899 19.3208 73.6601 19.3208Z" fill="white"/>
</g>
</svg>
