<svg width="80" height="61" viewBox="0 0 80 61" fill="none" xmlns="http://www.w3.org/2000/svg">
<mask id="mask0" mask-type="alpha" maskUnits="userSpaceOnUse" x="0" y="0" width="75" height="61">
<path fill-rule="evenodd" clip-rule="evenodd" d="M0.000488281 0H74.8661V60.3773H0.000488281V0Z" fill="white"/>
</mask>
<g mask="url(#mask0)">
<path fill-rule="evenodd" clip-rule="evenodd" d="M66.4133 39.8491V35.0189C66.4133 34.3525 66.9552 33.8113 67.6216 33.8113H68.8284C69.4956 33.8113 70.036 33.2709 70.036 32.6038C70.036 31.9366 69.4956 31.3962 68.8284 31.3962H67.6216C65.6231 31.3962 63.9982 33.0211 63.9982 35.0189V39.8491C63.9982 41.8468 65.6231 43.4717 67.6216 43.4717H72.4511V54.3396C72.4511 56.3374 70.8261 57.9623 68.8284 57.9623H6.03822C5.06992 57.9623 4.16049 57.5849 3.47596 56.9004C2.79143 56.2159 2.41483 55.3064 2.41483 54.3381L2.42539 15.6981C2.42539 13.7004 4.0503 12.0755 6.04879 12.0755H21.7341V10.8679C21.7341 6.20679 25.5258 2.41509 30.1869 2.41509C34.848 2.41509 38.6397 6.20679 38.6397 10.8679C38.6397 11.5343 39.1809 12.0755 39.8473 12.0755C40.5145 12.0755 41.0548 11.5343 41.0548 10.8679C41.0548 4.87547 36.1794 0 30.1869 0C24.6028 0 19.9884 4.23396 19.3854 9.66038H6.04879C2.71823 9.66038 0.011055 12.3683 0.011055 15.6981L0.000488961 54.3374C-0.000265756 55.9502 0.627659 57.4672 1.76804 58.6083C2.90766 59.7494 4.42464 60.3774 6.03822 60.3774H68.8284C72.1575 60.3774 74.8661 57.6687 74.8661 54.3396V41.0566H67.6216C66.9552 41.0566 66.4133 40.5147 66.4133 39.8491Z" fill="white"/>
</g>
<path fill-rule="evenodd" clip-rule="evenodd" d="M74.8662 31.3961V20.5282C74.8662 17.1992 72.1575 14.4905 68.8285 14.4905H6.03604C5.36887 14.4905 4.82849 15.0309 4.82849 15.698C4.82849 16.3644 5.36887 16.9056 6.03604 16.9056H68.8285C70.8255 16.9056 72.4511 18.5305 72.4511 20.5282V33.8112H77.2813V42.261C77.2813 42.9275 77.8217 43.4686 78.4889 43.4686C79.156 43.4686 79.6964 42.9275 79.6964 42.261V31.3961H74.8662Z" fill="white"/>
<path fill-rule="evenodd" clip-rule="evenodd" d="M68.8314 37.4339C68.8314 38.101 69.3756 38.6414 70.042 38.6414C70.7092 38.6414 71.2495 38.101 71.2495 37.4339C71.2495 36.7675 70.7092 36.2263 70.042 36.2263H70.0359C69.3695 36.2263 68.8314 36.7675 68.8314 37.4339Z" fill="white"/>
<path fill-rule="evenodd" clip-rule="evenodd" d="M31.3948 26.566H37.4326C40.7616 26.566 43.4703 29.2747 43.4703 32.6037C43.4703 35.9328 40.7624 38.6414 37.4326 38.6414H31.3948V26.566ZM25.3571 44.6792C24.6899 44.6792 24.1488 45.2196 24.1488 45.8867C24.1488 46.5531 24.6899 47.0943 25.3571 47.0943H28.9797V54.3396C28.9797 55.0067 29.5201 55.5471 30.1865 55.5471C30.8537 55.5471 31.3948 55.0067 31.3948 54.3396V47.0943H39.8469C40.5141 47.0943 41.0552 46.5531 41.0552 45.8867C41.0552 45.2196 40.5141 44.6792 39.8469 44.6792H31.3948V41.0565H37.4326C42.0937 41.0565 45.8854 37.2641 45.8854 32.603C45.8854 27.9426 42.0937 24.1509 37.4326 24.1509H28.9797V38.6414H25.3571C24.6899 38.6414 24.1488 39.1818 24.1488 39.849C24.1488 40.5154 24.6899 41.0565 25.3571 41.0565H28.9797V44.6792H25.3571Z" fill="white"/>
<mask id="mask1" mask-type="alpha" maskUnits="userSpaceOnUse" x="38" y="0" width="33" height="13">
<path fill-rule="evenodd" clip-rule="evenodd" d="M38.6395 0H70.0358V12.0755H38.6395V0Z" fill="white"/>
</mask>
<g mask="url(#mask1)">
<path fill-rule="evenodd" clip-rule="evenodd" d="M39.8471 2.41509C44.5082 2.41509 48.2999 6.20679 48.2999 10.8679V12.0755H68.8282C69.4954 12.0755 70.0358 11.5343 70.0358 10.8679C70.0358 10.2008 69.4954 9.66038 68.8282 9.66038H50.6493C50.0463 4.23396 45.4312 0 39.8471 0C39.1807 0 38.6395 0.541132 38.6395 1.20755C38.6395 1.87472 39.1807 2.41509 39.8471 2.41509Z" fill="white"/>
</g>
</svg>
