<svg width="188" height="187" fill="none" xmlns="http://www.w3.org/2000/svg"><circle cx="93.82" cy="93.333" r="93.32" fill="#A5061C"/><path d="M93.773 139.704v-73.37h-13.64l-23.1 23.21 8.91 9.35 12.21-12.43v53.24h15.62zm27.32.6c6.2 0 10.7-4.65 10.7-12.7 0-8.05-4.5-12.65-10.7-12.65-2.95 0-5.6 1.3-7.45 3.65v-3.05h-6.35v33.35h6.35v-12.3c1.95 2.5 4.6 3.7 7.45 3.7zm-2-5.65c-2.05 0-4.4-1.25-5.45-2.75v-8.55c1.05-1.55 3.4-2.75 5.45-2.75 3.65 0 6.1 2.85 6.1 7 0 4.2-2.45 7.05-6.1 7.05zm20.405 5.6c2.2 0 4.05-1.85 4.05-4.05 0-2.2-1.85-4.05-4.05-4.05-2.2 0-4.05 1.85-4.05 4.05 0 2.2 1.85 4.05 4.05 4.05zM61.07 48.204v-16.71l-3.21 3.39-1.5-1.53 5.01-5.16h2.19v20.01h-2.49zm12.896.33c-1.28 0-2.37-.22-3.27-.66a7.516 7.516 0 0 1-2.28-1.74l1.26-1.86c.52.6 1.1 1.09 1.74 1.47.66.38 1.51.57 2.55.57 1.02 0 1.88-.23 2.58-.69.72-.46 1.3-1.06 1.74-1.8.46-.74.79-1.58.99-2.52.22-.94.33-1.88.33-2.82v-.39c0-.14-.01-.28-.03-.42-.22.34-.52.7-.9 1.08-.36.36-.79.69-1.29.99-.5.3-1.04.55-1.62.75-.58.2-1.19.3-1.83.3a8.2 8.2 0 0 1-2.55-.39c-.8-.28-1.5-.68-2.1-1.2-.58-.54-1.05-1.21-1.41-2.01-.34-.8-.51-1.73-.51-2.79 0-.86.16-1.68.48-2.46.32-.8.78-1.5 1.38-2.1.6-.6 1.33-1.08 2.19-1.44.88-.36 1.86-.54 2.94-.54 1.4 0 2.59.29 3.57.87.98.56 1.78 1.32 2.4 2.28.62.94 1.07 2.04 1.35 3.3.28 1.24.42 2.54.42 3.9 0 1.36-.16 2.66-.48 3.9-.32 1.24-.82 2.34-1.5 3.3-.66.94-1.5 1.7-2.52 2.28-1.02.56-2.23.84-3.63.84zm.54-9.9c1 0 1.95-.27 2.85-.81a5.96 5.96 0 0 0 2.13-2.16c-.06-.62-.19-1.26-.39-1.92-.2-.66-.5-1.26-.9-1.8-.38-.54-.88-.98-1.5-1.32-.62-.36-1.36-.54-2.22-.54-.76 0-1.43.13-2.01.39-.58.26-1.06.6-1.44 1.02-.38.4-.67.85-.87 1.35-.18.5-.27.99-.27 1.47 0 .74.12 1.38.36 1.92s.57.99.99 1.35c.42.36.91.63 1.47.81.56.16 1.16.24 1.8.24zm17.185 9.9c-1.28 0-2.37-.22-3.27-.66a7.516 7.516 0 0 1-2.28-1.74l1.26-1.86c.52.6 1.1 1.09 1.74 1.47.66.38 1.51.57 2.55.57 1.02 0 1.88-.23 2.58-.69.72-.46 1.3-1.06 1.74-1.8.46-.74.79-1.58.99-2.52.22-.94.33-1.88.33-2.82v-.39c0-.14-.01-.28-.03-.42-.22.34-.52.7-.9 1.08-.36.36-.79.69-1.29.99-.5.3-1.04.55-1.62.75-.58.2-1.19.3-1.83.3a8.2 8.2 0 0 1-2.55-.39c-.8-.28-1.5-.68-2.1-1.2-.58-.54-1.05-1.21-1.41-2.01-.34-.8-.51-1.73-.51-2.79 0-.86.16-1.68.48-2.46.32-.8.78-1.5 1.38-2.1.6-.6 1.33-1.08 2.19-1.44.88-.36 1.86-.54 2.94-.54 1.4 0 2.59.29 3.57.87.98.56 1.78 1.32 2.4 2.28.62.94 1.07 2.04 1.35 3.3.28 1.24.42 2.54.42 3.9 0 1.36-.16 2.66-.48 3.9-.32 1.24-.82 2.34-1.5 3.3-.66.94-1.5 1.7-2.52 2.28-1.02.56-2.23.84-3.63.84zm.54-9.9c1 0 1.95-.27 2.85-.81a5.96 5.96 0 0 0 2.13-2.16c-.06-.62-.19-1.26-.39-1.92-.2-.66-.5-1.26-.9-1.8-.38-.54-.88-.98-1.5-1.32-.62-.36-1.36-.54-2.22-.54-.76 0-1.43.13-2.01.39-.58.26-1.06.6-1.44 1.02-.38.4-.67.85-.87 1.35-.18.5-.27.99-.27 1.47 0 .74.12 1.38.36 1.92s.57.99.99 1.35c.42.36.91.63 1.47.81.56.16 1.16.24 1.8.24zm17.184 9.9c-1.28 0-2.37-.22-3.27-.66a7.516 7.516 0 0 1-2.28-1.74l1.26-1.86c.52.6 1.1 1.09 1.74 1.47.66.38 1.51.57 2.55.57 1.02 0 1.88-.23 2.58-.69.72-.46 1.3-1.06 1.74-1.8.46-.74.79-1.58.99-2.52.22-.94.33-1.88.33-2.82v-.39c0-.14-.01-.28-.03-.42-.22.34-.52.7-.9 1.08-.36.36-.79.69-1.29.99-.5.3-1.04.55-1.62.75-.58.2-1.19.3-1.83.3a8.2 8.2 0 0 1-2.55-.39c-.8-.28-1.5-.68-2.1-1.2-.58-.54-1.05-1.21-1.41-2.01-.34-.8-.51-1.73-.51-2.79 0-.86.16-1.68.48-2.46.32-.8.78-1.5 1.38-2.1.6-.6 1.33-1.08 2.19-1.44.88-.36 1.86-.54 2.94-.54 1.4 0 2.59.29 3.57.87.98.56 1.78 1.32 2.4 2.28.62.94 1.07 2.04 1.35 3.3.28 1.24.42 2.54.42 3.9 0 1.36-.16 2.66-.48 3.9-.32 1.24-.82 2.34-1.5 3.3-.66.94-1.5 1.7-2.52 2.28-1.02.56-2.23.84-3.63.84zm.54-9.9c1 0 1.95-.27 2.85-.81a5.96 5.96 0 0 0 2.13-2.16c-.06-.62-.19-1.26-.39-1.92-.2-.66-.5-1.26-.9-1.8-.38-.54-.88-.98-1.5-1.32-.62-.36-1.36-.54-2.22-.54-.76 0-1.43.13-2.01.39-.58.26-1.06.6-1.44 1.02-.38.4-.67.85-.87 1.35-.18.5-.27.99-.27 1.47 0 .74.12 1.38.36 1.92s.57.99.99 1.35c.42.36.91.63 1.47.81.56.16 1.16.24 1.8.24z" fill="#fff"/><path d="M55.73 38.214h63.345v1.5H55.73v-1.5zm72.101 10.17c1.86 0 3.21-1.395 3.21-3.81s-1.35-3.795-3.21-3.795c-.885 0-1.68.39-2.235 1.095v-.915h-1.905v10.005h1.905v-3.69c.585.75 1.38 1.11 2.235 1.11zm-.6-1.695c-.615 0-1.32-.375-1.635-.825V43.3c.315-.465 1.02-.825 1.635-.825 1.095 0 1.83.855 1.83 2.1 0 1.26-.735 2.115-1.83 2.115zm6.121 1.68a1.23 1.23 0 0 0 1.215-1.215 1.23 1.23 0 0 0-1.215-1.215 1.23 1.23 0 0 0-1.215 1.215c0 .66.555 1.215 1.215 1.215z" fill="#fff"/></svg>