<svg width="180" height="742" fill="none" xmlns="http://www.w3.org/2000/svg"><path fill-rule="evenodd" clip-rule="evenodd" d="M-.566 645.735c.66 3.957 0 7.914 1.319 11.87 1.977 5.276 5.274 10.552 7.91 16.488 2.638 5.276 4.616 10.552 5.934 15.827 1.978 6.595 5.934 10.552 11.867 12.531.66 0 1.318.659 1.978.659 1.977 1.319 3.955 2.638 5.274 3.957-1.319 1.979-2.637 3.957-4.615 4.617-1.978.659-5.274.659-6.593-.66-6.592-3.957-10.548-9.233-13.185-16.487-2.637-7.255-6.593-13.849-9.889-21.104-3.296-7.254-5.933-14.509-8.57-21.763-.66-1.319 0-3.957.66-5.935 1.977-3.298 2.636-7.255-3.297-9.893-6.593-3.297-12.526-7.913-18.46-12.53-1.318-.659-.659-3.957-1.318-5.276 1.978 0 4.615-1.319 5.933-.659 4.615 1.978 9.23 5.276 13.845 7.254 3.955 1.979 6.592 1.979 9.889-1.978 1.977-2.638 5.933-5.276 9.889-6.595 7.91-2.638 15.822-3.298 23.733-1.319 11.867 2.638 22.415 7.914 30.985 15.168 9.23 7.914 18.46 16.487 27.69 24.401 1.318 1.319 3.955 1.979 5.932 2.638 7.252 1.319 15.163 2.638 23.074 3.297 8.571.66 17.141 4.617 25.712-.659-1.319-6.595 2.637-13.849-2.637-21.763-3.956-5.276-5.274-13.19-7.252-19.785-1.319-4.616-4.615-6.595-9.23-7.914s-9.889-3.297-14.504-5.276c-.659 0-1.318-.659-1.977-1.319-9.89-3.297-17.8-9.892-23.734-17.146-4.615-5.276-9.23-11.211-7.91-19.125.658-5.276 11.207-11.212 17.8-9.893 5.932.66 10.547 3.957 14.503 8.574 5.933 7.914 11.867 15.168 17.8 23.082 1.978 2.638 2.637 6.595 4.615 8.573 1.977 1.979 5.274 3.298 7.911 3.298 1.978-.66 4.615-3.957 5.274-5.936 1.978-8.573-1.978-15.828-5.274-23.741-2.637-5.936-5.934-12.531-9.23-18.466-2.637-3.957-5.274-7.914-8.57-11.871-1.978-3.297-4.615-5.935-7.252-9.233-6.593-8.573-14.504-15.827-23.733-21.763-.66-.659-1.978-1.319-2.637-1.978-1.978-1.979-6.593-4.617-3.297-7.914 1.319-1.319 6.593 0 9.23 1.319 5.274 2.638 9.889 6.595 15.163 9.233.659.659 1.978.659 4.615 1.319-1.319-3.298-1.978-5.276-3.297-7.255-2.637-5.276-5.274-11.211-7.911-16.487-1.318-3.297-2.637-7.254-3.955-10.552-1.319-2.638-3.956-4.616 0-7.254 3.296-2.638 6.592-1.979 9.889 0 7.251 3.957 15.163 7.914 23.074 11.871 4.615 1.978 9.889-1.979 8.57-6.595-1.978-9.233-4.615-17.806-5.274-27.039-.659-7.255-7.252-9.893-12.526-12.53-10.548-5.276-16.481-14.509-24.393-21.764-3.296-3.297-6.592-7.254-7.91-11.211-1.978-5.276-2.638-11.211-3.956-16.487 0-.66 1.318-2.638 1.978-2.638 4.614-2.638 9.888-6.595 14.503-6.595s9.23 3.957 13.185 6.595c3.956 3.297 7.252 7.254 11.208 10.552 1.318 1.319 3.296 1.978 5.274 2.638.659 0 1.318-.66 1.978-.66-.66-3.957-1.319-7.254-2.637-11.211-2.637-9.233-4.615-18.466-7.911-27.699-2.637-7.913-5.934-15.168-8.571-22.422-.659-2.638-1.978-3.298-4.615-1.319-3.296 2.638-5.933 4.616-9.229 7.254-4.615 3.298-13.845 1.979-19.119-1.978-5.274-4.617-7.91-9.893-7.91-15.828 0-6.595 0-13.19-.66-19.125-.66-6.595 5.933-7.914 8.57-11.871 5.934-6.595 5.934-6.595-1.318-12.53-7.911-6.595-15.163-13.19-22.415-19.785-3.297-3.297-7.252-5.276-10.548-9.233-3.297-3.957-5.934-7.913-7.911-12.53-.66-1.978 0-5.276 0-9.233 5.274 1.979 9.23 1.979 11.866 4.617 6.593 5.276 13.185 11.211 19.119 17.146 5.274 5.936 9.23 13.85 15.163 19.785 5.933 5.935 12.526 10.552 19.778 15.168 2.637 1.979 5.274-.659 4.614-3.957-.659-9.232-1.977-18.465-2.637-27.698-.659-11.871-1.318-23.082-2.637-34.953 0-1.978-1.977-4.616-3.955-5.935-13.185-8.574-22.415-20.444-29.008-33.634-2.637-5.936 0-15.828 5.274-19.785 5.275-3.297 15.163-1.978 21.756 3.298 6.593 5.935 13.185 12.53 19.778 18.465.659.66 1.978 1.319 3.296 1.979 7.911 2.638 10.548 1.319 10.548-6.595 0-7.255 0-15.168-.659-22.423a228.796 228.796 0 0 0-3.956-29.677c-1.977-9.892-4.614-20.444-7.251-30.336-1.978-9.233-3.297-19.125-5.275-28.358-.659-4.617-1.977-9.233-3.296-13.85 0-.659 0-1.978-.659-2.637 0-3.298 0-7.255-.659-10.552-.66-5.276-1.978-10.552-3.297-16.487-1.318-5.276-1.977-10.552-2.637-15.828V.755c1.319 0 3.297 0 3.297.66 1.977 5.276 3.955 11.211 5.274 16.487 1.318 7.255 1.977 14.509 3.296 21.763 2.637 12.53 5.933 25.06 7.911 37.591 2.637 14.509 5.274 29.677 7.911 44.186 2.637 15.168 4.615 30.996 5.934 46.164 0 7.254 0 13.849-.66 19.785-.659 4.616-3.955 8.573-9.889 9.232-1.318 0-3.296 2.638-3.296 3.957.659 4.617 1.319 9.893 3.296 13.85 1.319 3.956.66 7.254-1.977 8.573-1.978 1.319-5.934 0-9.23 0-1.978 0-4.615-.66-7.911-1.319a995.148 995.148 0 0 0 1.978 19.785c1.318 13.849 2.637 28.358 4.614 42.207 0 2.638 1.978 4.616 3.956 6.595 2.637 2.638 6.593 5.276 9.23 7.914 5.274 6.594 11.207 11.211 20.437 11.211 1.978 0 5.933 1.319 6.592 2.638 1.978 3.297 0 6.595-4.615 7.254-6.592 1.319-12.525-.659-17.8-3.957-3.955-2.638-7.251-5.935-11.207-8.573-4.615-2.638-5.933-1.979-7.252 3.297-3.296 12.531 2.637 22.423 7.252 32.975 2.637 6.595 4.615 13.189 7.252 19.784 3.296 7.914 3.955 16.488 6.593 25.061 1.977 5.276 2.637 9.892 2.637 15.168 0 1.979-1.319 3.957-2.637 5.276-3.297 1.978-2.638 3.957 0 5.935 7.251 7.255 10.548 17.147 5.933 25.72-4.615 8.574-1.319 15.828 0 23.742 1.318 6.595 1.978 13.849 1.318 20.444-.659 9.233-12.526 12.53-21.755 6.595-3.956-2.638-7.911-5.276-12.526-7.914-.659-.659-2.637 0-5.274-.659 1.978 3.297 3.296 5.935 4.615 7.914 7.911 12.53 15.822 25.72 23.733 38.25 1.318 1.978 3.296 3.297 4.615 5.276 1.978 3.297 2.637 6.595 3.955 9.233l-7.911 1.978h-2.637c1.978 3.297 3.296 6.595 5.274 9.233 3.297 5.935 6.593 11.211 8.571 17.147 2.637 7.913 4.614 16.487 6.592 24.401.659 3.297-5.274 10.551-8.57 11.87-1.978.66-3.956 1.979-5.933 3.298 4.614 12.53 9.888 23.741 13.844 34.953 1.978 5.935.659 12.53-.659 18.465-1.319 4.617-5.934 7.255-11.208 7.255-7.252-.66-14.503-1.319-21.755-2.638-3.297-.66-6.593-1.319-9.23-1.319-.659 0-2.637.659-2.637 1.319-.659.659 0 2.638.659 3.297 4.615 5.276 9.889 9.893 13.845 15.168 3.296 4.617 4.615 11.212 7.252 16.488 2.637 4.616 5.933 7.914 9.889 9.892 8.57 4.616 17.8 8.573 26.37 12.53 2.637 1.979 5.274 2.638 7.911 3.957 1.978 1.319 4.615 1.979 6.593 3.957 1.318 1.319 1.977 4.617 1.318 5.276-1.978 1.319-4.615 2.638-6.592 1.978-5.934-1.978-11.208-4.616-16.482-7.254-16.481-7.914-32.304-15.828-48.126-24.401-12.526-6.595-25.052-14.509-37.578-22.423-19.778-11.87-38.896-24.401-58.674-36.271-3.296-1.979-6.592-3.957-9.889-6.595-1.318.659-1.978 1.319-2.637 1.319zm21.756-23.082c-5.274 1.978-11.208 3.957-16.482 6.595-2.637 1.318-3.296 3.297-.659 5.275 6.593 4.617 13.185 9.233 20.437 13.85 15.163 9.232 29.667 18.465 44.83 27.039 8.57 5.276 17.8 11.211 26.37 16.487 1.319.659 3.296 0 4.615.659 0-1.319 0-2.638-.66-3.297-1.977-3.957-3.955-8.573-5.933-12.53-2.637-4.617-3.955-9.893-7.91-13.19-13.186-11.211-25.712-23.742-40.875-32.975-7.252-3.956-15.163-5.275-23.733-7.913zm71.86-325.787c-13.186 4.616-16.482 11.211-12.527 23.082.66 1.319.66 2.638 1.319 3.297.659 5.276 3.955 8.573 8.57 9.233 6.593 1.319 11.867-2.638 15.163-7.254 2.637-3.298.659-6.595-1.978-9.893-.659-.659-.659-2.638-1.318-3.297-2.637-5.276-5.934-9.893-9.23-15.168zm-1.98 267.092c-2.637 1.979-6.592 4.617-6.592 5.936.659 3.957 2.637 7.913 5.274 11.211 7.252 7.914 17.141 13.849 27.689 17.806 1.978.66 3.955.66 6.592.66-.659-1.979 0-4.617-1.318-5.936-6.593-7.914-13.185-16.487-20.437-24.401-2.637-1.978-7.252-2.638-11.208-5.276zm35.6-135.854c0-.66.66-1.319.66-1.319-1.319-1.319-2.637-2.638-3.297-3.957-3.296-6.595-5.274-13.849-9.889-19.785-3.955-5.935-9.888-10.552-15.822-15.828-.66-.659-4.615.66-5.274 1.979-2.637 3.297-.66 7.914 1.978 10.552 7.252 8.573 15.163 17.146 23.733 25.06 1.978 1.979 5.274 2.638 7.911 3.298zm-25.71-225.545c.659-1.319.659-1.979.659-2.638 1.319-12.53-3.955-23.742-13.185-32.975-1.318-1.319-6.592-.659-6.592.66-1.319 3.297-3.956 8.573-2.637 11.211 5.933 8.574 11.866 17.147 21.755 23.742zm6.593-14.509c0 .66-.659 1.319-.659 1.319.659 3.298.659 6.595 1.318 9.892.659 2.638 1.978 5.936 3.956 8.574 1.318 1.319 4.614 1.978 6.592 2.638 0-2.638 1.319-5.936 0-8.574-1.318-3.957-3.955-7.254-6.592-10.552-1.319-1.318-2.637-1.978-4.615-3.297zm-4.615 110.135c1.319 2.638 1.978 5.275 2.637 7.254 1.319 3.297 3.296 2.638 4.615 0 3.296-3.298.659-5.935-7.252-7.254z" fill="#000"/></svg>