<svg width="250" height="251" fill="none" xmlns="http://www.w3.org/2000/svg"><mask id="a" maskUnits="userSpaceOnUse" x="0" y="0" width="250" height="251"><circle cx="125" cy="125.818" r="125" fill="#E7E7E7"/></mask><g mask="url(#a)"><circle cx="125" cy="125.818" r="125" fill="#E7E7E7"/><circle cx="125" cy="125.818" r="119.671" fill="#E7E7E7" stroke="#fff"/><path d="M147.834 157.005h-45.667c-.242 0-.484 0-.725-.237-.242-.236-.242-.472-.242-.708l2.175-44.653c0-.473.483-.945.966-.945h41.318c.483 0 .967.472.967.945l2.174 44.653c0 .236 0 .472-.241.708-.242.237-.484.237-.725.237zm-44.701-1.89h43.734l-2.174-42.763h-39.385l-2.175 42.763z" fill="#000"/><path d="M135.511 116.132c-.483 0-.967-.473-.967-.945v-9.451c0-5.197-4.349-9.214-9.423-9.214s-9.665 4.253-9.665 9.214v9.451c0 .472-.483.945-.967.945-.483 0-.966-.473-.966-.945v-9.451c0-6.142 5.074-11.104 11.598-11.104 6.282 0 11.356 4.962 11.356 11.104v9.451c0 .472-.483.945-.966.945z" fill="#000"/></g></svg>