<svg width="250" height="251" fill="none" xmlns="http://www.w3.org/2000/svg"><circle cx="125" cy="125.818" r="125" fill="#E7E7E7"/><circle cx="125" cy="125.818" r="119.671" fill="#E7E7E7" stroke="#fff"/><path d="M122.733 109.84c0 3.964-1.425 7.413-3.902 9.87-2.477 2.456-6.062 3.977-10.488 3.977-4.377 0-7.94-1.519-10.406-3.975-2.468-2.458-3.893-5.908-3.893-9.872 0-7.981 5.642-14.208 14.299-14.208 8.753 0 14.39 6.231 14.39 14.208zm-18.449 45.078l37.287-58.38h4.505l-37.375 58.38h-4.417zm51.672-12.85c0 7.862-5.704 13.936-14.389 13.936-8.678 0-14.299-6.066-14.299-13.936 0-7.981 5.641-14.209 14.299-14.209 8.665 0 14.389 6.236 14.389 14.209zm-55.764-32.228c0 2.575.845 4.777 2.32 6.344 1.477 1.568 3.533 2.442 5.831 2.442 2.339 0 4.399-.871 5.869-2.446 1.466-1.57 2.283-3.773 2.283-6.34 0-2.73-.807-5.004-2.278-6.605-1.476-1.609-3.542-2.452-5.874-2.452-2.29 0-4.353.846-5.837 2.448-1.48 1.599-2.314 3.871-2.314 6.609zm33.223 32.228c0 2.648.812 4.877 2.283 6.453 1.475 1.581 3.538 2.422 5.869 2.422 2.329 0 4.41-.84 5.907-2.416 1.495-1.573 2.335-3.803 2.335-6.459 0-2.697-.837-4.968-2.326-6.576-1.494-1.611-3.578-2.481-5.916-2.481-2.341 0-4.405.871-5.877 2.488-1.466 1.61-2.275 3.88-2.275 6.569z" fill="#000" stroke="#E7E7E7" stroke-width="2"/></svg>