<svg width="39" height="39" fill="none" xmlns="http://www.w3.org/2000/svg"><path d="M32.73 6.163c-7.4-7.4-19.433-7.4-26.833 0A18.976 18.976 0 0 0 .765 15.59a19.02 19.02 0 0 0 .708 10.424.77.77 0 0 0 .981.467.764.764 0 0 0 .467-.982 17.332 17.332 0 0 1-.644-9.571 17.394 17.394 0 0 1 4.714-8.655c6.804-6.82 17.856-6.82 24.644-.016a17.32 17.32 0 0 1 5.1 12.113 17.395 17.395 0 0 1-4.794 12.21l-.113.113c-.064.064-.128.144-.193.209-6.788 6.788-17.856 6.788-24.644 0-.033-.032-.065-.08-.113-.113v-.209c0-.16 0-.306.016-.466 0-.049 0-.097.016-.161 0-.097.016-.21.016-.306 0-.064.016-.129.016-.177.016-.096.016-.177.033-.273 0-.065.016-.13.032-.193.016-.08.016-.177.032-.258.016-.064.016-.128.032-.193.016-.08.032-.177.048-.257.016-.065.032-.129.032-.193l.049-.242.048-.193c.016-.08.032-.16.064-.24l.049-.194c.016-.08.048-.16.064-.241.016-.065.048-.129.064-.193.032-.08.049-.161.08-.226.017-.064.049-.128.065-.193.032-.08.048-.144.08-.225.033-.064.049-.128.08-.193.033-.08.065-.145.097-.225.033-.064.049-.129.08-.193.033-.08.065-.145.097-.225l.097-.193c.032-.065.064-.145.113-.21.032-.064.064-.128.096-.176.032-.065.08-.145.113-.21.032-.064.064-.112.096-.176.048-.065.08-.145.129-.21.032-.064.064-.112.112-.177.049-.064.08-.128.13-.209.031-.064.08-.112.112-.16l.145-.194c.032-.048.08-.112.112-.16l.145-.194c.048-.048.08-.112.129-.16.048-.065.096-.129.16-.193.049-.049.08-.097.13-.161.047-.065.112-.129.16-.193.048-.049.08-.097.129-.145a.92.92 0 0 1 .177-.177l.145-.145.177-.177.144-.145c.065-.064.129-.112.193-.177.048-.048.097-.08.145-.128.064-.064.129-.113.193-.161.048-.048.097-.08.145-.129l.209-.16c.048-.033.096-.081.145-.113.08-.049.145-.113.225-.161l.145-.097c.08-.064.16-.112.257-.177.048-.032.08-.064.129-.08.112-.064.225-.145.338-.21.016-.015.032-.015.048-.031.129-.08.257-.161.402-.226.048-.032.097-.048.145-.08.096-.048.177-.096.273-.145.065-.032.113-.064.177-.08a1.46 1.46 0 0 0 .226-.113 7.557 7.557 0 0 0 5.212 2.091 7.557 7.557 0 0 0 5.212-2.09c2.734 1.27 4.97 3.538 6.177 6.29a.787.787 0 0 0 1.013.401.787.787 0 0 0 .402-1.013c-1.335-3.024-3.635-5.438-6.563-6.885a7.464 7.464 0 0 0 1.303-4.231 7.545 7.545 0 0 0-7.544-7.545.772.772 0 0 0-.773.772c0 .419.354.773.773.773a6 6 0 0 1 6 6c0 1.48-.547 2.896-1.544 4.005a6.002 6.002 0 0 1-4.456 1.995 6.002 6.002 0 0 1-4.456-1.995 5.974 5.974 0 0 1-1.545-4.005 5.94 5.94 0 0 1 1.786-4.263.767.767 0 0 0 0-1.094.767.767 0 0 0-1.094 0 7.147 7.147 0 0 0-2.349 5.34c0 1.513.45 2.993 1.303 4.232 0 0-.016 0-.016.016-.064.032-.112.064-.177.096-.096.049-.177.097-.273.145a1.1 1.1 0 0 0-.193.113c-.08.048-.177.096-.258.144-.064.033-.128.08-.193.113l-.24.145c-.065.048-.13.08-.194.128a1.96 1.96 0 0 0-.225.161 1.362 1.362 0 0 1-.193.13c-.08.047-.145.112-.225.16a1.722 1.722 0 0 0-.177.145c-.065.048-.145.112-.21.16-.064.049-.112.097-.177.145-.064.065-.128.113-.209.177a1.605 1.605 0 0 0-.177.161c-.064.064-.128.113-.193.177-.064.048-.112.113-.16.161l-.193.193-.161.16a1.927 1.927 0 0 0-.177.194c-.049.048-.097.113-.145.16a2.049 2.049 0 0 0-.177.21c-.048.048-.097.113-.145.16-.064.081-.112.146-.177.226a1.128 1.128 0 0 0-.128.16 2.15 2.15 0 0 0-.177.242c-.033.048-.08.097-.113.145-.08.113-.145.21-.225.322a.281.281 0 0 1-.065.08c-.096.129-.177.274-.273.418a.65.65 0 0 0-.08.145c-.049.097-.113.177-.161.274-.033.064-.065.112-.097.177-.048.08-.096.177-.145.257l-.096.193c-.048.08-.08.16-.129.257a2.615 2.615 0 0 0-.096.21c-.033.08-.08.16-.113.24a1.12 1.12 0 0 0-.08.21 3.62 3.62 0 0 0-.097.257c-.032.065-.048.145-.08.21a3.62 3.62 0 0 0-.097.257c-.032.064-.048.145-.08.209a1.49 1.49 0 0 0-.08.257c-.017.08-.049.145-.065.226-.032.08-.048.176-.08.257-.017.08-.049.145-.065.225-.016.097-.048.177-.064.274-.016.08-.032.144-.048.225a1.682 1.682 0 0 1-.065.273c-.016.08-.032.145-.048.226a9.085 9.085 0 0 1-.048.273c-.016.08-.033.145-.033.225a1.773 1.773 0 0 0-.032.29c-.016.064-.016.145-.032.209-.016.096-.016.209-.032.306 0 .064-.016.128-.016.209-.016.112-.016.225-.016.338 0 .064 0 .112-.016.177 0 .176-.016.337-.016.514 0 .193 0 .37.016.563 0 .049.016.097.016.129v.016c.016.048.016.08.032.129v.016c.016.032.032.08.064.112 0 0 0 .017.016.017a.424.424 0 0 0 .08.096l.097.113.242.24c3.7 3.7 8.558 5.55 13.416 5.55 4.858 0 9.716-1.85 13.416-5.55l.241-.24.097-.113a18.816 18.816 0 0 0 5.212-13.287 18.756 18.756 0 0 0-5.534-13.24z" fill="#000"/></svg>