<svg width="108" height="108" viewBox="0 0 108 108" fill="none" xmlns="http://www.w3.org/2000/svg">
<mask id="mask0" mask-type="alpha" maskUnits="userSpaceOnUse" x="0" y="1" width="4" height="4">
<path fill-rule="evenodd" clip-rule="evenodd" d="M0 1H3.7568V4.757H0V1Z" fill="white"/>
</mask>
<g mask="url(#mask0)">
<path fill-rule="evenodd" clip-rule="evenodd" d="M3.75676 2.878C3.75676 3.916 2.91576 4.757 1.87876 4.757C0.840756 4.757 -0.000244141 3.916 -0.000244141 2.878C-0.000244141 1.841 0.840756 1 1.87876 1C2.91576 1 3.75676 1.841 3.75676 2.878Z" fill="#F91155"/>
</g>
<path fill-rule="evenodd" clip-rule="evenodd" d="M18.5166 2.87824C18.5166 3.91624 17.6756 4.75724 16.6386 4.75724C15.6006 4.75724 14.7596 3.91624 14.7596 2.87824C14.7596 1.84124 15.6006 1.00024 16.6386 1.00024C17.6756 1.00024 18.5166 1.84124 18.5166 2.87824Z" fill="#F91155"/>
<path fill-rule="evenodd" clip-rule="evenodd" d="M33.2763 2.87824C33.2763 3.91624 32.4353 4.75724 31.3983 4.75724C30.3603 4.75724 29.5193 3.91624 29.5193 2.87824C29.5193 1.84124 30.3603 1.00024 31.3983 1.00024C32.4353 1.00024 33.2763 1.84124 33.2763 2.87824Z" fill="#F91155"/>
<path fill-rule="evenodd" clip-rule="evenodd" d="M48.0361 2.87824C48.0361 3.91624 47.1951 4.75724 46.1581 4.75724C45.1201 4.75724 44.2791 3.91624 44.2791 2.87824C44.2791 1.84124 45.1201 1.00024 46.1581 1.00024C47.1951 1.00024 48.0361 1.84124 48.0361 2.87824Z" fill="#F91155"/>
<path fill-rule="evenodd" clip-rule="evenodd" d="M62.7959 2.87824C62.7959 3.91624 61.9549 4.75724 60.9179 4.75724C59.8799 4.75724 59.0389 3.91624 59.0389 2.87824C59.0389 1.84124 59.8799 1.00024 60.9179 1.00024C61.9549 1.00024 62.7959 1.84124 62.7959 2.87824Z" fill="#F91155"/>
<path fill-rule="evenodd" clip-rule="evenodd" d="M77.5556 2.87824C77.5556 3.91624 76.7146 4.75724 75.6776 4.75724C74.6396 4.75724 73.7986 3.91624 73.7986 2.87824C73.7986 1.84124 74.6396 1.00024 75.6776 1.00024C76.7146 1.00024 77.5556 1.84124 77.5556 2.87824Z" fill="#F91155"/>
<path fill-rule="evenodd" clip-rule="evenodd" d="M92.3153 2.87824C92.3153 3.91624 91.4743 4.75724 90.4373 4.75724C89.3993 4.75724 88.5583 3.91624 88.5583 2.87824C88.5583 1.84124 89.3993 1.00024 90.4373 1.00024C91.4743 1.00024 92.3153 1.84124 92.3153 2.87824Z" fill="#F91155"/>
<mask id="mask1" mask-type="alpha" maskUnits="userSpaceOnUse" x="103" y="1" width="5" height="4">
<path fill-rule="evenodd" clip-rule="evenodd" d="M103.318 1H107.075V4.757H103.318V1Z" fill="white"/>
</mask>
<g mask="url(#mask1)">
<path fill-rule="evenodd" clip-rule="evenodd" d="M107.075 2.878C107.075 3.916 106.234 4.757 105.197 4.757C104.159 4.757 103.318 3.916 103.318 2.878C103.318 1.841 104.159 1 105.197 1C106.234 1 107.075 1.841 107.075 2.878Z" fill="#F91155"/>
</g>
<mask id="mask2" mask-type="alpha" maskUnits="userSpaceOnUse" x="0" y="13" width="4" height="5">
<path fill-rule="evenodd" clip-rule="evenodd" d="M0 13.8816H3.7568V17.6376H0V13.8816Z" fill="white"/>
</mask>
<g mask="url(#mask2)">
<path fill-rule="evenodd" clip-rule="evenodd" d="M3.75676 15.7596C3.75676 16.7976 2.91576 17.6376 1.87876 17.6376C0.840756 17.6376 -0.000244141 16.7976 -0.000244141 15.7596C-0.000244141 14.7216 0.840756 13.8816 1.87876 13.8816C2.91576 13.8816 3.75676 14.7216 3.75676 15.7596Z" fill="#F91155"/>
</g>
<path fill-rule="evenodd" clip-rule="evenodd" d="M18.5166 15.7596C18.5166 16.7976 17.6756 17.6376 16.6386 17.6376C15.6006 17.6376 14.7596 16.7976 14.7596 15.7596C14.7596 14.7216 15.6006 13.8816 16.6386 13.8816C17.6756 13.8816 18.5166 14.7216 18.5166 15.7596Z" fill="#F91155"/>
<path fill-rule="evenodd" clip-rule="evenodd" d="M33.2763 15.7596C33.2763 16.7976 32.4353 17.6376 31.3983 17.6376C30.3603 17.6376 29.5193 16.7976 29.5193 15.7596C29.5193 14.7216 30.3603 13.8816 31.3983 13.8816C32.4353 13.8816 33.2763 14.7216 33.2763 15.7596Z" fill="#F91155"/>
<path fill-rule="evenodd" clip-rule="evenodd" d="M48.0361 15.7596C48.0361 16.7976 47.1951 17.6376 46.1581 17.6376C45.1201 17.6376 44.2791 16.7976 44.2791 15.7596C44.2791 14.7216 45.1201 13.8816 46.1581 13.8816C47.1951 13.8816 48.0361 14.7216 48.0361 15.7596Z" fill="#F91155"/>
<path fill-rule="evenodd" clip-rule="evenodd" d="M62.7959 15.7596C62.7959 16.7976 61.9549 17.6376 60.9179 17.6376C59.8799 17.6376 59.0389 16.7976 59.0389 15.7596C59.0389 14.7216 59.8799 13.8816 60.9179 13.8816C61.9549 13.8816 62.7959 14.7216 62.7959 15.7596Z" fill="#F91155"/>
<path fill-rule="evenodd" clip-rule="evenodd" d="M77.5556 15.7596C77.5556 16.7976 76.7146 17.6376 75.6776 17.6376C74.6396 17.6376 73.7986 16.7976 73.7986 15.7596C73.7986 14.7216 74.6396 13.8816 75.6776 13.8816C76.7146 13.8816 77.5556 14.7216 77.5556 15.7596Z" fill="#F91155"/>
<path fill-rule="evenodd" clip-rule="evenodd" d="M92.3153 15.7596C92.3153 16.7976 91.4743 17.6376 90.4373 17.6376C89.3993 17.6376 88.5583 16.7976 88.5583 15.7596C88.5583 14.7216 89.3993 13.8816 90.4373 13.8816C91.4743 13.8816 92.3153 14.7216 92.3153 15.7596Z" fill="#F91155"/>
<mask id="mask3" mask-type="alpha" maskUnits="userSpaceOnUse" x="103" y="13" width="5" height="5">
<path fill-rule="evenodd" clip-rule="evenodd" d="M103.318 13.8816H107.075V17.6376H103.318V13.8816Z" fill="white"/>
</mask>
<g mask="url(#mask3)">
<path fill-rule="evenodd" clip-rule="evenodd" d="M107.075 15.7596C107.075 16.7976 106.234 17.6376 105.197 17.6376C104.159 17.6376 103.318 16.7976 103.318 15.7596C103.318 14.7216 104.159 13.8816 105.197 13.8816C106.234 13.8816 107.075 14.7216 107.075 15.7596Z" fill="#F91155"/>
</g>
<mask id="mask4" mask-type="alpha" maskUnits="userSpaceOnUse" x="0" y="26" width="4" height="5">
<path fill-rule="evenodd" clip-rule="evenodd" d="M0 26.7627H3.7568V30.5187H0V26.7627Z" fill="white"/>
</mask>
<g mask="url(#mask4)">
<path fill-rule="evenodd" clip-rule="evenodd" d="M3.75676 28.6407C3.75676 29.6787 2.91576 30.5187 1.87876 30.5187C0.840756 30.5187 -0.000244141 29.6787 -0.000244141 28.6407C-0.000244141 27.6027 0.840756 26.7627 1.87876 26.7627C2.91576 26.7627 3.75676 27.6027 3.75676 28.6407Z" fill="#F91155"/>
</g>
<path fill-rule="evenodd" clip-rule="evenodd" d="M18.5166 28.6409C18.5166 29.6789 17.6756 30.5189 16.6386 30.5189C15.6006 30.5189 14.7596 29.6789 14.7596 28.6409C14.7596 27.6029 15.6006 26.7629 16.6386 26.7629C17.6756 26.7629 18.5166 27.6029 18.5166 28.6409Z" fill="#F91155"/>
<path fill-rule="evenodd" clip-rule="evenodd" d="M33.2763 28.6409C33.2763 29.6789 32.4353 30.5189 31.3983 30.5189C30.3603 30.5189 29.5193 29.6789 29.5193 28.6409C29.5193 27.6029 30.3603 26.7629 31.3983 26.7629C32.4353 26.7629 33.2763 27.6029 33.2763 28.6409Z" fill="#F91155"/>
<path fill-rule="evenodd" clip-rule="evenodd" d="M48.0361 28.6409C48.0361 29.6789 47.1951 30.5189 46.1581 30.5189C45.1201 30.5189 44.2791 29.6789 44.2791 28.6409C44.2791 27.6029 45.1201 26.7629 46.1581 26.7629C47.1951 26.7629 48.0361 27.6029 48.0361 28.6409Z" fill="#F91155"/>
<path fill-rule="evenodd" clip-rule="evenodd" d="M62.7959 28.6409C62.7959 29.6789 61.9549 30.5189 60.9179 30.5189C59.8799 30.5189 59.0389 29.6789 59.0389 28.6409C59.0389 27.6029 59.8799 26.7629 60.9179 26.7629C61.9549 26.7629 62.7959 27.6029 62.7959 28.6409Z" fill="#F91155"/>
<path fill-rule="evenodd" clip-rule="evenodd" d="M77.5556 28.6409C77.5556 29.6789 76.7146 30.5189 75.6776 30.5189C74.6396 30.5189 73.7986 29.6789 73.7986 28.6409C73.7986 27.6029 74.6396 26.7629 75.6776 26.7629C76.7146 26.7629 77.5556 27.6029 77.5556 28.6409Z" fill="#F91155"/>
<path fill-rule="evenodd" clip-rule="evenodd" d="M92.3153 28.6409C92.3153 29.6789 91.4743 30.5189 90.4373 30.5189C89.3993 30.5189 88.5583 29.6789 88.5583 28.6409C88.5583 27.6029 89.3993 26.7629 90.4373 26.7629C91.4743 26.7629 92.3153 27.6029 92.3153 28.6409Z" fill="#F91155"/>
<mask id="mask5" mask-type="alpha" maskUnits="userSpaceOnUse" x="103" y="26" width="5" height="5">
<path fill-rule="evenodd" clip-rule="evenodd" d="M103.318 26.7627H107.075V30.5187H103.318V26.7627Z" fill="white"/>
</mask>
<g mask="url(#mask5)">
<path fill-rule="evenodd" clip-rule="evenodd" d="M107.075 28.6407C107.075 29.6787 106.234 30.5187 105.197 30.5187C104.159 30.5187 103.318 29.6787 103.318 28.6407C103.318 27.6027 104.159 26.7627 105.197 26.7627C106.234 26.7627 107.075 27.6027 107.075 28.6407Z" fill="#F91155"/>
</g>
<mask id="mask6" mask-type="alpha" maskUnits="userSpaceOnUse" x="0" y="39" width="4" height="5">
<path fill-rule="evenodd" clip-rule="evenodd" d="M0 39.6443H3.7568V43.4003H0V39.6443Z" fill="white"/>
</mask>
<g mask="url(#mask6)">
<path fill-rule="evenodd" clip-rule="evenodd" d="M3.75676 41.5223C3.75676 42.5603 2.91576 43.4003 1.87876 43.4003C0.840756 43.4003 -0.000244141 42.5603 -0.000244141 41.5223C-0.000244141 40.4843 0.840756 39.6443 1.87876 39.6443C2.91576 39.6443 3.75676 40.4843 3.75676 41.5223Z" fill="#F91155"/>
</g>
<path fill-rule="evenodd" clip-rule="evenodd" d="M18.5166 41.5223C18.5166 42.5603 17.6756 43.4003 16.6386 43.4003C15.6006 43.4003 14.7596 42.5603 14.7596 41.5223C14.7596 40.4843 15.6006 39.6443 16.6386 39.6443C17.6756 39.6443 18.5166 40.4843 18.5166 41.5223Z" fill="#F91155"/>
<path fill-rule="evenodd" clip-rule="evenodd" d="M33.2763 41.5223C33.2763 42.5603 32.4353 43.4003 31.3983 43.4003C30.3603 43.4003 29.5193 42.5603 29.5193 41.5223C29.5193 40.4843 30.3603 39.6443 31.3983 39.6443C32.4353 39.6443 33.2763 40.4843 33.2763 41.5223Z" fill="#F91155"/>
<path fill-rule="evenodd" clip-rule="evenodd" d="M48.0361 41.5223C48.0361 42.5603 47.1951 43.4003 46.1581 43.4003C45.1201 43.4003 44.2791 42.5603 44.2791 41.5223C44.2791 40.4843 45.1201 39.6443 46.1581 39.6443C47.1951 39.6443 48.0361 40.4843 48.0361 41.5223Z" fill="#F91155"/>
<path fill-rule="evenodd" clip-rule="evenodd" d="M62.7959 41.5223C62.7959 42.5603 61.9549 43.4003 60.9179 43.4003C59.8799 43.4003 59.0389 42.5603 59.0389 41.5223C59.0389 40.4843 59.8799 39.6443 60.9179 39.6443C61.9549 39.6443 62.7959 40.4843 62.7959 41.5223Z" fill="#F91155"/>
<path fill-rule="evenodd" clip-rule="evenodd" d="M77.5556 41.5223C77.5556 42.5603 76.7146 43.4003 75.6776 43.4003C74.6396 43.4003 73.7986 42.5603 73.7986 41.5223C73.7986 40.4843 74.6396 39.6443 75.6776 39.6443C76.7146 39.6443 77.5556 40.4843 77.5556 41.5223Z" fill="#F91155"/>
<path fill-rule="evenodd" clip-rule="evenodd" d="M92.3153 41.5223C92.3153 42.5603 91.4743 43.4003 90.4373 43.4003C89.3993 43.4003 88.5583 42.5603 88.5583 41.5223C88.5583 40.4843 89.3993 39.6443 90.4373 39.6443C91.4743 39.6443 92.3153 40.4843 92.3153 41.5223Z" fill="#F91155"/>
<mask id="mask7" mask-type="alpha" maskUnits="userSpaceOnUse" x="103" y="39" width="5" height="5">
<path fill-rule="evenodd" clip-rule="evenodd" d="M103.318 39.6443H107.075V43.4003H103.318V39.6443Z" fill="white"/>
</mask>
<g mask="url(#mask7)">
<path fill-rule="evenodd" clip-rule="evenodd" d="M107.075 41.5223C107.075 42.5603 106.234 43.4003 105.197 43.4003C104.159 43.4003 103.318 42.5603 103.318 41.5223C103.318 40.4843 104.159 39.6443 105.197 39.6443C106.234 39.6443 107.075 40.4843 107.075 41.5223Z" fill="#F91155"/>
</g>
<mask id="mask8" mask-type="alpha" maskUnits="userSpaceOnUse" x="0" y="52" width="4" height="5">
<path fill-rule="evenodd" clip-rule="evenodd" d="M0 52.5244H3.7568V56.2814H0V52.5244Z" fill="white"/>
</mask>
<g mask="url(#mask8)">
<path fill-rule="evenodd" clip-rule="evenodd" d="M3.75676 54.4034C3.75676 55.4404 2.91576 56.2814 1.87876 56.2814C0.840756 56.2814 -0.000244141 55.4404 -0.000244141 54.4034C-0.000244141 53.3654 0.840756 52.5244 1.87876 52.5244C2.91576 52.5244 3.75676 53.3654 3.75676 54.4034Z" fill="#F91155"/>
</g>
<path fill-rule="evenodd" clip-rule="evenodd" d="M18.5166 54.4037C18.5166 55.4407 17.6756 56.2817 16.6386 56.2817C15.6006 56.2817 14.7596 55.4407 14.7596 54.4037C14.7596 53.3657 15.6006 52.5247 16.6386 52.5247C17.6756 52.5247 18.5166 53.3657 18.5166 54.4037Z" fill="#F91155"/>
<path fill-rule="evenodd" clip-rule="evenodd" d="M33.2763 54.4037C33.2763 55.4407 32.4353 56.2817 31.3983 56.2817C30.3603 56.2817 29.5193 55.4407 29.5193 54.4037C29.5193 53.3657 30.3603 52.5247 31.3983 52.5247C32.4353 52.5247 33.2763 53.3657 33.2763 54.4037Z" fill="#F91155"/>
<path fill-rule="evenodd" clip-rule="evenodd" d="M48.0361 54.4037C48.0361 55.4407 47.1951 56.2817 46.1581 56.2817C45.1201 56.2817 44.2791 55.4407 44.2791 54.4037C44.2791 53.3657 45.1201 52.5247 46.1581 52.5247C47.1951 52.5247 48.0361 53.3657 48.0361 54.4037Z" fill="#F91155"/>
<path fill-rule="evenodd" clip-rule="evenodd" d="M62.7959 54.4037C62.7959 55.4407 61.9549 56.2817 60.9179 56.2817C59.8799 56.2817 59.0389 55.4407 59.0389 54.4037C59.0389 53.3657 59.8799 52.5247 60.9179 52.5247C61.9549 52.5247 62.7959 53.3657 62.7959 54.4037Z" fill="#F91155"/>
<path fill-rule="evenodd" clip-rule="evenodd" d="M77.5556 54.4037C77.5556 55.4407 76.7146 56.2817 75.6776 56.2817C74.6396 56.2817 73.7986 55.4407 73.7986 54.4037C73.7986 53.3657 74.6396 52.5247 75.6776 52.5247C76.7146 52.5247 77.5556 53.3657 77.5556 54.4037Z" fill="#F91155"/>
<path fill-rule="evenodd" clip-rule="evenodd" d="M92.3153 54.4037C92.3153 55.4407 91.4743 56.2817 90.4373 56.2817C89.3993 56.2817 88.5583 55.4407 88.5583 54.4037C88.5583 53.3657 89.3993 52.5247 90.4373 52.5247C91.4743 52.5247 92.3153 53.3657 92.3153 54.4037Z" fill="#F91155"/>
<mask id="mask9" mask-type="alpha" maskUnits="userSpaceOnUse" x="103" y="52" width="5" height="5">
<path fill-rule="evenodd" clip-rule="evenodd" d="M103.318 52.5244H107.075V56.2814H103.318V52.5244Z" fill="white"/>
</mask>
<g mask="url(#mask9)">
<path fill-rule="evenodd" clip-rule="evenodd" d="M107.075 54.4034C107.075 55.4404 106.234 56.2814 105.197 56.2814C104.159 56.2814 103.318 55.4404 103.318 54.4034C103.318 53.3654 104.159 52.5244 105.197 52.5244C106.234 52.5244 107.075 53.3654 107.075 54.4034Z" fill="#F91155"/>
</g>
<mask id="mask10" mask-type="alpha" maskUnits="userSpaceOnUse" x="0" y="65" width="4" height="5">
<path fill-rule="evenodd" clip-rule="evenodd" d="M0 65.4065H3.7568V69.1635H0V65.4065Z" fill="white"/>
</mask>
<g mask="url(#mask10)">
<path fill-rule="evenodd" clip-rule="evenodd" d="M3.75676 67.2845C3.75676 68.3225 2.91576 69.1635 1.87876 69.1635C0.840756 69.1635 -0.000244141 68.3225 -0.000244141 67.2845C-0.000244141 66.2475 0.840756 65.4065 1.87876 65.4065C2.91576 65.4065 3.75676 66.2475 3.75676 67.2845Z" fill="#F91155"/>
</g>
<path fill-rule="evenodd" clip-rule="evenodd" d="M18.5166 67.2845C18.5166 68.3225 17.6756 69.1635 16.6386 69.1635C15.6006 69.1635 14.7596 68.3225 14.7596 67.2845C14.7596 66.2475 15.6006 65.4065 16.6386 65.4065C17.6756 65.4065 18.5166 66.2475 18.5166 67.2845Z" fill="#F91155"/>
<path fill-rule="evenodd" clip-rule="evenodd" d="M33.2763 67.2845C33.2763 68.3225 32.4353 69.1635 31.3983 69.1635C30.3603 69.1635 29.5193 68.3225 29.5193 67.2845C29.5193 66.2475 30.3603 65.4065 31.3983 65.4065C32.4353 65.4065 33.2763 66.2475 33.2763 67.2845Z" fill="#F91155"/>
<path fill-rule="evenodd" clip-rule="evenodd" d="M48.0361 67.2845C48.0361 68.3225 47.1951 69.1635 46.1581 69.1635C45.1201 69.1635 44.2791 68.3225 44.2791 67.2845C44.2791 66.2475 45.1201 65.4065 46.1581 65.4065C47.1951 65.4065 48.0361 66.2475 48.0361 67.2845Z" fill="#F91155"/>
<path fill-rule="evenodd" clip-rule="evenodd" d="M62.7959 67.2845C62.7959 68.3225 61.9549 69.1635 60.9179 69.1635C59.8799 69.1635 59.0389 68.3225 59.0389 67.2845C59.0389 66.2475 59.8799 65.4065 60.9179 65.4065C61.9549 65.4065 62.7959 66.2475 62.7959 67.2845Z" fill="#F91155"/>
<path fill-rule="evenodd" clip-rule="evenodd" d="M77.5556 67.2845C77.5556 68.3225 76.7146 69.1635 75.6776 69.1635C74.6396 69.1635 73.7986 68.3225 73.7986 67.2845C73.7986 66.2475 74.6396 65.4065 75.6776 65.4065C76.7146 65.4065 77.5556 66.2475 77.5556 67.2845Z" fill="#F91155"/>
<path fill-rule="evenodd" clip-rule="evenodd" d="M92.3153 67.2845C92.3153 68.3225 91.4743 69.1635 90.4373 69.1635C89.3993 69.1635 88.5583 68.3225 88.5583 67.2845C88.5583 66.2475 89.3993 65.4065 90.4373 65.4065C91.4743 65.4065 92.3153 66.2475 92.3153 67.2845Z" fill="#F91155"/>
<mask id="mask11" mask-type="alpha" maskUnits="userSpaceOnUse" x="103" y="65" width="5" height="5">
<path fill-rule="evenodd" clip-rule="evenodd" d="M103.318 65.4065H107.075V69.1635H103.318V65.4065Z" fill="white"/>
</mask>
<g mask="url(#mask11)">
<path fill-rule="evenodd" clip-rule="evenodd" d="M107.075 67.2845C107.075 68.3225 106.234 69.1635 105.197 69.1635C104.159 69.1635 103.318 68.3225 103.318 67.2845C103.318 66.2475 104.159 65.4065 105.197 65.4065C106.234 65.4065 107.075 66.2475 107.075 67.2845Z" fill="#F91155"/>
</g>
<mask id="mask12" mask-type="alpha" maskUnits="userSpaceOnUse" x="0" y="78" width="4" height="5">
<path fill-rule="evenodd" clip-rule="evenodd" d="M0 78.2876H3.7568V82.0436H0V78.2876Z" fill="white"/>
</mask>
<g mask="url(#mask12)">
<path fill-rule="evenodd" clip-rule="evenodd" d="M3.75676 80.1656C3.75676 81.2036 2.91576 82.0436 1.87876 82.0436C0.840756 82.0436 -0.000244141 81.2036 -0.000244141 80.1656C-0.000244141 79.1286 0.840756 78.2876 1.87876 78.2876C2.91576 78.2876 3.75676 79.1286 3.75676 80.1656Z" fill="#F91155"/>
</g>
<path fill-rule="evenodd" clip-rule="evenodd" d="M18.5166 80.1658C18.5166 81.2038 17.6756 82.0438 16.6386 82.0438C15.6006 82.0438 14.7596 81.2038 14.7596 80.1658C14.7596 79.1288 15.6006 78.2878 16.6386 78.2878C17.6756 78.2878 18.5166 79.1288 18.5166 80.1658Z" fill="#F91155"/>
<path fill-rule="evenodd" clip-rule="evenodd" d="M33.2763 80.1658C33.2763 81.2038 32.4353 82.0438 31.3983 82.0438C30.3603 82.0438 29.5193 81.2038 29.5193 80.1658C29.5193 79.1288 30.3603 78.2878 31.3983 78.2878C32.4353 78.2878 33.2763 79.1288 33.2763 80.1658Z" fill="#F91155"/>
<path fill-rule="evenodd" clip-rule="evenodd" d="M48.0361 80.1658C48.0361 81.2038 47.1951 82.0438 46.1581 82.0438C45.1201 82.0438 44.2791 81.2038 44.2791 80.1658C44.2791 79.1288 45.1201 78.2878 46.1581 78.2878C47.1951 78.2878 48.0361 79.1288 48.0361 80.1658Z" fill="#F91155"/>
<path fill-rule="evenodd" clip-rule="evenodd" d="M62.7959 80.1658C62.7959 81.2038 61.9549 82.0438 60.9179 82.0438C59.8799 82.0438 59.0389 81.2038 59.0389 80.1658C59.0389 79.1288 59.8799 78.2878 60.9179 78.2878C61.9549 78.2878 62.7959 79.1288 62.7959 80.1658Z" fill="#F91155"/>
<path fill-rule="evenodd" clip-rule="evenodd" d="M77.5556 80.1658C77.5556 81.2038 76.7146 82.0438 75.6776 82.0438C74.6396 82.0438 73.7986 81.2038 73.7986 80.1658C73.7986 79.1288 74.6396 78.2878 75.6776 78.2878C76.7146 78.2878 77.5556 79.1288 77.5556 80.1658Z" fill="#F91155"/>
<path fill-rule="evenodd" clip-rule="evenodd" d="M92.3153 80.1658C92.3153 81.2038 91.4743 82.0438 90.4373 82.0438C89.3993 82.0438 88.5583 81.2038 88.5583 80.1658C88.5583 79.1288 89.3993 78.2878 90.4373 78.2878C91.4743 78.2878 92.3153 79.1288 92.3153 80.1658Z" fill="#F91155"/>
<mask id="mask13" mask-type="alpha" maskUnits="userSpaceOnUse" x="103" y="78" width="5" height="5">
<path fill-rule="evenodd" clip-rule="evenodd" d="M103.318 78.2876H107.075V82.0436H103.318V78.2876Z" fill="white"/>
</mask>
<g mask="url(#mask13)">
<path fill-rule="evenodd" clip-rule="evenodd" d="M107.075 80.1656C107.075 81.2036 106.234 82.0436 105.197 82.0436C104.159 82.0436 103.318 81.2036 103.318 80.1656C103.318 79.1286 104.159 78.2876 105.197 78.2876C106.234 78.2876 107.075 79.1286 107.075 80.1656Z" fill="#F91155"/>
</g>
<mask id="mask14" mask-type="alpha" maskUnits="userSpaceOnUse" x="0" y="91" width="4" height="4">
<path fill-rule="evenodd" clip-rule="evenodd" d="M0 91.1692H3.7568V94.9252H0V91.1692Z" fill="white"/>
</mask>
<g mask="url(#mask14)">
<path fill-rule="evenodd" clip-rule="evenodd" d="M3.75676 93.0472C3.75676 94.0852 2.91576 94.9252 1.87876 94.9252C0.840756 94.9252 -0.000244141 94.0852 -0.000244141 93.0472C-0.000244141 92.0092 0.840756 91.1692 1.87876 91.1692C2.91576 91.1692 3.75676 92.0092 3.75676 93.0472Z" fill="#F91155"/>
</g>
<path fill-rule="evenodd" clip-rule="evenodd" d="M18.5166 93.0472C18.5166 94.0852 17.6756 94.9252 16.6386 94.9252C15.6006 94.9252 14.7596 94.0852 14.7596 93.0472C14.7596 92.0092 15.6006 91.1692 16.6386 91.1692C17.6756 91.1692 18.5166 92.0092 18.5166 93.0472Z" fill="#F91155"/>
<path fill-rule="evenodd" clip-rule="evenodd" d="M33.2763 93.0472C33.2763 94.0852 32.4353 94.9252 31.3983 94.9252C30.3603 94.9252 29.5193 94.0852 29.5193 93.0472C29.5193 92.0092 30.3603 91.1692 31.3983 91.1692C32.4353 91.1692 33.2763 92.0092 33.2763 93.0472Z" fill="#F91155"/>
<path fill-rule="evenodd" clip-rule="evenodd" d="M48.0361 93.0472C48.0361 94.0852 47.1951 94.9252 46.1581 94.9252C45.1201 94.9252 44.2791 94.0852 44.2791 93.0472C44.2791 92.0092 45.1201 91.1692 46.1581 91.1692C47.1951 91.1692 48.0361 92.0092 48.0361 93.0472Z" fill="#F91155"/>
<path fill-rule="evenodd" clip-rule="evenodd" d="M62.7959 93.0472C62.7959 94.0852 61.9549 94.9252 60.9179 94.9252C59.8799 94.9252 59.0389 94.0852 59.0389 93.0472C59.0389 92.0092 59.8799 91.1692 60.9179 91.1692C61.9549 91.1692 62.7959 92.0092 62.7959 93.0472Z" fill="#F91155"/>
<path fill-rule="evenodd" clip-rule="evenodd" d="M77.5556 93.0472C77.5556 94.0852 76.7146 94.9252 75.6776 94.9252C74.6396 94.9252 73.7986 94.0852 73.7986 93.0472C73.7986 92.0092 74.6396 91.1692 75.6776 91.1692C76.7146 91.1692 77.5556 92.0092 77.5556 93.0472Z" fill="#F91155"/>
<path fill-rule="evenodd" clip-rule="evenodd" d="M92.3153 93.0472C92.3153 94.0852 91.4743 94.9252 90.4373 94.9252C89.3993 94.9252 88.5583 94.0852 88.5583 93.0472C88.5583 92.0092 89.3993 91.1692 90.4373 91.1692C91.4743 91.1692 92.3153 92.0092 92.3153 93.0472Z" fill="#F91155"/>
<mask id="mask15" mask-type="alpha" maskUnits="userSpaceOnUse" x="103" y="91" width="5" height="4">
<path fill-rule="evenodd" clip-rule="evenodd" d="M103.318 91.1692H107.075V94.9252H103.318V91.1692Z" fill="white"/>
</mask>
<g mask="url(#mask15)">
<path fill-rule="evenodd" clip-rule="evenodd" d="M107.075 93.0472C107.075 94.0852 106.234 94.9252 105.197 94.9252C104.159 94.9252 103.318 94.0852 103.318 93.0472C103.318 92.0092 104.159 91.1692 105.197 91.1692C106.234 91.1692 107.075 92.0092 107.075 93.0472Z" fill="#F91155"/>
</g>
<mask id="mask16" mask-type="alpha" maskUnits="userSpaceOnUse" x="0" y="104" width="4" height="4">
<path fill-rule="evenodd" clip-rule="evenodd" d="M0 104.05H3.7568V107.806H0V104.05Z" fill="white"/>
</mask>
<g mask="url(#mask16)">
<path fill-rule="evenodd" clip-rule="evenodd" d="M3.75676 105.928C3.75676 106.966 2.91576 107.806 1.87876 107.806C0.840756 107.806 -0.000244141 106.966 -0.000244141 105.928C-0.000244141 104.89 0.840756 104.05 1.87876 104.05C2.91576 104.05 3.75676 104.89 3.75676 105.928Z" fill="#F91155"/>
</g>
<path fill-rule="evenodd" clip-rule="evenodd" d="M18.5166 105.929C18.5166 106.967 17.6756 107.807 16.6386 107.807C15.6006 107.807 14.7596 106.967 14.7596 105.929C14.7596 104.891 15.6006 104.051 16.6386 104.051C17.6756 104.051 18.5166 104.891 18.5166 105.929Z" fill="#F91155"/>
<path fill-rule="evenodd" clip-rule="evenodd" d="M33.2763 105.929C33.2763 106.967 32.4353 107.807 31.3983 107.807C30.3603 107.807 29.5193 106.967 29.5193 105.929C29.5193 104.891 30.3603 104.051 31.3983 104.051C32.4353 104.051 33.2763 104.891 33.2763 105.929Z" fill="#F91155"/>
<path fill-rule="evenodd" clip-rule="evenodd" d="M48.0361 105.929C48.0361 106.967 47.1951 107.807 46.1581 107.807C45.1201 107.807 44.2791 106.967 44.2791 105.929C44.2791 104.891 45.1201 104.051 46.1581 104.051C47.1951 104.051 48.0361 104.891 48.0361 105.929Z" fill="#F91155"/>
<path fill-rule="evenodd" clip-rule="evenodd" d="M62.7959 105.929C62.7959 106.967 61.9549 107.807 60.9179 107.807C59.8799 107.807 59.0389 106.967 59.0389 105.929C59.0389 104.891 59.8799 104.051 60.9179 104.051C61.9549 104.051 62.7959 104.891 62.7959 105.929Z" fill="#F91155"/>
<path fill-rule="evenodd" clip-rule="evenodd" d="M77.5556 105.929C77.5556 106.967 76.7146 107.807 75.6776 107.807C74.6396 107.807 73.7986 106.967 73.7986 105.929C73.7986 104.891 74.6396 104.051 75.6776 104.051C76.7146 104.051 77.5556 104.891 77.5556 105.929Z" fill="#F91155"/>
<path fill-rule="evenodd" clip-rule="evenodd" d="M92.3153 105.929C92.3153 106.967 91.4743 107.807 90.4373 107.807C89.3993 107.807 88.5583 106.967 88.5583 105.929C88.5583 104.891 89.3993 104.051 90.4373 104.051C91.4743 104.051 92.3153 104.891 92.3153 105.929Z" fill="#F91155"/>
<mask id="mask17" mask-type="alpha" maskUnits="userSpaceOnUse" x="103" y="104" width="5" height="4">
<path fill-rule="evenodd" clip-rule="evenodd" d="M103.318 104.05H107.075V107.806H103.318V104.05Z" fill="white"/>
</mask>
<g mask="url(#mask17)">
<path fill-rule="evenodd" clip-rule="evenodd" d="M107.075 105.928C107.075 106.966 106.234 107.806 105.197 107.806C104.159 107.806 103.318 106.966 103.318 105.928C103.318 104.89 104.159 104.05 105.197 104.05C106.234 104.05 107.075 104.89 107.075 105.928Z" fill="#F91155"/>
</g>
</svg>
