<svg width="80" height="61" viewBox="0 0 80 61" fill="none" xmlns="http://www.w3.org/2000/svg">
<mask id="mask0" mask-type="alpha" maskUnits="userSpaceOnUse" x="0" y="0" width="75" height="61">
<path fill-rule="evenodd" clip-rule="evenodd" d="M6.10352e-05 0H74.8657V60.3773H6.10352e-05V0Z" fill="white"/>
</mask>
<g mask="url(#mask0)">
<path fill-rule="evenodd" clip-rule="evenodd" d="M66.4136 39.8491V35.0189C66.4136 34.3532 66.9548 33.8113 67.6212 33.8113H68.828C69.4952 33.8113 70.0363 33.2709 70.0363 32.6038C70.0363 31.9374 69.4952 31.3962 68.828 31.3962H67.6212C65.6235 31.3962 63.9986 33.0211 63.9986 35.0189V39.8491C63.9986 41.8468 65.6235 43.4717 67.6212 43.4717H72.4514V54.3396C72.4514 56.3374 70.8265 57.9623 68.828 57.9623H6.0378C5.07025 57.9623 4.16006 57.5849 3.47553 56.9011C2.79176 56.2166 2.4144 55.3064 2.41516 54.3389L2.42572 15.6981C2.42572 13.7011 4.05063 12.0755 6.04836 12.0755H21.7344V10.8679C21.7344 6.20679 25.5261 2.41509 30.1872 2.41509C34.8484 2.41509 38.6393 6.20679 38.6393 10.8679C38.6393 11.5351 39.1804 12.0755 39.8476 12.0755C40.5148 12.0755 41.0544 11.5351 41.0544 10.8679C41.0544 4.87547 36.1789 0 30.1872 0C24.6031 0 19.988 4.23472 19.385 9.66038H6.04836C2.71855 9.66038 0.0106278 12.3691 0.0106278 15.6981L6.17147e-05 54.3374C-0.000693002 55.9502 0.627231 57.4672 1.76761 58.6083C2.90799 59.7494 4.42421 60.3774 6.0378 60.3774H68.828C72.1578 60.3774 74.8657 57.6687 74.8657 54.3396V41.0566H67.6212C66.9548 41.0566 66.4136 40.5155 66.4136 39.8491Z" fill="#666666"/>
</g>
<path fill-rule="evenodd" clip-rule="evenodd" d="M74.8659 31.3964V20.5285C74.8659 17.1986 72.1579 14.4907 68.8281 14.4907H6.03643C5.36926 14.4907 4.82812 15.0311 4.82812 15.6983C4.82812 16.3647 5.36926 16.9058 6.03643 16.9058H68.8281C70.8259 16.9058 72.4515 18.5307 72.4515 20.5285V33.8115H77.281V42.2613C77.281 42.9277 77.8221 43.4688 78.4893 43.4688C79.1557 43.4688 79.6961 42.9277 79.6961 42.2613V31.3964H74.8659Z" fill="#666666"/>
<path fill-rule="evenodd" clip-rule="evenodd" d="M68.8311 37.4341C68.8311 38.1005 69.3753 38.6417 70.0417 38.6417C70.7089 38.6417 71.2492 38.1005 71.2492 37.4341C71.2492 36.7669 70.7089 36.2266 70.0417 36.2266H70.0364C69.3692 36.2266 68.8311 36.7669 68.8311 37.4341Z" fill="#666666"/>
<path fill-rule="evenodd" clip-rule="evenodd" d="M31.3945 26.566H37.433C40.7621 26.566 43.47 29.2739 43.4707 32.6037C43.4707 35.9328 40.7621 38.6414 37.433 38.6414H31.3945V26.566ZM25.3568 44.6792C24.6896 44.6792 24.1492 45.2196 24.1492 45.8867C24.1492 46.5531 24.6896 47.0943 25.3568 47.0943H28.9794V54.3396C28.9794 55.0067 29.5206 55.5471 30.187 55.5471C30.8534 55.5471 31.3945 55.0067 31.3945 54.3396V47.0943H39.8473C40.5145 47.0943 41.0549 46.5531 41.0549 45.8867C41.0549 45.2196 40.5145 44.6792 39.8473 44.6792H31.3945V41.0565H37.433C42.0941 41.0565 45.8858 37.2641 45.8858 32.603C45.8851 27.9426 42.0934 24.1509 37.433 24.1509H28.9794V38.6414H25.3568C24.6896 38.6414 24.1492 39.1818 24.1492 39.849C24.1492 40.5154 24.6896 41.0565 25.3568 41.0565H28.9794V44.6792H25.3568Z" fill="#666666"/>
<path fill-rule="evenodd" clip-rule="evenodd" d="M39.8475 2.41509C44.5086 2.41509 48.3003 6.20679 48.3003 10.8679V12.0755H68.8278C69.495 12.0755 70.0361 11.5343 70.0361 10.8679C70.0361 10.2008 69.495 9.66038 68.8278 9.66038H50.649C50.046 4.23396 45.4316 0 39.8475 0C39.1803 0 38.6392 0.540377 38.6392 1.20755C38.6392 1.87396 39.1803 2.41509 39.8475 2.41509Z" fill="#666666"/>
</svg>
