<svg width="80" height="61" viewBox="0 0 80 61" fill="none" xmlns="http://www.w3.org/2000/svg">
<path fill-rule="evenodd" clip-rule="evenodd" d="M15.1578 38.5141C16.0838 38.9768 17.0981 39.2077 18.1132 39.2077C19.1283 39.2077 20.1427 38.9768 21.0687 38.5141C21.6649 38.216 21.9064 37.4907 21.6083 36.8945C21.3095 36.2975 20.5849 36.0552 19.988 36.3541C18.8144 36.9413 17.4121 36.9413 16.2385 36.3541C15.643 36.0552 14.9163 36.2975 14.6181 36.8945C14.32 37.4907 14.5615 38.216 15.1578 38.5141Z" fill="#666666"/>
<path fill-rule="evenodd" clip-rule="evenodd" d="M22.9437 30.1885C22.9437 29.5221 22.4026 28.981 21.7354 28.981C21.069 28.981 20.5286 29.5221 20.5286 30.1885C20.5286 30.8557 21.069 31.3961 21.7354 31.3961C22.4026 31.3961 22.9437 30.8557 22.9437 30.1885Z" fill="#666666"/>
<path fill-rule="evenodd" clip-rule="evenodd" d="M15.6981 30.1885C15.6981 29.5221 15.1577 28.981 14.4905 28.981C13.8241 28.981 13.283 29.5221 13.283 30.1885C13.283 30.8557 13.8241 31.3961 14.4905 31.3961C15.1577 31.3961 15.6981 30.8557 15.6981 30.1885Z" fill="#666666"/>
<mask id="mask0" mask-type="alpha" maskUnits="userSpaceOnUse" x="0" y="31" width="38" height="30">
<path fill-rule="evenodd" clip-rule="evenodd" d="M0 31.396H37.4338V60.3771H0V31.396Z" fill="white"/>
</mask>
<g mask="url(#mask0)">
<path fill-rule="evenodd" clip-rule="evenodd" d="M31.4233 48.3296L22.944 48.2971V49.5092C22.944 51.5069 21.3184 53.1318 19.3206 53.1318H15.698C15.0308 53.1318 14.4904 53.673 14.4904 54.3394C14.4904 55.0066 15.0308 55.5469 15.698 55.5469H19.3206C22.2346 55.5469 24.6738 53.4715 25.2369 50.7205L31.4127 50.7447C33.4014 50.7537 35.0195 52.3794 35.0195 54.3673V57.962H2.41497V54.3394C2.41497 52.3417 4.04063 50.7168 6.03761 50.7168H16.9063V43.4715H15.698C12.3689 43.4715 9.66026 40.7635 9.66026 37.4337V35.0186H8.45271C7.78705 35.0186 7.24516 34.4775 7.24516 33.8111V32.6035C7.24516 31.9364 6.70478 31.396 6.03761 31.396C5.37044 31.396 4.83082 31.9364 4.83082 32.6035V33.8111C4.83082 35.3854 5.83988 36.7288 7.24516 37.2269V37.4337C7.24516 41.6843 10.3999 45.2134 14.4904 45.8005V48.3017H6.03761C2.70856 48.3017 -0.00012207 51.0103 -0.00012207 54.3394V60.3771H37.4338V54.3673C37.4338 51.0534 34.738 48.3454 31.4233 48.3296Z" fill="#666666"/>
</g>
<path fill-rule="evenodd" clip-rule="evenodd" d="M10.8682 27.7737C10.8682 26.4417 11.952 25.3586 13.2826 25.3586H16.906C19.0999 25.3586 20.9565 23.8885 21.5437 21.8809C23.0486 22.3202 24.1513 23.7134 24.1513 25.3586V27.7737C24.1513 28.4402 24.6916 28.9813 25.3581 28.9813C26.0252 28.9813 26.5664 28.4402 26.5664 27.7737V25.3586C26.5664 22.0296 23.8577 19.3209 20.5286 19.3209H19.3203V20.5285C19.3203 21.8605 18.2373 22.9436 16.906 22.9436H13.2826C11.0365 22.9436 9.14371 24.4854 8.6056 26.5662H7.24484V25.3586C7.24484 20.6975 11.0373 16.9058 15.6977 16.9058H20.5286C25.1898 16.9058 28.9814 20.6975 28.9814 25.3586V33.8115C28.9814 34.4771 28.4396 35.019 27.7731 35.019H26.5664V37.4341C26.5664 40.7632 23.8577 43.4719 20.5286 43.4719C19.8614 43.4719 19.3203 44.0122 19.3203 44.6794C19.3203 45.3466 19.8614 45.8869 20.5286 45.8869C25.1898 45.8869 28.9814 42.0952 28.9814 37.4341V37.2273C30.3867 36.7292 31.3958 35.3858 31.3958 33.8115V25.3586C31.3958 19.3662 26.5211 14.4907 20.5286 14.4907H15.6977C9.70522 14.4907 4.83051 19.3662 4.83051 25.3586V28.9813H10.8682V27.7737Z" fill="#666666"/>
<path fill-rule="evenodd" clip-rule="evenodd" d="M45.8823 23.7318V24.162C45.8823 27.596 47.2189 30.8246 49.6475 33.2533C50.3313 33.9363 50.7079 34.845 50.7079 35.8111V37.4337H57.9623V28.8239L61.2943 24.9371C61.7283 24.4307 61.6694 23.6684 61.163 23.2337C60.6566 22.8005 59.8943 22.8594 59.4604 23.365L56.7547 26.522L54.0491 23.365C53.6151 22.8586 52.8528 22.7997 52.3457 23.2337C51.84 23.6684 51.7811 24.4307 52.2158 24.9371L55.5472 28.8246V35.0194H53.0709C52.9004 33.7077 52.3064 32.4956 51.3555 31.5454C49.3834 29.5733 48.2974 26.9507 48.2974 24.162V23.7318C48.2974 21.5522 49.1517 19.5099 50.7034 17.9794C52.2551 16.4488 54.3208 15.6284 56.4943 15.6511L56.7819 15.6556C61.4143 15.716 65.1834 19.5333 65.1834 24.1643V24.4194C65.1834 27.042 64.1615 29.5084 62.3072 31.3635L62.1094 31.5612C60.9804 32.6903 60.3585 34.1914 60.3585 35.7892V42.2556H51.9245C51.2574 42.2556 50.717 42.796 50.717 43.4631C50.717 44.1303 51.2574 44.6707 51.9245 44.6707H62.7728V35.7892C62.7728 34.8367 63.1434 33.9416 63.8174 33.2684L64.0136 33.0714C66.3253 30.7605 67.5985 27.6873 67.5985 24.4194V24.1643C67.5985 18.2194 62.7608 13.319 56.8128 13.2405L56.5253 13.2367C53.6906 13.1914 51.0234 14.2714 49.0075 16.2601C46.9917 18.2473 45.8823 20.9016 45.8823 23.7318Z" fill="#666666"/>
<path fill-rule="evenodd" clip-rule="evenodd" d="M51.9245 41.0567H56.7547C57.4218 41.0567 57.9622 40.5156 57.9622 39.8491C57.9622 39.182 57.4218 38.6416 56.7547 38.6416H51.9245C51.2573 38.6416 50.7169 39.182 50.7169 39.8491C50.7169 40.5156 51.2573 41.0567 51.9245 41.0567Z" fill="#666666"/>
<path fill-rule="evenodd" clip-rule="evenodd" d="M57.9622 9.66051V6.03787C57.9622 5.3707 57.4218 4.83032 56.7547 4.83032C56.0883 4.83032 55.5471 5.3707 55.5471 6.03787V9.66051C55.5471 10.3269 56.0883 10.8681 56.7547 10.8681C57.4218 10.8681 57.9622 10.3269 57.9622 9.66051Z" fill="#666666"/>
<path fill-rule="evenodd" clip-rule="evenodd" d="M67.9761 8.80665L65.5618 11.2217C65.0901 11.6934 65.0901 12.458 65.5618 12.9289C65.7965 13.1651 66.1059 13.2829 66.4154 13.2829C66.724 13.2829 67.0335 13.1651 67.269 12.9289L69.684 10.5146C70.1557 10.0429 70.1557 9.27835 69.684 8.80665C69.2131 8.33496 68.4478 8.33496 67.9761 8.80665Z" fill="#666666"/>
<path fill-rule="evenodd" clip-rule="evenodd" d="M45.5329 8.80665C45.0619 8.33496 44.2967 8.33496 43.825 8.80665C43.3533 9.27835 43.3533 10.0429 43.825 10.5146L46.2401 12.9289C46.4763 13.1651 46.785 13.2829 47.0944 13.2829C47.4038 13.2829 47.7125 13.1651 47.948 12.9289C48.4197 12.458 48.4197 11.6934 47.948 11.2217L45.5329 8.80665Z" fill="#666666"/>
<mask id="mask1" mask-type="alpha" maskUnits="userSpaceOnUse" x="33" y="0" width="47" height="50">
<path fill-rule="evenodd" clip-rule="evenodd" d="M33.8115 0H79.6975V49.5093H33.8115V0Z" fill="white"/>
</mask>
<g mask="url(#mask1)">
<path fill-rule="evenodd" clip-rule="evenodd" d="M68.8303 -0.000244141H44.6794C38.6869 -0.000244141 33.8115 4.87523 33.8115 10.8677V31.396C33.8115 32.0632 34.3518 32.6035 35.019 32.6035C35.6854 32.6035 36.2266 32.0632 36.2266 31.396V10.8677C36.2266 6.2073 40.0183 2.41485 44.6794 2.41485H68.8303C73.4915 2.41485 77.2832 6.2073 77.2832 10.8677V38.6413C77.2832 43.3024 73.4915 47.0941 68.8303 47.0941H44.6794C40.0183 47.0941 36.2266 43.3024 36.2266 38.6413V36.2262C36.2266 35.5598 35.6854 35.0186 35.019 35.0186C34.3518 35.0186 33.8115 35.5598 33.8115 36.2262V38.6413C33.8115 44.6345 38.6869 49.5092 44.6794 49.5092H68.8303C74.8228 49.5092 79.6975 44.6345 79.6975 38.6413V10.8677C79.6975 4.87523 74.8228 -0.000244141 68.8303 -0.000244141Z" fill="#666666"/>
</g>
<path fill-rule="evenodd" clip-rule="evenodd" d="M68.8303 19.3206C68.8303 19.9878 69.3707 20.5281 70.0379 20.5281H73.6598C74.3269 20.5281 74.8681 19.9878 74.8681 19.3206C74.8681 18.6542 74.3269 18.113 73.6598 18.113H70.0379C69.3707 18.113 68.8303 18.6542 68.8303 19.3206Z" fill="#666666"/>
<path fill-rule="evenodd" clip-rule="evenodd" d="M39.849 18.113C39.1818 18.113 38.6414 18.6542 38.6414 19.3206C38.6414 19.9878 39.1818 20.5281 39.849 20.5281H43.4716C44.1388 20.5281 44.6792 19.9878 44.6792 19.3206C44.6792 18.6542 44.1388 18.113 43.4716 18.113H39.849Z" fill="#666666"/>
</svg>
