<svg width="80" height="61" viewBox="0 0 80 61" fill="none" xmlns="http://www.w3.org/2000/svg">
<path fill-rule="evenodd" clip-rule="evenodd" d="M39.8269 21.7555H68.7416C69.4057 21.7555 69.9454 21.2159 69.9454 20.551C69.9454 19.8853 69.4057 19.3457 68.7416 19.3457H39.8269C39.1612 19.3457 38.6216 19.8853 38.6216 20.551C38.6216 21.2159 39.1612 21.7555 39.8269 21.7555Z" fill="#666666"/>
<path fill-rule="evenodd" clip-rule="evenodd" d="M39.8269 26.5744H68.7416C69.4057 26.5744 69.9454 26.0347 69.9454 25.3698C69.9454 24.7042 69.4057 24.1646 68.7416 24.1646H39.8269C39.1612 24.1646 38.6216 24.7042 38.6216 25.3698C38.6216 26.0347 39.1612 26.5744 39.8269 26.5744Z" fill="#666666"/>
<path fill-rule="evenodd" clip-rule="evenodd" d="M39.8269 31.3935H59.1031C59.768 31.3935 60.3076 30.8538 60.3076 30.1889C60.3076 29.5233 59.768 28.9836 59.1031 28.9836H39.8269C39.1612 28.9836 38.6216 29.5233 38.6216 30.1889C38.6216 30.8538 39.1612 31.3935 39.8269 31.3935Z" fill="#666666"/>
<path fill-rule="evenodd" clip-rule="evenodd" d="M39.8269 41.0316H59.1031C59.768 41.0316 60.3076 40.492 60.3076 39.8264C60.3076 39.1614 59.768 38.6218 59.1031 38.6218H39.8269C39.1612 38.6218 38.6216 39.1614 38.6216 39.8264C38.6216 40.492 39.1612 41.0316 39.8269 41.0316Z" fill="#666666"/>
<mask id="mask0" mask-type="alpha" maskUnits="userSpaceOnUse" x="0" y="0" width="80" height="61">
<path fill-rule="evenodd" clip-rule="evenodd" d="M0 0.000244141H79.6536V60.3775H0V0.000244141Z" fill="white"/>
</mask>
<g mask="url(#mask0)">
<path fill-rule="evenodd" clip-rule="evenodd" d="M0 0.000244141V12.1867H73.56C74.2634 12.1867 74.834 11.6168 74.834 10.9127C74.834 10.2085 74.2634 9.63798 73.56 9.63798H2.54868V2.54892H77.1041V57.8289H2.54868V15.7316C2.54868 15.0282 1.97811 14.4568 1.27396 14.4568C0.570566 14.4568 0 15.0282 0 15.7316V60.3776H79.6536V0.000244141H0Z" fill="#666666"/>
</g>
<path fill-rule="evenodd" clip-rule="evenodd" d="M6.09383 4.88892C5.42817 4.88892 4.88855 5.42778 4.88855 6.09344C4.88855 6.7591 5.42817 7.29797 6.09383 7.29797H6.1693C6.83346 7.29797 7.37308 6.7591 7.37308 6.09344C7.37308 5.42778 6.83346 4.88892 6.1693 4.88892H6.09383Z" fill="#666666"/>
<path fill-rule="evenodd" clip-rule="evenodd" d="M10.8624 4.88892C10.1967 4.88892 9.68274 5.42778 9.68274 6.09344C9.68274 6.7591 10.2473 7.29797 10.9122 7.29797C11.5778 7.29797 12.1175 6.7591 12.1175 6.09344C12.1175 5.42778 11.5778 4.88892 10.9122 4.88892H10.8624Z" fill="#666666"/>
<path fill-rule="evenodd" clip-rule="evenodd" d="M15.6811 4.88892C15.0162 4.88892 14.5022 5.42778 14.5022 6.09344C14.5022 6.7591 15.0667 7.29797 15.7316 7.29797C16.3965 7.29797 16.9362 6.7591 16.9362 6.09344C16.9362 5.42778 16.3965 4.88892 15.7316 4.88892H15.6811Z" fill="#666666"/>
<path fill-rule="evenodd" clip-rule="evenodd" d="M68.6904 4.88892C68.0255 4.88892 67.4858 5.42778 67.4858 6.09344C67.4858 6.7591 68.0255 7.29797 68.6904 7.29797H68.7666C69.4307 7.29797 69.9704 6.7591 69.9704 6.09344C69.9704 5.42778 69.4307 4.88892 68.7666 4.88892H68.6904Z" fill="#666666"/>
<path fill-rule="evenodd" clip-rule="evenodd" d="M74.56 5.42475C74.5177 5.35834 74.4694 5.29871 74.4091 5.23834C73.9638 4.7923 73.157 4.7923 72.7109 5.23834C72.6506 5.29871 72.6015 5.35834 72.56 5.42475C72.5177 5.49117 72.4755 5.55758 72.4453 5.62928C72.4151 5.70777 72.3917 5.78022 72.3789 5.85871C72.3615 5.93645 72.3555 6.01494 72.3555 6.09343C72.3555 6.17192 72.3615 6.25041 72.3789 6.32815C72.3917 6.40664 72.4151 6.47834 72.4453 6.55758C72.4755 6.62928 72.5177 6.69645 72.56 6.76211C72.6015 6.82853 72.6506 6.88815 72.7109 6.94928C72.9336 7.17192 73.2408 7.29796 73.56 7.29796C73.8792 7.29796 74.1864 7.17192 74.4091 6.94928C74.4694 6.88815 74.5177 6.82853 74.56 6.76211C74.6023 6.69645 74.6438 6.62928 74.674 6.55758C74.7041 6.47834 74.7223 6.40664 74.7404 6.32815C74.7585 6.25041 74.7645 6.17192 74.7645 6.09343C74.7645 6.01494 74.7585 5.93645 74.7404 5.85871C74.7223 5.78022 74.7041 5.70777 74.674 5.62928C74.6438 5.55758 74.6023 5.49117 74.56 5.42475Z" fill="#666666"/>
<path fill-rule="evenodd" clip-rule="evenodd" d="M20.5506 4.88892C19.8849 4.88892 19.3453 5.42778 19.3453 6.09344C19.3453 6.7591 19.8849 7.29797 20.5506 7.29797H59.103C59.7679 7.29797 60.3075 6.7591 60.3075 6.09344C60.3075 5.42778 59.7679 4.88892 59.103 4.88892H20.5506Z" fill="#666666"/>
<path fill-rule="evenodd" clip-rule="evenodd" d="M16.9362 25.3699C16.9362 23.3766 18.5573 21.7555 20.5505 21.7555C22.5437 21.7555 24.1649 23.3766 24.1649 25.3699V28.9842C24.1649 30.9774 22.5437 32.5985 20.5505 32.5985C18.5573 32.5985 16.9362 30.9774 16.9362 28.9842V25.3699ZM9.70752 38.6219V41.0317H25.3694C26.0351 41.0317 26.5747 40.4921 26.5747 39.8265C26.5747 39.1616 26.0351 38.6219 25.3694 38.6219H12.1173C12.1173 36.6287 13.7385 35.0083 15.7317 35.0083H19.3453H21.7558H25.3694C27.3626 35.0083 28.9837 36.6287 28.9837 38.6219V39.8265C28.9837 40.4921 29.5234 41.0317 30.189 41.0317C30.8539 41.0317 31.3936 40.4921 31.3936 39.8265V38.6219C31.3936 35.3004 28.6909 32.5985 25.3694 32.5985H25.3619C26.1211 31.5902 26.5747 30.3397 26.5747 28.9842V25.3699C26.5747 22.0483 23.872 19.3457 20.5505 19.3457C17.229 19.3457 14.5271 22.0483 14.5271 25.3699V28.9842C14.5271 30.3389 14.9762 31.591 15.7347 32.5985H15.7317C12.4102 32.5985 9.70752 35.3004 9.70752 38.6219Z" fill="#666666"/>
</svg>
