<svg width="80" height="61" viewBox="0 0 80 61" fill="none" xmlns="http://www.w3.org/2000/svg">
<path fill-rule="evenodd" clip-rule="evenodd" d="M42.2639 18.1131C42.2639 12.5199 46.513 7.90329 51.9515 7.31234V9.90178C49.8519 10.3463 48.2707 12.2135 48.2707 14.4437V14.544C48.2707 17.2157 50.4436 19.3878 53.1138 19.3878C54.427 19.3878 55.4949 20.4565 55.4949 21.7697C55.4949 23.0822 54.427 24.1508 53.1024 24.1508C51.7824 24.1508 50.7085 23.0776 50.7085 21.7576C50.7085 21.0905 50.1689 20.5501 49.5017 20.5501C48.8345 20.5501 48.2941 21.0905 48.2941 21.7576C48.2941 24.0089 49.8519 25.8988 51.9515 26.4195V28.9146C46.513 28.3237 42.2639 23.7071 42.2639 18.1131ZM53.1409 12.215C54.4677 12.215 55.5477 13.2942 55.5477 14.621C55.5477 15.2874 56.0873 15.8286 56.7545 15.8286C57.4217 15.8286 57.9628 15.2874 57.9628 14.621C57.9628 12.3674 56.4051 10.4754 54.313 9.95008V7.31234C59.7515 7.90329 64.0006 12.5199 64.0006 18.1131C64.0006 23.7071 59.7515 28.3237 54.313 28.9146V26.4082C56.3779 25.8739 57.91 23.9999 57.91 21.7697C57.91 19.1244 55.759 16.9727 53.1138 16.9727C51.7756 16.9727 50.6858 15.8837 50.6858 14.544V14.4437C50.6858 13.215 51.6851 12.215 52.9138 12.215H53.1409ZM52.3206 31.3689C52.59 31.3855 52.8594 31.3961 53.1319 31.3961C53.4051 31.3961 53.6745 31.3855 53.9432 31.3689H54.313V31.341C61.0851 30.741 66.4149 25.0391 66.4149 18.1131C66.4149 10.7886 60.4564 4.83008 53.1319 4.83008C45.8073 4.83008 39.8496 10.7886 39.8496 18.1131C39.8496 25.0391 45.1787 30.741 51.9515 31.341V31.3689H52.3206Z" fill="#666666"/>
<path fill-rule="evenodd" clip-rule="evenodd" d="M70.0381 43.4716C70.7045 43.4716 71.2456 42.9312 71.2456 42.2641C71.2456 41.5976 70.7045 41.0565 70.0381 41.0565H57.9626V33.8112H48.3014V41.0565H43.472V30.1886H33.8116V41.0565H28.9814V14.4905H19.3211V41.0565H9.66069C8.99352 41.0565 8.45239 41.5976 8.45239 42.2641C8.45239 42.9312 8.99352 43.4716 9.66069 43.4716H21.7362V16.9056H26.5656V43.4716H36.226V32.6037H41.0569V43.4716H50.7165V36.2263H55.5475V43.4716H70.0381Z" fill="#666666"/>
<mask id="mask0" mask-type="alpha" maskUnits="userSpaceOnUse" x="0" y="0" width="80" height="61">
<path fill-rule="evenodd" clip-rule="evenodd" d="M0 0H79.698V60.3774H0V0Z" fill="white"/>
</mask>
<g mask="url(#mask0)">
<path fill-rule="evenodd" clip-rule="evenodd" d="M50.7169 50.717V51.9245C50.7169 52.5676 50.184 53.1321 49.5765 53.1321H27.7742C27.1078 53.1321 26.5659 52.5902 26.5659 51.9245V50.717H9.66101C8.99384 50.717 8.45271 51.2574 8.45271 51.9245C8.45271 52.5909 8.99384 53.1321 9.66101 53.1321H24.3576C24.8557 54.5374 26.1999 55.5472 27.7742 55.5472H49.5765C51.1214 55.5472 52.4399 54.5374 52.9289 53.1321H77.2829V56.7547C77.2829 57.4204 76.741 57.9623 76.0761 57.9623H3.62327C2.95686 57.9623 2.41497 57.4204 2.41497 56.7547V53.1321H6.03761V6.03774C6.03761 4.04 7.66252 2.41509 9.66101 2.41509H70.0384C72.0353 2.41509 73.6603 4.04 73.6603 6.03774V47.0943C73.6603 47.7608 74.2006 48.3019 74.8678 48.3019C75.535 48.3019 76.0761 47.7608 76.0761 47.0943V6.03774C76.0761 2.70868 73.3674 0 70.0384 0H9.66101C6.33044 0 3.62327 2.70868 3.62327 6.03774V50.717H-0.00012207V56.7547C-0.00012207 58.7525 1.62478 60.3774 3.62327 60.3774H76.0761C78.0731 60.3774 79.698 58.7525 79.698 56.7547V50.717H50.7169Z" fill="#666666"/>
</g>
</svg>
